<?xml version="1.0" encoding="UTF-8"?>
<!DOCTYPE svg PUBLIC "-//W3C//DTD SVG 1.1//EN" "http://www.w3.org/Graphics/SVG/1.1/DTD/svg11.dtd">
<svg xmlns="http://www.w3.org/2000/svg" version="1.1" width="155px" height="85px" style="shape-rendering:geometricPrecision; text-rendering:geometricPrecision; image-rendering:optimizeQuality; fill-rule:evenodd; clip-rule:evenodd" xmlns:xlink="http://www.w3.org/1999/xlink">
<g><path style="opacity:0.851" fill="#000000" d="M 61.5,-0.5 C 77.1667,-0.5 92.8333,-0.5 108.5,-0.5C 112.809,5.48177 117.142,11.4818 121.5,17.5C 109.208,29.2919 97.0409,41.2919 85,53.5C 80.0325,49.534 75.3658,45.2007 71,40.5C 66.6667,43.8333 62.3333,47.1667 58,50.5C 64.9115,38.7559 75.0781,30.9226 88.5,27C 78.332,27.4173 69.9986,31.584 63.5,39.5C 63.514,35.0168 61.3473,32.6835 57,32.5C 49.0165,33.3811 41.8498,36.2144 35.5,41C 34.5,41.6667 33.5,41.6667 32.5,41C 41.9423,32.4447 52.9423,26.778 65.5,24C 54.0893,25.0625 43.2559,28.2291 33,33.5C 37.7423,27.353 44.2423,23.5197 52.5,22C 69.3628,18.3248 86.0294,18.9914 102.5,24C 104.23,26.9171 105.563,26.4171 106.5,22.5C 105.687,21.1861 104.687,20.0195 103.5,19C 98.5,18.6667 93.5,18.3333 88.5,18C 86.7888,16.8668 86.2888,15.3668 87,13.5C 91.3086,15.6636 95.8086,15.997 100.5,14.5C 97.7984,12.6534 94.7984,11.4867 91.5,11C 84.1667,10.3333 76.8333,10.3333 69.5,11C 71.1667,11.3333 72.8333,11.6667 74.5,12C 66.0841,14.3654 57.7508,16.6987 49.5,19C 48.8333,18.3333 48.1667,17.6667 47.5,17C 52.2952,11.2275 56.9619,5.39415 61.5,-0.5 Z"/></g>
<g><path style="opacity:0.822" fill="#e95e1f" d="M 19.5,84.5 C 16.8333,84.5 14.1667,84.5 11.5,84.5C 11.9612,82.4496 12.6279,80.4496 13.5,78.5C 8.88035,77.5067 4.21369,77.1734 -0.5,77.5C -0.5,76.5 -0.5,75.5 -0.5,74.5C 1.51915,69.6095 5.18581,66.2761 10.5,64.5C 11.1033,66.4523 10.77,68.4523 9.5,70.5C 11.7427,71.4742 14.076,71.8076 16.5,71.5C 16.711,64.6839 20.0444,62.6839 26.5,65.5C 24.3549,71.9388 22.0215,78.2721 19.5,84.5 Z"/></g>
<g><path style="opacity:0.852" fill="#000000" d="M 73.5,84.5 C 71.1667,84.5 68.8333,84.5 66.5,84.5C 65.7399,82.0155 64.7399,82.0155 63.5,84.5C 54.8333,84.5 46.1667,84.5 37.5,84.5C 38.5664,82.2986 39.233,79.9653 39.5,77.5C 33.7323,76.267 31.0656,78.6003 31.5,84.5C 28.5,84.5 25.5,84.5 22.5,84.5C 25.0215,78.2721 27.3549,71.9388 29.5,65.5C 32.0865,64.52 34.7531,64.1866 37.5,64.5C 36.8594,67.221 36.3594,69.8877 36,72.5C 38.1474,71.8875 40.314,71.2208 42.5,70.5C 43.7056,65.3255 47.039,63.3255 52.5,64.5C 50.8662,70.2179 49.3662,75.8846 48,81.5C 52.3804,75.9081 56.8804,70.4081 61.5,65C 64.5,64.3333 67.5,64.3333 70.5,65C 71.9815,71.3915 72.9815,77.8915 73.5,84.5 Z M 63.5,73.5 C 64.7384,75.2143 65.405,77.2143 65.5,79.5C 63.4727,79.6621 61.4727,79.4955 59.5,79C 60.965,77.2258 62.2983,75.3925 63.5,73.5 Z"/></g>
<g><path style="opacity:0.84" fill="#000000" d="M 154.5,64.5 C 154.5,65.1667 154.5,65.8333 154.5,66.5C 153.038,67.4577 151.705,68.6244 150.5,70C 146.833,70.3333 143.167,70.6667 139.5,71C 150.59,70.2216 153.923,74.7216 149.5,84.5C 138.5,84.5 127.5,84.5 116.5,84.5C 112.751,75.9042 110.085,75.9042 108.5,84.5C 105.833,84.5 103.167,84.5 100.5,84.5C 102.134,78.7821 103.634,73.1154 105,67.5C 101.275,73.0517 97.775,78.7184 94.5,84.5C 92.1667,84.5 89.8333,84.5 87.5,84.5C 86.6726,77.1698 84.6726,77.1698 81.5,84.5C 79.1667,84.5 76.8333,84.5 74.5,84.5C 74.5,77.8333 74.5,71.1667 74.5,64.5C 76.8333,64.5 79.1667,64.5 81.5,64.5C 81.3359,67.1873 81.5026,69.854 82,72.5C 83.6258,70.0829 85.1258,67.5829 86.5,65C 88.8098,64.5034 91.1432,64.3367 93.5,64.5C 93.9346,72.2773 95.6012,72.444 98.5,65C 104.167,64.3333 109.833,64.3333 115.5,65C 114.158,67.015 113.658,69.1817 114,71.5C 118.622,65.6604 124.455,63.6604 131.5,65.5C 127.307,68.8599 122.974,72.0266 118.5,75C 121.378,77.7087 124.044,80.542 126.5,83.5C 127.981,82.5197 129.315,81.353 130.5,80C 135.348,79.9409 140.015,79.2742 144.5,78C 140.579,77.797 136.745,77.297 133,76.5C 130.614,72.2064 131.114,68.3731 134.5,65C 141.158,64.5004 147.825,64.3337 154.5,64.5 Z"/></g>
</svg>
