<?xml version="1.0" encoding="UTF-8"?>
<!DOCTYPE svg PUBLIC "-//W3C//DTD SVG 1.1//EN" "http://www.w3.org/Graphics/SVG/1.1/DTD/svg11.dtd">
<svg xmlns="http://www.w3.org/2000/svg" version="1.1" width="883px" height="236px" style="shape-rendering:geometricPrecision; text-rendering:geometricPrecision; image-rendering:optimizeQuality; fill-rule:evenodd; clip-rule:evenodd" xmlns:xlink="http://www.w3.org/1999/xlink">
<g><path style="opacity:1" fill="#fbfbfb" d="M 482.5,11.5 C 482.833,12.5 483.5,13.1667 484.5,13.5C 488.195,15.8694 490.695,19.2027 492,23.5C 493.89,29.0095 494.723,34.6762 494.5,40.5C 494.5,49.1667 494.5,57.8333 494.5,66.5C 482.5,66.5 470.5,66.5 458.5,66.5C 458.5,59.1667 458.5,51.8333 458.5,44.5C 458.5,43.5 458.5,42.5 458.5,41.5C 458.815,37.6286 458.482,33.9619 457.5,30.5C 453.864,25.477 450.197,25.477 446.5,30.5C 445.539,32.2646 445.205,34.2646 445.5,36.5C 445.5,44.5 445.5,52.5 445.5,60.5C 444.167,78.1667 444.167,95.8333 445.5,113.5C 445.227,115.451 445.893,116.951 447.5,118C 446.124,120.54 446.79,122.54 449.5,124C 454.059,124.889 456.726,123.056 457.5,118.5C 458.494,109.014 458.827,99.3478 458.5,89.5C 470.833,89.5 483.167,89.5 495.5,89.5C 495.628,98.8662 495.128,108.2 494,117.5C 491.331,135.002 481.164,145.002 463.5,147.5C 461.585,147.216 459.919,147.549 458.5,148.5C 452.206,149.159 445.873,148.992 439.5,148C 435.755,147.698 432.422,146.531 429.5,144.5C 428.432,143.566 427.099,143.232 425.5,143.5C 423.131,142.31 421.131,140.643 419.5,138.5C 419.167,137.5 418.5,136.833 417.5,136.5C 414.836,134.516 413.169,131.849 412.5,128.5C 412.672,127.508 412.338,126.842 411.5,126.5C 411.5,126.167 411.5,125.833 411.5,125.5C 411.737,124.209 411.404,123.209 410.5,122.5C 410.5,121.833 410.5,121.167 410.5,120.5C 410.784,118.585 410.451,116.919 409.5,115.5C 409.5,114.833 409.5,114.167 409.5,113.5C 409.5,110.5 409.5,107.5 409.5,104.5C 409.5,81.5 409.5,58.5 409.5,35.5C 411.758,16.5414 422.425,5.70806 441.5,3C 452.412,1.69292 463.079,2.69292 473.5,6C 476.898,7.35706 479.898,9.19039 482.5,11.5 Z"/></g>
<g><path style="opacity:1" fill="#fafafa" d="M 96.5,145.5 C 84.5,145.5 72.5,145.5 60.5,145.5C 60.8303,125.993 60.497,106.659 59.5,87.5C 56.1667,87.5 52.8333,87.5 49.5,87.5C 49.5,107.167 49.5,126.833 49.5,146.5C 37.1667,146.5 24.8333,146.5 12.5,146.5C 12.5,99.5 12.5,52.5 12.5,5.5C 24.8333,5.5 37.1667,5.5 49.5,5.5C 49.5,22.1667 49.5,38.8333 49.5,55.5C 52.8333,55.5 56.1667,55.5 59.5,55.5C 59.5,38.8333 59.5,22.1667 59.5,5.5C 72.1667,5.5 84.8333,5.5 97.5,5.5C 97.5071,52.1697 97.1737,98.8364 96.5,145.5 Z"/></g>
<g><path style="opacity:1" fill="#fbfbfb" d="M 357.5,5.5 C 357.333,24.5029 357.5,43.5029 358,62.5C 358.791,61.255 359.291,59.9217 359.5,58.5C 361.102,52.0292 363.102,45.6958 365.5,39.5C 365.833,38.8333 366.167,38.1667 366.5,37.5C 366.595,35.2143 367.262,33.2143 368.5,31.5C 378.558,30.86 388.225,31.5267 397.5,33.5C 397.5,33.8333 397.5,34.1667 397.5,34.5C 396.662,34.8417 396.328,35.5084 396.5,36.5C 396.414,37.4959 396.748,38.3292 397.5,39C 395.648,41.5343 394.315,44.3676 393.5,47.5C 392.662,47.8417 392.328,48.5084 392.5,49.5C 391.364,54.24 390.03,58.9067 388.5,63.5C 387.662,63.8417 387.328,64.5084 387.5,65.5C 387.233,67.9653 386.566,70.2986 385.5,72.5C 384.566,73.5676 384.232,74.901 384.5,76.5C 386.247,84.5532 388.58,92.0532 391.5,99C 390.748,99.6708 390.414,100.504 390.5,101.5C 390.41,104.152 391.076,106.485 392.5,108.5C 394.123,112.978 395.456,117.644 396.5,122.5C 396.216,124.415 396.549,126.081 397.5,127.5C 399.741,133.577 401.408,139.91 402.5,146.5C 391.162,146.667 379.828,146.5 368.5,146C 367.134,143.003 366.467,139.836 366.5,136.5C 366.737,135.209 366.404,134.209 365.5,133.5C 364.659,131.621 364.325,129.621 364.5,127.5C 364.737,126.209 364.404,125.209 363.5,124.5C 363.5,123.833 363.5,123.167 363.5,122.5C 363.737,121.209 363.404,120.209 362.5,119.5C 362.5,118.833 362.5,118.167 362.5,117.5C 362.737,116.209 362.404,115.209 361.5,114.5C 360.454,111.272 359.788,107.939 359.5,104.5C 359.162,102.146 358.662,99.8127 358,97.5C 357.5,113.497 357.333,129.497 357.5,145.5C 345.833,145.5 334.167,145.5 322.5,145.5C 322.5,98.8333 322.5,52.1667 322.5,5.5C 334.167,5.5 345.833,5.5 357.5,5.5 Z"/></g>
<g><path style="opacity:0.485" fill="#7f7f7f" d="M 357.5,5.5 C 358.167,23.1667 358.833,40.8333 359.5,58.5C 359.291,59.9217 358.791,61.255 358,62.5C 357.5,43.5029 357.333,24.5029 357.5,5.5 Z"/></g>
<g><path style="opacity:1" fill="#fcfcfc" d="M 645.5,6.5 C 657.167,6.5 668.833,6.5 680.5,6.5C 680.5,53.1667 680.5,99.8333 680.5,146.5C 668.833,146.5 657.167,146.5 645.5,146.5C 645.808,144.076 645.474,141.743 644.5,139.5C 643.893,139.624 643.56,139.957 643.5,140.5C 635.327,148.316 625.66,150.816 614.5,148C 612.273,147.059 610.273,145.892 608.5,144.5C 608.167,143.5 607.5,142.833 606.5,142.5C 602.412,139.569 600.245,135.569 600,130.5C 599.333,103.167 599.333,75.8333 600,48.5C 600.698,39.7524 605.198,34.0857 613.5,31.5C 619.464,30.6932 625.464,30.3599 631.5,30.5C 635.548,31.3579 639.215,33.0245 642.5,35.5C 642.75,36.9221 643.583,37.9221 645,38.5C 645.5,27.8385 645.667,17.1719 645.5,6.5 Z M 644.5,54.5 C 644.419,77.3182 644.419,99.6515 644.5,121.5C 644.624,126.547 642.291,128.38 637.5,127C 636.177,126.184 635.511,125.017 635.5,123.5C 635.528,100.587 635.528,77.9202 635.5,55.5C 635.905,52.6624 637.571,50.9958 640.5,50.5C 642.522,51.1889 643.856,52.5222 644.5,54.5 Z"/></g>
<g><path style="opacity:1" fill="#fdfdfd" d="M 832.5,6.5 C 844.167,6.5 855.833,6.5 867.5,6.5C 867.5,32.8333 867.5,59.1667 867.5,85.5C 866.503,105.66 866.17,125.993 866.5,146.5C 855.167,146.5 843.833,146.5 832.5,146.5C 832.808,144.076 832.474,141.743 831.5,139.5C 830.893,139.624 830.56,139.957 830.5,140.5C 816.724,152.816 803.224,152.483 790,139.5C 789.209,138.255 788.709,136.922 788.5,135.5C 788.737,134.209 788.404,133.209 787.5,132.5C 787.5,131.833 787.5,131.167 787.5,130.5C 787.817,126.298 787.483,122.298 786.5,118.5C 786.5,115.167 786.5,111.833 786.5,108.5C 787.497,88.6736 787.83,68.6736 787.5,48.5C 788.284,38.5409 793.617,32.3742 803.5,30C 813.062,28.0368 821.729,29.8702 829.5,35.5C 829.75,36.9221 830.583,37.9221 832,38.5C 832.5,27.8385 832.667,17.1719 832.5,6.5 Z M 831.5,54.5 C 831.481,77.1393 831.481,99.4726 831.5,121.5C 831.624,126.547 829.291,128.38 824.5,127C 823.177,126.184 822.511,125.017 822.5,123.5C 822.523,100.46 822.523,77.793 822.5,55.5C 823.665,51.0917 825.998,49.7583 829.5,51.5C 830.425,52.3569 831.092,53.3569 831.5,54.5 Z"/></g>
<g><path style="opacity:0.004" fill="#262626" d="M 482.5,11.5 C 483.833,11.5 484.5,12.1667 484.5,13.5C 483.5,13.1667 482.833,12.5 482.5,11.5 Z"/></g>
<g><path style="opacity:0.204" fill="#404040" d="M 645.5,6.5 C 645.667,17.1719 645.5,27.8385 645,38.5C 643.583,37.9221 642.75,36.9221 642.5,35.5C 644.507,36.6785 644.84,36.1785 643.5,34C 644.13,24.1637 644.797,14.997 645.5,6.5 Z"/></g>
<g><path style="opacity:0.214" fill="#414141" d="M 832.5,6.5 C 832.667,17.1719 832.5,27.8385 832,38.5C 830.583,37.9221 829.75,36.9221 829.5,35.5C 830.895,37.0544 831.561,36.721 831.5,34.5C 831.392,33.5581 831.059,32.7247 830.5,32C 831.154,23.4015 831.82,14.9015 832.5,6.5 Z"/></g>
<g><path style="opacity:0.475" fill="#464646" d="M 541.5,28.5 C 540.081,29.4511 538.415,29.7845 536.5,29.5C 537.995,27.655 539.662,27.3217 541.5,28.5 Z"/></g>
<g><path style="opacity:1" fill="#fafafa" d="M 187.5,51.5 C 187.232,53.099 187.566,54.4324 188.5,55.5C 189.833,57.8333 189.833,60.1667 188.5,62.5C 188.5,90.1667 188.5,117.833 188.5,145.5C 177.167,145.5 165.833,145.5 154.5,145.5C 154.663,143.143 154.497,140.81 154,138.5C 149.259,145.121 142.759,148.455 134.5,148.5C 129.6,147.99 125.267,146.99 121.5,145.5C 121.027,144.094 120.027,143.427 118.5,143.5C 113.936,141.396 111.603,137.73 111.5,132.5C 111.768,130.901 111.434,129.568 110.5,128.5C 110.5,127.833 110.5,127.167 110.5,126.5C 110.5,119.167 110.5,111.833 110.5,104.5C 110.714,102.856 110.38,101.356 109.5,100C 110.896,96.6953 112.896,93.862 115.5,91.5C 117.749,90.9202 119.415,89.5869 120.5,87.5C 122.05,86.5592 123.716,85.8925 125.5,85.5C 126.492,85.6716 127.158,85.3382 127.5,84.5C 128.391,83.8902 129.391,83.5569 130.5,83.5C 132.153,83.3404 133.486,82.6737 134.5,81.5C 139.16,79.5273 144.16,77.3606 149.5,75C 152.244,73.2768 153.578,70.7768 153.5,67.5C 154.833,63.5 154.833,59.5 153.5,55.5C 152.999,51.2567 150.666,49.4234 146.5,50C 145.572,50.3879 144.905,51.0546 144.5,52C 143.547,59.7898 143.214,67.6232 143.5,75.5C 132.167,75.5 120.833,75.5 109.5,75.5C 109.36,69.4638 109.693,63.4638 110.5,57.5C 111.451,56.0813 111.784,54.4147 111.5,52.5C 111.5,52.1667 111.5,51.8333 111.5,51.5C 112.404,50.791 112.737,49.791 112.5,48.5C 112.992,46.1815 113.992,44.1815 115.5,42.5C 116.5,42.1667 117.167,41.5 117.5,40.5C 117.833,39.5 118.5,38.8333 119.5,38.5C 120.5,38.1667 121.167,37.5 121.5,36.5C 126.74,32.3592 132.74,29.8592 139.5,29C 152.356,27.195 164.69,28.8617 176.5,34C 182.862,38.1844 186.529,44.0177 187.5,51.5 Z M 152.5,92.5 C 153.248,102.14 153.582,111.806 153.5,121.5C 152.233,126.79 149.4,127.79 145,124.5C 143.63,118.258 143.13,111.925 143.5,105.5C 145.481,104.895 145.815,103.895 144.5,102.5C 146.787,98.8781 149.453,95.5448 152.5,92.5 Z"/></g>
<g><path style="opacity:1" fill="#fbfbfb" d="M 541.5,28.5 C 547.227,28.2598 552.894,28.5931 558.5,29.5C 559.209,30.404 560.209,30.7373 561.5,30.5C 577.899,34.2066 586.565,44.2066 587.5,60.5C 587.5,77.5 587.5,94.5 587.5,111.5C 587.5,113.5 587.5,115.5 587.5,117.5C 586.89,118.391 586.557,119.391 586.5,120.5C 584.164,135.338 575.497,144.171 560.5,147C 553.508,148.592 546.508,148.759 539.5,147.5C 537.735,146.539 535.735,146.205 533.5,146.5C 520.058,145.057 512.058,137.723 509.5,124.5C 509.768,122.901 509.434,121.568 508.5,120.5C 508.5,120.167 508.5,119.833 508.5,119.5C 508.5,99.8333 508.5,80.1667 508.5,60.5C 509.448,42.5532 518.782,32.2198 536.5,29.5C 538.415,29.7845 540.081,29.4511 541.5,28.5 Z M 552.5,57.5 C 552.436,77.644 552.436,98.3107 552.5,119.5C 552.064,121.746 551.397,123.913 550.5,126C 547.078,126.956 544.744,125.789 543.5,122.5C 543.559,100.689 543.559,78.3559 543.5,55.5C 544.044,49.9796 546.544,48.6462 551,51.5C 552.128,53.3453 552.628,55.3453 552.5,57.5 Z"/></g>
<g><path style="opacity:0.671" fill="#6a6a6a" d="M 561.5,30.5 C 560.209,30.7373 559.209,30.404 558.5,29.5C 558.435,29.0618 558.601,28.7284 559,28.5C 559.995,29.0659 560.828,29.7326 561.5,30.5 Z"/></g>
<g><path style="opacity:0.743" fill="#a5a5a5" d="M 631.5,30.5 C 625.464,30.3599 619.464,30.6932 613.5,31.5C 616.695,29.9704 620.195,29.3037 624,29.5C 626.69,29.5029 629.19,29.8362 631.5,30.5 Z"/></g>
<g><path style="opacity:0.726" fill="#909090" d="M 742.5,30.5 C 736.167,30.5 729.833,30.5 723.5,30.5C 724.531,29.7515 725.698,29.0848 727,28.5C 731.333,29.8333 735.667,29.8333 740,28.5C 740.995,29.0659 741.828,29.7326 742.5,30.5 Z"/></g>
<g><path style="opacity:0.751" fill="#bababa" d="M 368.5,31.5 C 378.319,30.506 388.319,30.1726 398.5,30.5C 398.737,31.791 398.404,32.791 397.5,33.5C 388.225,31.5267 378.558,30.86 368.5,31.5 Z"/></g>
<g><path style="opacity:1" fill="#f9f9f9" d="M 723.5,30.5 C 729.833,30.5 736.167,30.5 742.5,30.5C 758.767,32.5995 768.933,41.5995 773,57.5C 774.293,68.7939 774.793,80.1272 774.5,91.5C 759.5,91.5 744.5,91.5 729.5,91.5C 728.167,102.167 728.167,112.833 729.5,123.5C 730.865,127.254 733.532,128.421 737.5,127C 738.126,126.25 738.626,125.416 739,124.5C 740.339,115.893 740.839,107.226 740.5,98.5C 751.748,98.8207 762.915,98.4874 774,97.5C 774.763,104.882 774.597,112.216 773.5,119.5C 772.549,120.919 772.216,122.585 772.5,124.5C 772.5,124.833 772.5,125.167 772.5,125.5C 771.662,125.842 771.328,126.508 771.5,127.5C 767.128,137.783 759.628,144.783 749,148.5C 748.667,148.167 748.333,147.833 748,147.5C 732.948,151.098 718.781,148.931 705.5,141C 698.516,135.532 694.849,128.365 694.5,119.5C 694.5,99.5 694.5,79.5 694.5,59.5C 696.491,42.1759 706.157,32.5093 723.5,30.5 Z M 729.5,72.5 C 730.108,66.1381 730.108,60.4714 729.5,55.5C 730.404,50.3196 732.904,49.3196 737,52.5C 737.309,53.7659 737.809,54.9326 738.5,56C 738.405,61.2889 738.405,66.7889 738.5,72.5C 735.5,72.5 732.5,72.5 729.5,72.5 Z"/></g>
<g><path style="opacity:1" fill="#fbfbfb" d="M 196.5,30.5 C 206.889,29.859 216.889,30.5257 226.5,32.5C 226.205,34.7354 226.539,36.7354 227.5,38.5C 227.5,39.8333 227.5,41.1667 227.5,42.5C 227.232,44.099 227.566,45.4324 228.5,46.5C 229.793,56.4671 230.793,66.4671 231.5,76.5C 231.325,78.6208 231.659,80.6208 232.5,82.5C 233.833,83.5 233.833,84.5 232.5,85.5C 232.421,88.2706 232.921,90.9373 234,93.5C 234.495,91.5273 234.662,89.5273 234.5,87.5C 234.5,85.1667 234.5,82.8333 234.5,80.5C 235.833,80.1667 235.833,79.8333 234.5,79.5C 234.557,78.391 234.89,77.391 235.5,76.5C 236.434,75.4324 236.768,74.099 236.5,72.5C 236.395,68.4517 236.728,64.4517 237.5,60.5C 238.451,59.0813 238.784,57.4147 238.5,55.5C 238.86,47.2831 239.86,39.2831 241.5,31.5C 251.167,31.5 260.833,31.5 270.5,31.5C 270.263,32.791 270.596,33.791 271.5,34.5C 272.127,39.1408 272.46,43.8075 272.5,48.5C 272.216,50.4147 272.549,52.0813 273.5,53.5C 274.229,58.1304 274.563,62.7971 274.5,67.5C 274.198,70.0593 274.532,72.3926 275.5,74.5C 276.265,77.0961 276.599,79.7628 276.5,82.5C 276.5,83.1667 276.5,83.8333 276.5,84.5C 276.5,84.8333 276.5,85.1667 276.5,85.5C 276.351,86.552 276.517,87.552 277,88.5C 278.009,86.9751 278.509,85.3084 278.5,83.5C 278.5,82.8333 278.167,82.5 277.5,82.5C 277.833,81.8333 278.167,81.1667 278.5,80.5C 279.468,78.3926 279.802,76.0593 279.5,73.5C 279.395,69.4517 279.728,65.4517 280.5,61.5C 281.301,59.9582 281.634,58.2915 281.5,56.5C 281.5,55.5 281.5,54.5 281.5,53.5C 282.434,52.4324 282.768,51.099 282.5,49.5C 282.91,43.2056 283.91,37.0389 285.5,31C 295.494,30.5002 305.494,30.3335 315.5,30.5C 315.5,31.5 315.5,32.5 315.5,33.5C 315.5,33.8333 315.5,34.1667 315.5,34.5C 314.532,36.6074 314.198,38.9407 314.5,41.5C 314.495,45.5341 314.162,49.5341 313.5,53.5C 312.566,54.5676 312.232,55.901 312.5,57.5C 312.5,58.1667 312.5,58.8333 312.5,59.5C 311.539,61.2646 311.205,63.2646 311.5,65.5C 311.324,71.5716 310.657,77.5716 309.5,83.5C 308.532,85.6074 308.198,87.9407 308.5,90.5C 308.5,91.1667 308.5,91.8333 308.5,92.5C 307.549,93.9187 307.216,95.5853 307.5,97.5C 307.5,98.8333 307.5,100.167 307.5,101.5C 306.549,102.919 306.216,104.585 306.5,106.5C 306.495,110.534 306.162,114.534 305.5,118.5C 304.566,119.568 304.232,120.901 304.5,122.5C 304.162,129.203 303.495,135.87 302.5,142.5C 301.596,143.209 301.263,144.209 301.5,145.5C 288.833,145.5 276.167,145.5 263.5,145.5C 262.527,143.052 262.194,140.385 262.5,137.5C 262.784,135.585 262.451,133.919 261.5,132.5C 261.5,131.833 261.5,131.167 261.5,130.5C 261.795,128.265 261.461,126.265 260.5,124.5C 259.456,121.371 259.122,118.371 259.5,115.5C 259.784,113.585 259.451,111.919 258.5,110.5C 258.5,109.167 258.5,107.833 258.5,106.5C 258.795,104.265 258.461,102.265 257.5,100.5C 257.5,99.8333 257.5,99.1667 257.5,98.5C 257.657,97.1266 257.49,95.7932 257,94.5C 255.681,96.2495 255.181,98.2495 255.5,100.5C 255.5,101.5 255.5,102.5 255.5,103.5C 254.699,105.042 254.366,106.708 254.5,108.5C 254.5,109.167 254.5,109.833 254.5,110.5C 253.549,111.919 253.216,113.585 253.5,115.5C 253.5,116.167 253.5,116.833 253.5,117.5C 252.549,118.919 252.216,120.585 252.5,122.5C 252.5,122.833 252.5,123.167 252.5,123.5C 251.549,124.919 251.216,126.585 251.5,128.5C 251.5,128.833 251.5,129.167 251.5,129.5C 250.549,130.919 250.216,132.585 250.5,134.5C 250.5,135.167 250.5,135.833 250.5,136.5C 249.566,137.568 249.232,138.901 249.5,140.5C 249.5,141.167 249.5,141.833 249.5,142.5C 248.596,143.209 248.263,144.209 248.5,145.5C 235.833,145.5 223.167,145.5 210.5,145.5C 210.5,144.833 210.5,144.167 210.5,143.5C 210.768,141.901 210.434,140.568 209.5,139.5C 208.756,135.881 208.423,132.215 208.5,128.5C 208.768,126.901 208.434,125.568 207.5,124.5C 207.5,123.5 207.5,122.5 207.5,121.5C 207.784,119.585 207.451,117.919 206.5,116.5C 205.838,112.534 205.505,108.534 205.5,104.5C 205.768,102.901 205.434,101.568 204.5,100.5C 204.5,99.1667 204.5,97.8333 204.5,96.5C 204.286,94.8561 204.62,93.3561 205.5,92C 204.956,91.2828 204.289,90.7828 203.5,90.5C 202.274,84.9152 201.607,79.2485 201.5,73.5C 201.795,71.2646 201.461,69.2646 200.5,67.5C 198.676,56.2398 197.343,44.9065 196.5,33.5C 196.5,32.5 196.5,31.5 196.5,30.5 Z M 234.5,80.5 C 234.5,82.8333 234.5,85.1667 234.5,87.5C 233.833,86.8333 233.167,86.1667 232.5,85.5C 233.833,84.5 233.833,83.5 232.5,82.5C 233.167,81.8333 233.833,81.1667 234.5,80.5 Z M 255.5,100.5 C 255.833,100.5 256.167,100.5 256.5,100.5C 257.11,101.391 257.443,102.391 257.5,103.5C 256.833,103.5 256.167,103.5 255.5,103.5C 255.5,102.5 255.5,101.5 255.5,100.5 Z"/></g>
<g><path style="opacity:0.735" fill="#b6b6b6" d="M 241.5,31.5 C 251.319,30.506 261.319,30.1726 271.5,30.5C 271.5,31.8333 271.5,33.1667 271.5,34.5C 270.596,33.791 270.263,32.791 270.5,31.5C 260.833,31.5 251.167,31.5 241.5,31.5 Z"/></g>
<g><path style="opacity:0.557" fill="#5f5f5f" d="M 446.5,30.5 C 447.161,32.5564 446.828,34.5564 445.5,36.5C 445.205,34.2646 445.539,32.2646 446.5,30.5 Z"/></g>
<g><path style="opacity:0.2" fill="#343434" d="M 196.5,30.5 C 196.5,31.5 196.5,32.5 196.5,33.5C 194.443,33.0433 194.443,32.0433 196.5,30.5 Z"/></g>
<g><path style="opacity:0.02" fill="#151515" d="M 315.5,30.5 C 317.557,32.0433 317.557,33.0433 315.5,33.5C 315.5,32.5 315.5,31.5 315.5,30.5 Z"/></g>
<g><path style="opacity:0.408" fill="#4b4b4b" d="M 226.5,32.5 C 227.249,33.531 227.915,34.6976 228.5,36C 228.116,36.9506 227.783,37.7839 227.5,38.5C 226.539,36.7354 226.205,34.7354 226.5,32.5 Z"/></g>
<g><path style="opacity:0.765" fill="#757575" d="M 315.5,34.5 C 315.611,35.1174 315.944,35.6174 316.5,36C 315.891,37.9483 315.224,39.7816 314.5,41.5C 314.198,38.9407 314.532,36.6074 315.5,34.5 Z"/></g>
<g><path style="opacity:0.149" fill="#373737" d="M 397.5,34.5 C 398.439,35.3274 398.105,35.9941 396.5,36.5C 396.328,35.5084 396.662,34.8417 397.5,34.5 Z"/></g>
<g><path style="opacity:0.226" fill="#454545" d="M 457.5,30.5 C 458.482,33.9619 458.815,37.6286 458.5,41.5C 457.126,37.8948 456.793,34.2281 457.5,30.5 Z"/></g>
<g><path style="opacity:0.122" fill="#2d2d2d" d="M 121.5,36.5 C 121.167,37.5 120.5,38.1667 119.5,38.5C 119.5,37.1667 120.167,36.5 121.5,36.5 Z"/></g>
<g><path style="opacity:0.004" fill="#151515" d="M 366.5,37.5 C 366.167,38.1667 365.833,38.8333 365.5,39.5C 364.243,38.3774 364.576,37.7107 366.5,37.5 Z"/></g>
<g><path style="opacity:0.204" fill="#373737" d="M 117.5,40.5 C 117.167,41.5 116.5,42.1667 115.5,42.5C 115.5,41.1667 116.167,40.5 117.5,40.5 Z"/></g>
<g><path style="opacity:0.49" fill="#515151" d="M 227.5,42.5 C 228.249,43.531 228.915,44.6976 229.5,46C 229.272,46.3988 228.938,46.5654 228.5,46.5C 227.566,45.4324 227.232,44.099 227.5,42.5 Z"/></g>
<g><path style="opacity:0.777" fill="#b4b4b4" d="M 409.5,35.5 C 409.5,58.5 409.5,81.5 409.5,104.5C 409.167,104.5 408.833,104.5 408.5,104.5C 408.826,84.9239 408.493,65.4239 407.5,46C 408.135,42.3973 408.802,38.8973 409.5,35.5 Z"/></g>
<g><path style="opacity:0.098" fill="#303030" d="M 393.5,47.5 C 394.439,48.3274 394.105,48.9941 392.5,49.5C 392.328,48.5084 392.662,47.8417 393.5,47.5 Z"/></g>
<g><path style="opacity:0.635" fill="#575757" d="M 112.5,48.5 C 112.737,49.791 112.404,50.791 111.5,51.5C 111.062,51.5654 110.728,51.3988 110.5,51C 111.066,50.0053 111.733,49.172 112.5,48.5 Z"/></g>
<g><path style="opacity:0.478" fill="#535353" d="M 272.5,48.5 C 273.234,49.8775 273.901,51.3775 274.5,53C 274.272,53.3988 273.938,53.5654 273.5,53.5C 272.549,52.0813 272.216,50.4147 272.5,48.5 Z"/></g>
<g><path style="opacity:0.49" fill="#4b4b4b" d="M 282.5,49.5 C 282.768,51.099 282.434,52.4324 281.5,53.5C 281.062,53.5654 280.728,53.3988 280.5,53C 281.085,51.6976 281.751,50.531 282.5,49.5 Z"/></g>
<g><path style="opacity:0.51" fill="#4a4a4a" d="M 187.5,51.5 C 188.289,51.7828 188.956,52.2828 189.5,53C 189.116,53.9506 188.783,54.7839 188.5,55.5C 187.566,54.4324 187.232,53.099 187.5,51.5 Z"/></g>
<g><path style="opacity:0.373" fill="#494949" d="M 313.5,53.5 C 313.938,53.4346 314.272,53.6012 314.5,54C 313.915,55.3024 313.249,56.469 312.5,57.5C 312.232,55.901 312.566,54.5676 313.5,53.5 Z"/></g>
<g><path style="opacity:0.549" fill="#6d6d6d" d="M 111.5,52.5 C 111.784,54.4147 111.451,56.0813 110.5,57.5C 110.062,57.5654 109.728,57.3988 109.5,57C 110.099,55.3775 110.766,53.8775 111.5,52.5 Z"/></g>
<g><path style="opacity:0.774" fill="#b1b1b1" d="M 787.5,48.5 C 787.83,68.6736 787.497,88.6736 786.5,108.5C 786.774,92.4229 786.441,76.2562 785.5,60C 786.138,56.0648 786.804,52.2315 787.5,48.5 Z"/></g>
<g><path style="opacity:0.522" fill="#525252" d="M 238.5,55.5 C 238.784,57.4147 238.451,59.0813 237.5,60.5C 236.739,58.7408 237.072,57.0741 238.5,55.5 Z"/></g>
<g><path style="opacity:0.486" fill="#454545" d="M 281.5,56.5 C 281.634,58.2915 281.301,59.9582 280.5,61.5C 279.957,61.44 279.624,61.1067 279.5,60.5C 279.994,58.9745 280.661,57.6412 281.5,56.5 Z"/></g>
<g><path style="opacity:0.227" fill="#454545" d="M 831.5,54.5 C 832.833,76.8333 832.833,99.1667 831.5,121.5C 831.481,99.4726 831.481,77.1393 831.5,54.5 Z"/></g>
<g><path style="opacity:0.702" fill="#606060" d="M 312.5,59.5 C 312.783,60.2161 313.116,61.0494 313.5,62C 312.915,63.3024 312.249,64.469 311.5,65.5C 311.205,63.2646 311.539,61.2646 312.5,59.5 Z"/></g>
<g><path style="opacity:0.789" fill="#bcbcbc" d="M 552.5,57.5 C 553.833,78.1667 553.833,98.8333 552.5,119.5C 552.436,98.3107 552.436,77.644 552.5,57.5 Z"/></g>
<g><path style="opacity:0.207" fill="#444444" d="M 822.5,55.5 C 822.523,77.793 822.523,100.46 822.5,123.5C 821.167,100.833 821.167,78.1667 822.5,55.5 Z"/></g>
<g><path style="opacity:0.227" fill="#454545" d="M 635.5,55.5 C 635.528,77.9202 635.528,100.587 635.5,123.5C 634.167,100.833 634.167,78.1667 635.5,55.5 Z"/></g>
<g><path style="opacity:0.217" fill="#4a4a4a" d="M 729.5,55.5 C 730.108,60.4714 730.108,66.1381 729.5,72.5C 728.167,66.8333 728.167,61.1667 729.5,55.5 Z"/></g>
<g><path style="opacity:0.49" fill="#7d7d7d" d="M 153.5,55.5 C 154.833,59.5 154.833,63.5 153.5,67.5C 152.627,63.6045 152.627,59.6045 153.5,55.5 Z"/></g>
<g><path style="opacity:0.787" fill="#bdbdbd" d="M 445.5,60.5 C 445.525,77.8604 445.525,95.5271 445.5,113.5C 444.167,95.8333 444.167,78.1667 445.5,60.5 Z"/></g>
<g><path style="opacity:0.233" fill="#484848" d="M 543.5,55.5 C 543.559,78.3559 543.559,100.689 543.5,122.5C 542.167,100.167 542.167,77.8333 543.5,55.5 Z"/></g>
<g><path style="opacity:0.213" fill="#444444" d="M 644.5,54.5 C 645.833,76.8333 645.833,99.1667 644.5,121.5C 644.419,99.6515 644.419,77.3182 644.5,54.5 Z"/></g>
<g><path style="opacity:0.067" fill="#2a2a2a" d="M 388.5,63.5 C 389.439,64.3274 389.105,64.9941 387.5,65.5C 387.328,64.5084 387.662,63.8417 388.5,63.5 Z"/></g>
<g><path style="opacity:0.196" fill="#4a4a4a" d="M 494.5,40.5 C 495.493,49.3178 495.827,58.3178 495.5,67.5C 482.833,67.5 470.167,67.5 457.5,67.5C 457.175,59.6484 457.508,51.9818 458.5,44.5C 458.5,51.8333 458.5,59.1667 458.5,66.5C 470.5,66.5 482.5,66.5 494.5,66.5C 494.5,57.8333 494.5,49.1667 494.5,40.5 Z"/></g>
<g><path style="opacity:0.509" fill="#686868" d="M 587.5,60.5 C 588.254,63.0227 588.92,65.6894 589.5,68.5C 588.214,81.3063 588.214,93.8063 589.5,106C 588.891,107.948 588.224,109.782 587.5,111.5C 587.5,94.5 587.5,77.5 587.5,60.5 Z"/></g>
<g><path style="opacity:0.651" fill="#686868" d="M 200.5,67.5 C 201.461,69.2646 201.795,71.2646 201.5,73.5C 200.172,71.5564 199.839,69.5564 200.5,67.5 Z"/></g>
<g><path style="opacity:0.773" fill="#adadad" d="M 508.5,60.5 C 508.5,80.1667 508.5,99.8333 508.5,119.5C 507.827,101.431 507.161,83.2645 506.5,65C 507.099,63.3775 507.766,61.8775 508.5,60.5 Z"/></g>
<g><path style="opacity:0.793" fill="#aeaeae" d="M 694.5,59.5 C 694.5,79.5 694.5,99.5 694.5,119.5C 693.766,118.122 693.099,116.622 692.5,115C 693.833,98.3333 693.833,81.6667 692.5,65C 693.109,63.0517 693.776,61.2184 694.5,59.5 Z"/></g>
<g><path style="opacity:0.78" fill="#6b6b6b" d="M 274.5,67.5 C 275.267,68.172 275.934,69.0053 276.5,70C 276.287,71.634 275.954,73.134 275.5,74.5C 274.532,72.3926 274.198,70.0593 274.5,67.5 Z"/></g>
<g><path style="opacity:0.369" fill="#3a3a3a" d="M 385.5,72.5 C 386.471,73.9621 386.138,75.2954 384.5,76.5C 384.232,74.901 384.566,73.5676 385.5,72.5 Z"/></g>
<g><path style="opacity:0.502" fill="#606060" d="M 236.5,72.5 C 236.768,74.099 236.434,75.4324 235.5,76.5C 235.67,75.1779 235.337,74.0113 234.5,73C 235.094,72.5357 235.761,72.369 236.5,72.5 Z"/></g>
<g><path style="opacity:0.498" fill="#6a6a6a" d="M 279.5,73.5 C 279.802,76.0593 279.468,78.3926 278.5,80.5C 278.594,78.8585 278.26,77.0251 277.5,75C 278.044,74.2828 278.711,73.7828 279.5,73.5 Z"/></g>
<g><path style="opacity:0.005" fill="#242424" d="M 231.5,76.5 C 232.1,77.9002 233.1,78.9002 234.5,79.5C 234.5,79.8333 234.5,80.1667 234.5,80.5C 233.833,81.1667 233.167,81.8333 232.5,82.5C 231.659,80.6208 231.325,78.6208 231.5,76.5 Z"/></g>
<g><path style="opacity:0.612" fill="#555555" d="M 134.5,81.5 C 133.486,82.6737 132.153,83.3404 130.5,83.5C 131.287,81.8958 132.62,81.2291 134.5,81.5 Z"/></g>
<g><path style="opacity:0.478" fill="#3d3d3d" d="M 127.5,84.5 C 127.158,85.3382 126.492,85.6716 125.5,85.5C 126.006,83.8946 126.673,83.5613 127.5,84.5 Z"/></g>
<g><path style="opacity:0.263" fill="#2d2d2d" d="M 276.5,82.5 C 276.833,82.5 277.167,82.5 277.5,82.5C 278.167,82.5 278.5,82.8333 278.5,83.5C 278.509,85.3084 278.009,86.9751 277,88.5C 276.517,87.552 276.351,86.552 276.5,85.5C 277.833,85.1667 277.833,84.8333 276.5,84.5C 276.5,83.8333 276.5,83.1667 276.5,82.5 Z"/></g>
<g><path style="opacity:0.498" fill="#6e6e6e" d="M 309.5,83.5 C 309.611,84.1174 309.944,84.6174 310.5,85C 309.891,86.9483 309.224,88.7816 308.5,90.5C 308.198,87.9407 308.532,85.6074 309.5,83.5 Z"/></g>
<g><path style="opacity:0.798" fill="#bdbdbd" d="M 867.5,85.5 C 867.53,105.625 867.53,125.958 867.5,146.5C 867.167,146.5 866.833,146.5 866.5,146.5C 866.17,125.993 866.503,105.66 867.5,85.5 Z"/></g>
<g><path style="opacity:0.543" fill="#4f4f4f" d="M 232.5,85.5 C 233.167,86.1667 233.833,86.8333 234.5,87.5C 234.662,89.5273 234.495,91.5273 234,93.5C 232.921,90.9373 232.421,88.2706 232.5,85.5 Z"/></g>
<g><path style="opacity:0.925" fill="#7d7d7d" d="M 120.5,87.5 C 119.415,89.5869 117.749,90.9202 115.5,91.5C 116.585,89.4131 118.251,88.0798 120.5,87.5 Z"/></g>
<g><path style="opacity:1" fill="#959595" d="M 203.5,90.5 C 204.289,90.7828 204.956,91.2828 205.5,92C 204.62,93.3561 204.286,94.8561 204.5,96.5C 203.776,94.7816 203.109,92.9483 202.5,91C 202.728,90.6012 203.062,90.4346 203.5,90.5 Z"/></g>
<g><path style="opacity:0.227" fill="#444444" d="M 729.5,91.5 C 729.52,102.107 729.52,112.774 729.5,123.5C 728.167,112.833 728.167,102.167 729.5,91.5 Z"/></g>
<g><path style="opacity:0.206" fill="#474747" d="M 458.5,89.5 C 458.827,99.3478 458.494,109.014 457.5,118.5C 457.837,109.123 457.504,99.9567 456.5,91C 457.044,90.2828 457.711,89.7828 458.5,89.5 Z"/></g>
<g><path style="opacity:0.512" fill="#6d6d6d" d="M 188.5,62.5 C 189.216,64.5563 189.883,66.723 190.5,69C 189.527,94.4829 189.194,120.316 189.5,146.5C 177.655,146.828 165.988,146.495 154.5,145.5C 165.833,145.5 177.167,145.5 188.5,145.5C 188.5,117.833 188.5,90.1667 188.5,62.5 Z"/></g>
<g><path style="opacity:0.576" fill="#606060" d="M 308.5,92.5 C 309.043,92.56 309.376,92.8933 309.5,93.5C 309.006,95.0255 308.339,96.3588 307.5,97.5C 307.216,95.5853 307.549,93.9187 308.5,92.5 Z"/></g>
<g><path style="opacity:0.499" fill="#838383" d="M 152.5,92.5 C 152.56,91.9569 152.893,91.6236 153.5,91.5C 154.823,101.659 154.823,111.659 153.5,121.5C 153.582,111.806 153.248,102.14 152.5,92.5 Z"/></g>
<g><path style="opacity:0.545" fill="#676767" d="M 257.5,98.5 C 256.662,98.8417 256.328,99.5084 256.5,100.5C 256.167,100.5 255.833,100.5 255.5,100.5C 255.181,98.2495 255.681,96.2495 257,94.5C 257.49,95.7932 257.657,97.1266 257.5,98.5 Z"/></g>
<g><path style="opacity:0.52" fill="#757575" d="M 256.5,100.5 C 256.833,100.5 257.167,100.5 257.5,100.5C 258.461,102.265 258.795,104.265 258.5,106.5C 258.167,106.5 257.833,106.5 257.5,106.5C 257.5,105.833 257.5,105.167 257.5,104.5C 257.5,104.167 257.5,103.833 257.5,103.5C 257.443,102.391 257.11,101.391 256.5,100.5 Z"/></g>
<g><path style="opacity:0.506" fill="#535353" d="M 307.5,101.5 C 307.938,101.435 308.272,101.601 308.5,102C 307.901,103.622 307.234,105.122 306.5,106.5C 306.216,104.585 306.549,102.919 307.5,101.5 Z"/></g>
<g><path style="opacity:0.282" fill="#414141" d="M 144.5,102.5 C 145.815,103.895 145.481,104.895 143.5,105.5C 143.263,104.209 143.596,103.209 144.5,102.5 Z"/></g>
<g><path style="opacity:0.161" fill="#444444" d="M 204.5,100.5 C 205.434,101.568 205.768,102.901 205.5,104.5C 204.751,103.469 204.085,102.302 203.5,101C 203.728,100.601 204.062,100.435 204.5,100.5 Z"/></g>
<g><path style="opacity:0.996" fill="#9c9c9c" d="M 390.5,101.5 C 391.924,103.515 392.59,105.848 392.5,108.5C 391.076,106.485 390.41,104.152 390.5,101.5 Z"/></g>
<g><path style="opacity:0.004" fill="#000000" d="M 256.5,106.5 C 256.833,106.5 257.167,106.5 257.5,106.5C 257.315,107.17 256.981,107.17 256.5,106.5 Z"/></g>
<g><path style="opacity:0.231" fill="#3a3a3a" d="M 255.5,103.5 C 256.167,103.5 256.833,103.5 257.5,103.5C 257.5,103.833 257.5,104.167 257.5,104.5C 256.662,104.842 256.328,105.508 256.5,106.5C 255.833,107.167 255.167,107.833 254.5,108.5C 254.366,106.708 254.699,105.042 255.5,103.5 Z"/></g>
<g><path style="opacity:0.212" fill="#515151" d="M 408.5,104.5 C 408.833,104.5 409.167,104.5 409.5,104.5C 409.5,107.5 409.5,110.5 409.5,113.5C 408.784,111.444 408.117,109.277 407.5,107C 407.884,106.049 408.217,105.216 408.5,104.5 Z"/></g>
<g><path style="opacity:0.492" fill="#696969" d="M 110.5,104.5 C 110.5,111.833 110.5,119.167 110.5,126.5C 109.766,125.122 109.099,123.622 108.5,122C 109.148,116.067 109.814,110.234 110.5,104.5 Z"/></g>
<g><path style="opacity:0.627" fill="#6a6a6a" d="M 254.5,110.5 C 255.872,112.477 255.538,114.144 253.5,115.5C 253.216,113.585 253.549,111.919 254.5,110.5 Z"/></g>
<g><path style="opacity:0.212" fill="#434343" d="M 258.5,110.5 C 259.451,111.919 259.784,113.585 259.5,115.5C 258.072,113.926 257.739,112.259 258.5,110.5 Z"/></g>
<g><path style="opacity:0.761" fill="#737373" d="M 361.5,114.5 C 362.404,115.209 362.737,116.209 362.5,117.5C 361.733,116.828 361.066,115.995 360.5,115C 360.728,114.601 361.062,114.435 361.5,114.5 Z"/></g>
<g><path style="opacity:0.353" fill="#3c3c3c" d="M 206.5,116.5 C 207.451,117.919 207.784,119.585 207.5,121.5C 206.072,119.926 205.739,118.259 206.5,116.5 Z"/></g>
<g><path style="opacity:0.49" fill="#606060" d="M 409.5,115.5 C 410.451,116.919 410.784,118.585 410.5,120.5C 409.733,119.828 409.066,118.995 408.5,118C 408.884,117.049 409.217,116.216 409.5,115.5 Z"/></g>
<g><path style="opacity:0.475" fill="#575757" d="M 253.5,117.5 C 253.938,117.435 254.272,117.601 254.5,118C 253.901,119.622 253.234,121.122 252.5,122.5C 252.216,120.585 252.549,118.919 253.5,117.5 Z"/></g>
<g><path style="opacity:0.42" fill="#4a4a4a" d="M 305.5,118.5 C 306.443,120.001 306.109,121.335 304.5,122.5C 304.232,120.901 304.566,119.568 305.5,118.5 Z"/></g>
<g><path style="opacity:0.671" fill="#676767" d="M 362.5,119.5 C 363.404,120.209 363.737,121.209 363.5,122.5C 362.733,121.828 362.066,120.995 361.5,120C 361.728,119.601 362.062,119.435 362.5,119.5 Z"/></g>
<g><path style="opacity:0.243" fill="#313131" d="M 587.5,117.5 C 588.715,118.779 588.382,119.779 586.5,120.5C 586.557,119.391 586.89,118.391 587.5,117.5 Z"/></g>
<g><path style="opacity:0.659" fill="#5d5d5d" d="M 773.5,119.5 C 774.048,120.688 774.381,121.855 774.5,123C 773.956,123.717 773.289,124.217 772.5,124.5C 772.216,122.585 772.549,120.919 773.5,119.5 Z"/></g>
<g><path style="opacity:0.784" fill="#8d8d8d" d="M 786.5,118.5 C 787.483,122.298 787.817,126.298 787.5,130.5C 786.799,127.437 786.132,124.27 785.5,121C 786.252,120.329 786.586,119.496 786.5,118.5 Z"/></g>
<g><path style="opacity:0.671" fill="#696969" d="M 508.5,120.5 C 509.434,121.568 509.768,122.901 509.5,124.5C 507.862,123.295 507.529,121.962 508.5,120.5 Z"/></g>
<g><path style="opacity:0.486" fill="#454545" d="M 410.5,122.5 C 411.404,123.209 411.737,124.209 411.5,125.5C 410.733,124.828 410.066,123.995 409.5,123C 409.728,122.601 410.062,122.435 410.5,122.5 Z"/></g>
<g><path style="opacity:0.545" fill="#666666" d="M 252.5,123.5 C 252.938,123.435 253.272,123.601 253.5,124C 252.901,125.622 252.234,127.122 251.5,128.5C 251.216,126.585 251.549,124.919 252.5,123.5 Z"/></g>
<g><path style="opacity:0.739" fill="#717171" d="M 260.5,124.5 C 261.461,126.265 261.795,128.265 261.5,130.5C 260.172,128.556 259.839,126.556 260.5,124.5 Z"/></g>
<g><path style="opacity:0.549" fill="#4d4d4d" d="M 363.5,124.5 C 364.404,125.209 364.737,126.209 364.5,127.5C 363.733,126.828 363.066,125.995 362.5,125C 362.728,124.601 363.062,124.435 363.5,124.5 Z"/></g>
<g><path style="opacity:0.369" fill="#3e3e3e" d="M 207.5,124.5 C 208.434,125.568 208.768,126.901 208.5,128.5C 206.891,127.335 206.557,126.001 207.5,124.5 Z"/></g>
<g><path style="opacity:0.004" fill="#1e1e1e" d="M 772.5,125.5 C 773.439,126.327 773.105,126.994 771.5,127.5C 771.328,126.508 771.662,125.842 772.5,125.5 Z"/></g>
<g><path style="opacity:0.863" fill="#696969" d="M 396.5,122.5 C 397.928,124.074 398.261,125.741 397.5,127.5C 396.549,126.081 396.216,124.415 396.5,122.5 Z"/></g>
<g><path style="opacity:0.42" fill="#393939" d="M 411.5,126.5 C 412.338,126.842 412.672,127.508 412.5,128.5C 410.895,127.994 410.561,127.327 411.5,126.5 Z"/></g>
<g><path style="opacity:0.745" fill="#727272" d="M 110.5,128.5 C 111.434,129.568 111.768,130.901 111.5,132.5C 110.751,131.469 110.085,130.302 109.5,129C 109.728,128.601 110.062,128.435 110.5,128.5 Z"/></g>
<g><path style="opacity:0.655" fill="#707070" d="M 251.5,129.5 C 252.261,131.259 251.928,132.926 250.5,134.5C 250.216,132.585 250.549,130.919 251.5,129.5 Z"/></g>
<g><path style="opacity:0.616" fill="#535353" d="M 787.5,132.5 C 788.404,133.209 788.737,134.209 788.5,135.5C 787.733,134.828 787.066,133.995 786.5,133C 786.728,132.601 787.062,132.435 787.5,132.5 Z"/></g>
<g><path style="opacity:0.62" fill="#6f6f6f" d="M 261.5,132.5 C 262.451,133.919 262.784,135.585 262.5,137.5C 261.072,135.926 260.739,134.259 261.5,132.5 Z"/></g>
<g><path style="opacity:0.612" fill="#5c5c5c" d="M 365.5,133.5 C 366.404,134.209 366.737,135.209 366.5,136.5C 365.733,135.828 365.066,134.995 364.5,134C 364.728,133.601 365.062,133.435 365.5,133.5 Z"/></g>
<g><path style="opacity:0.004" fill="#303030" d="M 417.5,136.5 C 418.5,136.833 419.167,137.5 419.5,138.5C 418.167,138.5 417.5,137.833 417.5,136.5 Z"/></g>
<g><path style="opacity:0.192" fill="#4b4b4b" d="M 250.5,136.5 C 250.539,137.583 250.873,138.583 251.5,139.5C 251.043,140.298 250.376,140.631 249.5,140.5C 249.232,138.901 249.566,137.568 250.5,136.5 Z"/></g>
<g><path style="opacity:0.188" fill="#434343" d="M 209.5,139.5 C 210.434,140.568 210.768,141.901 210.5,143.5C 208.38,142.597 208.046,141.263 209.5,139.5 Z"/></g>
<g><path style="opacity:0.929" fill="#696969" d="M 425.5,143.5 C 427.099,143.232 428.432,143.566 429.5,144.5C 427.999,145.443 426.665,145.109 425.5,143.5 Z"/></g>
<g><path style="opacity:0.004" fill="#2c2c2c" d="M 606.5,142.5 C 607.5,142.833 608.167,143.5 608.5,144.5C 607.167,144.5 606.5,143.833 606.5,142.5 Z"/></g>
<g><path style="opacity:0.043" fill="#282828" d="M 118.5,143.5 C 120.027,143.427 121.027,144.094 121.5,145.5C 119.973,145.573 118.973,144.906 118.5,143.5 Z"/></g>
<g><path style="opacity:0.205" fill="#575757" d="M 59.5,87.5 C 60.497,106.659 60.8303,125.993 60.5,145.5C 72.5,145.5 84.5,145.5 96.5,145.5C 90.5093,146.166 84.3426,146.5 78,146.5C 71.3365,146.65 64.8365,146.15 58.5,145C 59.4928,125.91 59.8261,106.743 59.5,87.5 Z"/></g>
<g><path style="opacity:0.201" fill="#444444" d="M 249.5,142.5 C 249.5,143.833 249.5,145.167 249.5,146.5C 236.323,146.829 223.323,146.495 210.5,145.5C 223.167,145.5 235.833,145.5 248.5,145.5C 248.263,144.209 248.596,143.209 249.5,142.5 Z"/></g>
<g><path style="opacity:0.208" fill="#3f3f3f" d="M 302.5,142.5 C 302.5,143.833 302.5,145.167 302.5,146.5C 289.323,146.829 276.323,146.495 263.5,145.5C 276.167,145.5 288.833,145.5 301.5,145.5C 301.263,144.209 301.596,143.209 302.5,142.5 Z"/></g>
<g><path style="opacity:0.205" fill="#3f3f3f" d="M 359.5,104.5 C 358.504,118.323 358.171,132.323 358.5,146.5C 346.322,146.828 334.322,146.495 322.5,145.5C 334.167,145.5 345.833,145.5 357.5,145.5C 357.333,129.497 357.5,113.497 358,97.5C 358.662,99.8127 359.162,102.146 359.5,104.5 Z"/></g>
<g><path style="opacity:0.533" fill="#757575" d="M 533.5,146.5 C 535.735,146.205 537.735,146.539 539.5,147.5C 537.444,148.161 535.444,147.828 533.5,146.5 Z"/></g>
<g><path style="opacity:0.146" fill="#434343" d="M 643.5,140.5 C 643.56,139.957 643.893,139.624 644.5,139.5C 645.474,141.743 645.808,144.076 645.5,146.5C 657.167,146.5 668.833,146.5 680.5,146.5C 668.678,147.495 656.678,147.828 644.5,147.5C 644.802,144.941 644.468,142.607 643.5,140.5 Z"/></g>
<g><path style="opacity:0.176" fill="#484848" d="M 830.5,140.5 C 830.56,139.957 830.893,139.624 831.5,139.5C 832.474,141.743 832.808,144.076 832.5,146.5C 843.833,146.5 855.167,146.5 866.5,146.5C 866.833,146.5 867.167,146.5 867.5,146.5C 855.678,147.495 843.678,147.828 831.5,147.5C 831.802,144.941 831.468,142.607 830.5,140.5 Z"/></g>
<g><path style="opacity:0.392" fill="#747474" d="M 458.5,148.5 C 459.919,147.549 461.585,147.216 463.5,147.5C 461.926,148.928 460.259,149.261 458.5,148.5 Z"/></g>
<g><path style="opacity:0.225" fill="#3f3f3f" d="M 548.5,162.5 C 550.035,161.212 551.701,161.212 553.5,162.5C 553.376,163.107 553.043,163.44 552.5,163.5C 551.432,162.566 550.099,162.232 548.5,162.5 Z"/></g>
<g><path style="opacity:0.997" fill="#c7c7c7" d="M 548.5,162.5 C 550.099,162.232 551.432,162.566 552.5,163.5C 550.927,166.029 548.927,168.029 546.5,169.5C 545.263,169.444 544.263,168.944 543.5,168C 545.291,166.229 546.957,164.396 548.5,162.5 Z"/></g>
<g><path style="opacity:0.004" fill="#000000" d="M 551.5,169.5 C 552.833,170.167 552.833,170.167 551.5,169.5 Z"/></g>
<g><path style="opacity:0.004" fill="#000000" d="M 547.5,170.5 C 548.833,171.167 548.833,171.167 547.5,170.5 Z"/></g>
<g><path style="opacity:0.006" fill="#000000" d="M 120.5,171.5 C 121.525,171.897 121.692,172.563 121,173.5C 120.536,172.906 120.369,172.239 120.5,171.5 Z"/></g>
<g><path style="opacity:0.998" fill="#fbfbfb" d="M 31.5,172.5 C 31.5,173.167 31.5,173.833 31.5,174.5C 26.5,174.5 21.5,174.5 16.5,174.5C 16.5,178.833 16.5,183.167 16.5,187.5C 20.8333,187.5 25.1667,187.5 29.5,187.5C 30.404,188.209 30.7373,189.209 30.5,190.5C 26.1667,190.5 21.8333,190.5 17.5,190.5C 16.5151,194.634 16.1818,198.968 16.5,203.5C 21.1667,203.5 25.8333,203.5 30.5,203.5C 30.5,204.5 30.5,205.5 30.5,206.5C 24.8333,206.5 19.1667,206.5 13.5,206.5C 13.5,195.167 13.5,183.833 13.5,172.5C 19.5,172.5 25.5,172.5 31.5,172.5 Z"/></g>
<g><path style="opacity:0.995" fill="#d2d2d2" d="M 36.5,172.5 C 38.288,172.215 39.9547,172.548 41.5,173.5C 43.8333,177.5 46.1667,181.5 48.5,185.5C 50.8333,181.5 53.1667,177.5 55.5,173.5C 57.1667,172.167 58.8333,172.167 60.5,173.5C 57.6996,178.796 54.6996,183.963 51.5,189C 54.5797,195.161 57.913,201.161 61.5,207C 59.4213,207.808 57.4213,207.641 55.5,206.5C 53.421,202.007 51.0877,197.674 48.5,193.5C 45.9123,197.674 43.579,202.007 41.5,206.5C 39.5787,207.641 37.5787,207.808 35.5,207C 39.087,201.161 42.4203,195.161 45.5,189C 42.0942,183.686 39.0942,178.186 36.5,172.5 Z"/></g>
<g><path style="opacity:0.694" fill="#b9b9b9" d="M 165.5,173.5 C 159.5,173.5 153.5,173.5 147.5,173.5C 147.5,184.833 147.5,196.167 147.5,207.5C 146.505,196.012 146.172,184.345 146.5,172.5C 153.022,172.177 159.355,172.51 165.5,173.5 Z"/></g>
<g><path style="opacity:0.703" fill="#b9b9b9" d="M 309.5,173.5 C 303.5,173.5 297.5,173.5 291.5,173.5C 291.5,184.833 291.5,196.167 291.5,207.5C 290.505,196.012 290.172,184.345 290.5,172.5C 297.022,172.177 303.355,172.51 309.5,173.5 Z"/></g>
<g><path style="opacity:0.996" fill="#d1d1d1" d="M 433.5,172.5 C 435.167,172.5 436.833,172.5 438.5,172.5C 440.839,182.19 443.339,191.857 446,201.5C 448.975,192.268 451.642,182.934 454,173.5C 455.726,172.424 457.559,172.257 459.5,173C 455.936,184.423 452.602,195.923 449.5,207.5C 447.208,207.756 445.041,207.423 443,206.5C 439.522,195.235 436.355,183.902 433.5,172.5 Z"/></g>
<g><path style="opacity:0.722" fill="#a8a8a8" d="M 553.5,173.5 C 548.833,173.5 544.167,173.5 539.5,173.5C 541.218,172.776 543.052,172.109 545,171.5C 547.939,172.128 550.772,172.795 553.5,173.5 Z"/></g>
<g><path style="opacity:0.717" fill="#b9b9b9" d="M 31.5,172.5 C 25.5,172.5 19.5,172.5 13.5,172.5C 13.5,183.833 13.5,195.167 13.5,206.5C 12.7611,206.631 12.0944,206.464 11.5,206C 12.4878,194.581 12.8211,183.081 12.5,171.5C 19.0221,171.177 25.3554,171.51 31.5,172.5 Z"/></g>
<g><path style="opacity:0.004" fill="#000000" d="M 33.5,173.5 C 34.8333,174.167 34.8333,174.167 33.5,173.5 Z"/></g>
<g><path style="opacity:0.997" fill="#d4d4d4" d="M 88.5,177.5 C 88.5,179.5 88.5,181.5 88.5,183.5C 87.5,183.5 86.5,183.5 85.5,183.5C 85.7373,182.209 85.404,181.209 84.5,180.5C 84.4894,178.983 83.8228,177.816 82.5,177C 71.4048,174.433 67.4048,178.767 70.5,190C 67.4048,201.233 71.4048,205.567 82.5,203C 84.229,201.211 84.8957,199.044 84.5,196.5C 85.8333,196.5 87.1667,196.5 88.5,196.5C 88.5,198.5 88.5,200.5 88.5,202.5C 88.1412,204.371 87.1412,205.871 85.5,207C 70.1103,211.766 63.4437,206.266 65.5,190.5C 62.7095,174.791 69.0429,168.958 84.5,173C 86.751,173.748 88.0844,175.248 88.5,177.5 Z"/></g>
<g><path style="opacity:0.999" fill="#f1f1f1" d="M 115.5,173.5 C 115.5,174.5 115.5,175.5 115.5,176.5C 110.833,176.5 106.167,176.5 101.5,176.5C 100.517,180.298 100.183,184.298 100.5,188.5C 104.833,188.5 109.167,188.5 113.5,188.5C 114.404,189.209 114.737,190.209 114.5,191.5C 110.167,191.5 105.833,191.5 101.5,191.5C 100.515,195.634 100.182,199.968 100.5,204.5C 105.5,204.5 110.5,204.5 115.5,204.5C 115.5,205.5 115.5,206.5 115.5,207.5C 109.5,207.5 103.5,207.5 97.5,207.5C 97.5,196.167 97.5,184.833 97.5,173.5C 103.5,173.5 109.5,173.5 115.5,173.5 Z"/></g>
<g><path style="opacity:0.999" fill="#fefefe" d="M 126.5,173.5 C 126.5,183.833 126.5,194.167 126.5,204.5C 131.5,204.5 136.5,204.5 141.5,204.5C 141.5,205.5 141.5,206.5 141.5,207.5C 135.5,207.5 129.5,207.5 123.5,207.5C 123.5,196.167 123.5,184.833 123.5,173.5C 124.5,173.5 125.5,173.5 126.5,173.5 Z"/></g>
<g><path style="opacity:0.997" fill="#ebebeb" d="M 193.5,172.5 C 194.5,172.5 195.5,172.5 196.5,172.5C 196.5,184.167 196.5,195.833 196.5,207.5C 194.856,207.714 193.356,207.38 192,206.5C 187.809,198.779 183.642,191.113 179.5,183.5C 179.217,182.711 178.717,182.044 178,181.5C 177.5,190.16 177.334,198.827 177.5,207.5C 176.5,207.5 175.5,207.5 174.5,207.5C 174.5,196.167 174.5,184.833 174.5,173.5C 175.959,173.433 177.292,173.766 178.5,174.5C 183.589,181.672 187.923,189.339 191.5,197.5C 191.369,198.376 191.702,199.043 192.5,199.5C 193.498,190.525 193.832,181.525 193.5,172.5 Z"/></g>
<g><path style="opacity:0.998" fill="#dedede" d="M 226.5,177.5 C 226.5,179.5 226.5,181.5 226.5,183.5C 225.5,183.5 224.5,183.5 223.5,183.5C 223.737,182.209 223.404,181.209 222.5,180.5C 222.489,178.983 221.823,177.816 220.5,177C 217.167,176.333 213.833,176.333 210.5,177C 210,177.5 209.5,178 209,178.5C 208.333,186.167 208.333,193.833 209,201.5C 210.822,203.045 212.989,203.712 215.5,203.5C 217.167,203.333 218.833,203.167 220.5,203C 221.056,202.617 221.389,202.117 221.5,201.5C 222.451,200.081 222.784,198.415 222.5,196.5C 223.833,196.5 225.167,196.5 226.5,196.5C 226.5,198.167 226.5,199.833 226.5,201.5C 226.607,203.903 225.607,205.736 223.5,207C 218.167,207.667 212.833,207.667 207.5,207C 205.393,205.736 204.393,203.903 204.5,201.5C 204.5,194.167 204.5,186.833 204.5,179.5C 203.974,176.192 205.307,174.026 208.5,173C 213.167,172.333 217.833,172.333 222.5,173C 224.751,173.748 226.084,175.248 226.5,177.5 Z"/></g>
<g><path style="opacity:0.999" fill="#e0e0e0" d="M 238.5,172.5 C 238.5,184.167 238.5,195.833 238.5,207.5C 237.167,207.5 235.833,207.5 234.5,207.5C 234.5,195.833 234.5,184.167 234.5,172.5C 235.833,172.5 237.167,172.5 238.5,172.5 Z"/></g>
<g><path style="opacity:0.997" fill="#d1d1d1" d="M 254.5,172.5 C 257.394,172.042 259.894,172.709 262,174.5C 265.326,185.474 268.493,196.474 271.5,207.5C 269.833,207.5 268.167,207.5 266.5,207.5C 266.918,201.318 264.085,198.651 258,199.5C 255.833,199.833 253.667,200.167 251.5,200.5C 250.833,202.5 250.167,204.5 249.5,206.5C 247.833,207.833 246.167,207.833 244.5,206.5C 248.448,195.325 251.781,183.992 254.5,172.5 Z M 257.5,178.5 C 259.789,183.604 261.789,188.938 263.5,194.5C 260.232,195.487 256.898,195.82 253.5,195.5C 254.831,189.839 256.164,184.173 257.5,178.5 Z"/></g>
<g><path style="opacity:0.998" fill="#cdcdcd" d="M 330.5,172.5 C 332.167,172.5 333.833,172.5 335.5,172.5C 335.5,184.167 335.5,195.833 335.5,207.5C 333.833,207.5 332.167,207.5 330.5,207.5C 330.5,195.833 330.5,184.167 330.5,172.5 Z"/></g>
<g><path style="opacity:0.998" fill="#dddddd" d="M 363.5,172.5 C 364.833,172.5 366.167,172.5 367.5,172.5C 367.5,184.167 367.5,195.833 367.5,207.5C 365.533,207.739 363.699,207.406 362,206.5C 357.809,198.779 353.642,191.113 349.5,183.5C 349.217,182.711 348.717,182.044 348,181.5C 347.5,190.16 347.334,198.827 347.5,207.5C 346.5,207.5 345.5,207.5 344.5,207.5C 344.5,196.167 344.5,184.833 344.5,173.5C 345.959,173.433 347.292,173.766 348.5,174.5C 353.226,181.905 357.559,189.572 361.5,197.5C 361.369,198.376 361.702,199.043 362.5,199.5C 363.498,190.525 363.832,181.525 363.5,172.5 Z"/></g>
<g><path style="opacity:0.998" fill="#ebebeb" d="M 394.5,172.5 C 395.5,172.5 396.5,172.5 397.5,172.5C 397.5,184.167 397.5,195.833 397.5,207.5C 395.856,207.714 394.356,207.38 393,206.5C 388.576,198.926 384.409,191.259 380.5,183.5C 380.217,182.711 379.717,182.044 379,181.5C 378.5,190.16 378.334,198.827 378.5,207.5C 377.5,207.5 376.5,207.5 375.5,207.5C 375.5,196.167 375.5,184.833 375.5,173.5C 376.959,173.433 378.292,173.766 379.5,174.5C 382.335,178.164 384.668,182.164 386.5,186.5C 386.427,188.027 387.094,189.027 388.5,189.5C 390.358,191.883 391.692,194.55 392.5,197.5C 392.783,198.289 393.283,198.956 394,199.5C 394.5,190.506 394.666,181.506 394.5,172.5 Z"/></g>
<g><path style="opacity:0.998" fill="#dfdfdf" d="M 428.5,178.5 C 428.5,186.167 428.5,193.833 428.5,201.5C 428.607,203.903 427.607,205.736 425.5,207C 420.167,207.667 414.833,207.667 409.5,207C 407.393,205.736 406.393,203.903 406.5,201.5C 406.5,194.167 406.5,186.833 406.5,179.5C 406.178,177.278 406.845,175.444 408.5,174C 414.5,172 420.5,172 426.5,174C 428.037,175.11 428.703,176.61 428.5,178.5 Z M 412.5,176.5 C 415.684,176.833 419.018,177 422.5,177C 423,177.5 423.5,178 424,178.5C 424.667,186.167 424.667,193.833 424,201.5C 423.5,202 423,202.5 422.5,203C 419.167,203.667 415.833,203.667 412.5,203C 412,202.5 411.5,202 411,201.5C 410.333,193.833 410.333,186.167 411,178.5C 411.717,177.956 412.217,177.289 412.5,176.5 Z"/></g>
<g><path style="opacity:0.997" fill="#d1d1d1" d="M 471.5,172.5 C 474.394,172.042 476.894,172.709 479,174.5C 482.326,185.474 485.493,196.474 488.5,207.5C 486.833,207.5 485.167,207.5 483.5,207.5C 483.918,201.318 481.085,198.651 475,199.5C 472.833,199.833 470.667,200.167 468.5,200.5C 467.833,202.5 467.167,204.5 466.5,206.5C 464.833,207.833 463.167,207.833 461.5,206.5C 465.448,195.325 468.781,183.992 471.5,172.5 Z M 474.5,178.5 C 476.789,183.604 478.789,188.938 480.5,194.5C 477.232,195.487 473.898,195.82 470.5,195.5C 471.831,189.839 473.164,184.173 474.5,178.5 Z"/></g>
<g><path style="opacity:0.997" fill="#dfdfdf" d="M 515.5,177.5 C 515.5,179.5 515.5,181.5 515.5,183.5C 514.5,183.5 513.5,183.5 512.5,183.5C 512.768,181.901 512.434,180.568 511.5,179.5C 511.047,178.542 510.381,177.708 509.5,177C 498.405,174.433 494.405,178.767 497.5,190C 494.405,201.233 498.405,205.567 509.5,203C 511.229,201.211 511.896,199.044 511.5,196.5C 512.833,196.5 514.167,196.5 515.5,196.5C 515.5,198.5 515.5,200.5 515.5,202.5C 515.141,204.371 514.141,205.871 512.5,207C 507.167,207.667 501.833,207.667 496.5,207C 494.393,205.736 493.393,203.903 493.5,201.5C 493.5,194.167 493.5,186.833 493.5,179.5C 492.974,176.192 494.307,174.026 497.5,173C 502.167,172.333 506.833,172.333 511.5,173C 513.751,173.748 515.084,175.248 515.5,177.5 Z"/></g>
<g><path style="opacity:0.999" fill="#cecece" d="M 522.5,172.5 C 524.167,172.5 525.833,172.5 527.5,172.5C 527.5,184.167 527.5,195.833 527.5,207.5C 525.833,207.5 524.167,207.5 522.5,207.5C 522.5,195.833 522.5,184.167 522.5,172.5 Z"/></g>
<g><path style="opacity:0.998" fill="#d8d8d8" d="M 539.5,173.5 C 544.167,173.5 548.833,173.5 553.5,173.5C 556.297,173.967 557.631,175.633 557.5,178.5C 557.5,186.167 557.5,193.833 557.5,201.5C 557.607,203.903 556.607,205.736 554.5,207C 549.167,207.667 543.833,207.667 538.5,207C 537.667,206.167 536.833,205.333 536,204.5C 534,194.833 534,185.167 536,175.5C 536.816,174.177 537.983,173.511 539.5,173.5 Z M 541.5,176.5 C 544.85,176.335 548.183,176.502 551.5,177C 552,177.5 552.5,178 553,178.5C 553.667,186.167 553.667,193.833 553,201.5C 552.5,202 552,202.5 551.5,203C 548.167,203.667 544.833,203.667 541.5,203C 541,202.5 540.5,202 540,201.5C 539.333,193.833 539.333,186.167 540,178.5C 540.717,177.956 541.217,177.289 541.5,176.5 Z"/></g>
<g><path style="opacity:0.998" fill="#eaeaea" d="M 585.5,172.5 C 586.5,172.5 587.5,172.5 588.5,172.5C 588.5,184.167 588.5,195.833 588.5,207.5C 586.856,207.714 585.356,207.38 584,206.5C 579.576,198.926 575.409,191.259 571.5,183.5C 571.217,182.711 570.717,182.044 570,181.5C 569.5,190.16 569.334,198.827 569.5,207.5C 568.5,207.5 567.5,207.5 566.5,207.5C 566.5,196.167 566.5,184.833 566.5,173.5C 567.959,173.433 569.292,173.766 570.5,174.5C 575.589,181.672 579.923,189.339 583.5,197.5C 583.369,198.376 583.702,199.043 584.5,199.5C 585.498,190.525 585.832,181.525 585.5,172.5 Z"/></g>
<g><path style="opacity:0.711" fill="#b9b9b9" d="M 126.5,172.5 C 126.5,172.833 126.5,173.167 126.5,173.5C 125.5,173.5 124.5,173.5 123.5,173.5C 123.5,184.833 123.5,196.167 123.5,207.5C 122.505,196.012 122.172,184.345 122.5,172.5C 123.833,172.5 125.167,172.5 126.5,172.5 Z"/></g>
<g><path style="opacity:0.705" fill="#b6b6b6" d="M 178.5,174.5 C 177.292,173.766 175.959,173.433 174.5,173.5C 174.5,184.833 174.5,196.167 174.5,207.5C 173.505,196.012 173.172,184.345 173.5,172.5C 175.781,172.077 177.448,172.744 178.5,174.5 Z"/></g>
<g><path style="opacity:0.704" fill="#b6b6b6" d="M 379.5,174.5 C 378.292,173.766 376.959,173.433 375.5,173.5C 375.5,184.833 375.5,196.167 375.5,207.5C 374.505,196.012 374.172,184.345 374.5,172.5C 376.781,172.077 378.448,172.744 379.5,174.5 Z"/></g>
<g><path style="opacity:0.692" fill="#b6b6b6" d="M 570.5,174.5 C 569.292,173.766 567.959,173.433 566.5,173.5C 566.5,184.833 566.5,196.167 566.5,207.5C 565.505,196.012 565.172,184.345 565.5,172.5C 567.781,172.077 569.448,172.744 570.5,174.5 Z"/></g>
<g><path style="opacity:0.998" fill="#f2f2f2" d="M 165.5,173.5 C 165.5,174.5 165.5,175.5 165.5,176.5C 160.833,176.5 156.167,176.5 151.5,176.5C 150.517,180.298 150.183,184.298 150.5,188.5C 154.833,188.5 159.167,188.5 163.5,188.5C 164.404,189.209 164.737,190.209 164.5,191.5C 160.167,191.5 155.833,191.5 151.5,191.5C 150.515,195.634 150.182,199.968 150.5,204.5C 155.167,204.5 159.833,204.5 164.5,204.5C 164.5,205.5 164.5,206.5 164.5,207.5C 158.833,207.5 153.167,207.5 147.5,207.5C 147.5,196.167 147.5,184.833 147.5,173.5C 153.5,173.5 159.5,173.5 165.5,173.5 Z"/></g>
<g><path style="opacity:0.998" fill="#f2f2f2" d="M 309.5,173.5 C 309.5,174.5 309.5,175.5 309.5,176.5C 304.833,176.5 300.167,176.5 295.5,176.5C 294.517,180.298 294.183,184.298 294.5,188.5C 298.833,188.5 303.167,188.5 307.5,188.5C 308.404,189.209 308.737,190.209 308.5,191.5C 304.167,191.5 299.833,191.5 295.5,191.5C 294.515,195.634 294.182,199.968 294.5,204.5C 299.167,204.5 303.833,204.5 308.5,204.5C 308.5,205.5 308.5,206.5 308.5,207.5C 302.833,207.5 297.167,207.5 291.5,207.5C 291.5,196.167 291.5,184.833 291.5,173.5C 297.5,173.5 303.5,173.5 309.5,173.5 Z"/></g>
<g><path style="opacity:0.694" fill="#a9a9a9" d="M 193.5,172.5 C 193.832,181.525 193.498,190.525 192.5,199.5C 191.702,199.043 191.369,198.376 191.5,197.5C 192.167,189.167 192.833,180.833 193.5,172.5 Z"/></g>
<g><path style="opacity:0.724" fill="#a9a9a9" d="M 585.5,172.5 C 585.832,181.525 585.498,190.525 584.5,199.5C 583.702,199.043 583.369,198.376 583.5,197.5C 584.167,189.167 584.833,180.833 585.5,172.5 Z"/></g>
<g><path style="opacity:0.435" fill="#5c5c5c" d="M 88.5,177.5 C 89.4682,179.607 89.8016,181.941 89.5,184.5C 87.8333,184.5 86.1667,184.5 84.5,184.5C 84.5,183.167 84.5,181.833 84.5,180.5C 85.404,181.209 85.7373,182.209 85.5,183.5C 86.5,183.5 87.5,183.5 88.5,183.5C 88.5,181.5 88.5,179.5 88.5,177.5 Z"/></g>
<g><path style="opacity:0.4" fill="#5e5e5e" d="M 515.5,177.5 C 516.239,177.369 516.906,177.536 517.5,178C 516.577,180.041 516.244,182.208 516.5,184.5C 514.833,184.5 513.167,184.5 511.5,184.5C 511.5,182.833 511.5,181.167 511.5,179.5C 512.434,180.568 512.768,181.901 512.5,183.5C 513.5,183.5 514.5,183.5 515.5,183.5C 515.5,181.5 515.5,179.5 515.5,177.5 Z"/></g>
<g><path style="opacity:0.227" fill="#414141" d="M 196.5,172.5 C 197.182,179.568 197.849,186.734 198.5,194C 197.858,198.601 197.191,203.101 196.5,207.5C 196.5,195.833 196.5,184.167 196.5,172.5 Z"/></g>
<g><path style="opacity:0.427" fill="#5c5c5c" d="M 226.5,177.5 C 227.468,179.607 227.802,181.941 227.5,184.5C 225.833,184.5 224.167,184.5 222.5,184.5C 222.5,183.167 222.5,181.833 222.5,180.5C 223.404,181.209 223.737,182.209 223.5,183.5C 224.5,183.5 225.5,183.5 226.5,183.5C 226.5,181.5 226.5,179.5 226.5,177.5 Z"/></g>
<g><path style="opacity:0.694" fill="#b1b1b1" d="M 363.5,172.5 C 363.832,181.525 363.498,190.525 362.5,199.5C 361.702,199.043 361.369,198.376 361.5,197.5C 362.167,189.167 362.833,180.833 363.5,172.5 Z"/></g>
<g><path style="opacity:0.004" fill="#000000" d="M 26.5,184.5 C 27.8333,185.167 27.8333,185.167 26.5,184.5 Z"/></g>
<g><path style="opacity:0.008" fill="#000000" d="M 28.5,184.5 C 29.8333,185.167 29.8333,185.167 28.5,184.5 Z"/></g>
<g><path style="opacity:0.223" fill="#3f3f3f" d="M 204.5,179.5 C 204.5,186.833 204.5,194.167 204.5,201.5C 203.761,201.631 203.094,201.464 202.5,201C 203.833,194.667 203.833,188.333 202.5,182C 203.066,181.005 203.733,180.172 204.5,179.5 Z"/></g>
<g><path style="opacity:0.222" fill="#414141" d="M 428.5,178.5 C 429.267,179.172 429.934,180.005 430.5,181C 429.85,187.932 429.183,194.766 428.5,201.5C 428.5,193.833 428.5,186.167 428.5,178.5 Z"/></g>
<g><path style="opacity:0.702" fill="#aeaeae" d="M 394.5,172.5 C 394.666,181.506 394.5,190.506 394,199.5C 393.283,198.956 392.783,198.289 392.5,197.5C 393.167,189.167 393.833,180.833 394.5,172.5 Z"/></g>
<g><path style="opacity:0.236" fill="#414141" d="M 557.5,178.5 C 558.267,179.172 558.934,180.005 559.5,181C 558.85,187.932 558.183,194.766 557.5,201.5C 557.5,193.833 557.5,186.167 557.5,178.5 Z"/></g>
<g><path style="opacity:0.421" fill="#6a6a6a" d="M 31.5,174.5 C 27.03,175.486 22.3633,175.819 17.5,175.5C 17.5,179.167 17.5,182.833 17.5,186.5C 20.1194,186.768 22.6194,186.435 25,185.5C 26.6225,186.099 28.1225,186.766 29.5,187.5C 25.1667,187.5 20.8333,187.5 16.5,187.5C 16.5,183.167 16.5,178.833 16.5,174.5C 21.5,174.5 26.5,174.5 31.5,174.5 Z"/></g>
<g><path style="opacity:0.223" fill="#424242" d="M 406.5,179.5 C 406.5,186.833 406.5,194.167 406.5,201.5C 405.817,194.766 405.15,187.932 404.5,181C 405.044,180.283 405.711,179.783 406.5,179.5 Z"/></g>
<g><path style="opacity:0.004" fill="#000000" d="M 87.5,187.5 C 88.8333,188.167 88.8333,188.167 87.5,187.5 Z"/></g>
<g><path style="opacity:0.445" fill="#636363" d="M 101.5,176.5 C 102.057,179.943 102.057,183.609 101.5,187.5C 105.702,187.183 109.702,187.517 113.5,188.5C 109.167,188.5 104.833,188.5 100.5,188.5C 100.183,184.298 100.517,180.298 101.5,176.5 Z"/></g>
<g><path style="opacity:0.238" fill="#4e4e4e" d="M 126.5,172.5 C 127.494,182.653 127.828,192.986 127.5,203.5C 132.5,203.5 137.5,203.5 142.5,203.5C 142.768,205.099 142.434,206.432 141.5,207.5C 141.5,206.5 141.5,205.5 141.5,204.5C 136.5,204.5 131.5,204.5 126.5,204.5C 126.5,194.167 126.5,183.833 126.5,173.5C 126.5,173.167 126.5,172.833 126.5,172.5 Z"/></g>
<g><path style="opacity:0.436" fill="#686868" d="M 151.5,176.5 C 151.5,180.167 151.5,183.833 151.5,187.5C 155.702,187.183 159.702,187.517 163.5,188.5C 159.167,188.5 154.833,188.5 150.5,188.5C 150.183,184.298 150.517,180.298 151.5,176.5 Z"/></g>
<g><path style="opacity:0.419" fill="#686868" d="M 295.5,176.5 C 295.5,180.167 295.5,183.833 295.5,187.5C 299.702,187.183 303.702,187.517 307.5,188.5C 303.167,188.5 298.833,188.5 294.5,188.5C 294.183,184.298 294.517,180.298 295.5,176.5 Z"/></g>
<g><path style="opacity:0.224" fill="#454545" d="M 386.5,186.5 C 387.906,186.973 388.573,187.973 388.5,189.5C 387.094,189.027 386.427,188.027 386.5,186.5 Z"/></g>
<g><path style="opacity:0.235" fill="#414141" d="M 588.5,172.5 C 589.179,181.568 589.845,190.735 590.5,200C 589.877,202.607 589.21,205.107 588.5,207.5C 588.5,195.833 588.5,184.167 588.5,172.5 Z"/></g>
<g><path style="opacity:0.708" fill="#b9b9b9" d="M 115.5,173.5 C 109.5,173.5 103.5,173.5 97.5,173.5C 97.5,184.833 97.5,196.167 97.5,207.5C 96.5051,196.012 96.1717,184.345 96.5,172.5C 103.022,172.177 109.355,172.51 115.5,173.5 Z"/></g>
<g><path style="opacity:0.202" fill="#404040" d="M 493.5,179.5 C 493.5,186.833 493.5,194.167 493.5,201.5C 492.522,201.189 491.855,200.522 491.5,199.5C 492.132,192.703 492.799,186.037 493.5,179.5 Z"/></g>
<g><path style="opacity:0.231" fill="#3f3f3f" d="M 380.5,183.5 C 380.123,191.06 379.456,199.06 378.5,207.5C 378.334,198.827 378.5,190.16 379,181.5C 379.717,182.044 380.217,182.711 380.5,183.5 Z"/></g>
<g><path style="opacity:0.712" fill="#b9b9b9" d="M 348.5,174.5 C 347.292,173.766 345.959,173.433 344.5,173.5C 344.5,184.833 344.5,196.167 344.5,207.5C 343.505,196.012 343.172,184.345 343.5,172.5C 345.781,172.077 347.448,172.744 348.5,174.5 Z"/></g>
<g><path style="opacity:0.231" fill="#414141" d="M 349.5,183.5 C 349.06,191.341 348.393,199.341 347.5,207.5C 347.334,198.827 347.5,190.16 348,181.5C 348.717,182.044 349.217,182.711 349.5,183.5 Z"/></g>
<g><path style="opacity:0.004" fill="#000000" d="M 444.5,191.5 C 445.833,192.167 445.833,192.167 444.5,191.5 Z"/></g>
<g><path style="opacity:0.235" fill="#3f3f3f" d="M 571.5,183.5 C 570.649,189.169 570.649,195.335 571.5,202C 570.891,203.948 570.224,205.782 569.5,207.5C 569.334,198.827 569.5,190.16 570,181.5C 570.717,182.044 571.217,182.711 571.5,183.5 Z"/></g>
<g><path style="opacity:0.004" fill="#000000" d="M 159.5,192.5 C 160.833,193.167 160.833,193.167 159.5,192.5 Z"/></g>
<g><path style="opacity:0.235" fill="#424242" d="M 179.5,183.5 C 178.969,191.315 178.303,199.315 177.5,207.5C 177.334,198.827 177.5,190.16 178,181.5C 178.717,182.044 179.217,182.711 179.5,183.5 Z"/></g>
<g><path style="opacity:0.445" fill="#6e6e6e" d="M 238.5,172.5 C 239.18,180.568 239.847,188.735 240.5,197C 239.167,200.333 239.167,203.667 240.5,207C 239.906,207.464 239.239,207.631 238.5,207.5C 238.5,195.833 238.5,184.167 238.5,172.5 Z"/></g>
<g><path style="opacity:0.004" fill="#000000" d="M 518.5,197.5 C 517.833,196.167 517.833,196.167 518.5,197.5 Z"/></g>
<g><path style="opacity:0.235" fill="#3b3b3b" d="M 515.5,202.5 C 515.5,200.5 515.5,198.5 515.5,196.5C 514.167,196.5 512.833,196.5 511.5,196.5C 512.878,195.766 514.378,195.099 516,194.5C 516.236,196.764 516.736,198.931 517.5,201C 516.956,201.717 516.289,202.217 515.5,202.5 Z"/></g>
<g><path style="opacity:0.004" fill="#000000" d="M 518.5,197.5 C 519.833,198.167 519.833,198.167 518.5,197.5 Z"/></g>
<g><path style="opacity:0.235" fill="#454545" d="M 84.5,196.5 C 85.9187,195.549 87.5853,195.216 89.5,195.5C 89.8016,198.059 89.4682,200.393 88.5,202.5C 88.5,200.5 88.5,198.5 88.5,196.5C 87.1667,196.5 85.8333,196.5 84.5,196.5 Z"/></g>
<g><path style="opacity:0.004" fill="#000000" d="M 220.5,198.5 C 221.833,199.167 221.833,199.167 220.5,198.5 Z"/></g>
<g><path style="opacity:0.225" fill="#4b4b4b" d="M 222.5,196.5 C 223.919,195.549 225.585,195.216 227.5,195.5C 227.795,197.735 227.461,199.735 226.5,201.5C 226.5,199.833 226.5,198.167 226.5,196.5C 225.167,196.5 223.833,196.5 222.5,196.5 Z"/></g>
<g><path style="opacity:0.231" fill="#3f3f3f" d="M 397.5,172.5 C 398.216,174.556 398.883,176.723 399.5,179C 399.5,188 399.5,197 399.5,206C 398.956,206.717 398.289,207.217 397.5,207.5C 397.5,195.833 397.5,184.167 397.5,172.5 Z"/></g>
<g><path style="opacity:0.004" fill="#000000" d="M 592.5,199.5 C 593.833,200.167 593.833,200.167 592.5,199.5 Z"/></g>
<g><path style="opacity:0.998" fill="#d6d6d6" d="M 596.5,199.5 C 598.167,199.5 599.833,199.5 601.5,199.5C 601.5,202.167 601.5,204.833 601.5,207.5C 599.25,207.819 597.25,207.319 595.5,206C 596.423,203.959 596.756,201.792 596.5,199.5 Z"/></g>
<g><path style="opacity:0.004" fill="#000000" d="M 27.5,200.5 C 28.8333,201.167 28.8333,201.167 27.5,200.5 Z"/></g>
<g><path style="opacity:0.004" fill="#000000" d="M 221.5,201.5 C 220.833,200.167 220.833,200.167 221.5,201.5 Z"/></g>
<g><path style="opacity:0.433" fill="#6c6c6c" d="M 17.5,190.5 C 17.5,194.5 17.5,198.5 17.5,202.5C 22.1667,202.5 26.8333,202.5 31.5,202.5C 31.7678,204.099 31.4345,205.432 30.5,206.5C 30.5,205.5 30.5,204.5 30.5,203.5C 25.8333,203.5 21.1667,203.5 16.5,203.5C 16.1818,198.968 16.5151,194.634 17.5,190.5 Z"/></g>
<g><path style="opacity:0.442" fill="#656565" d="M 101.5,191.5 C 101.874,195.664 101.874,199.664 101.5,203.5C 106.363,203.181 111.03,203.514 115.5,204.5C 110.5,204.5 105.5,204.5 100.5,204.5C 100.182,199.968 100.515,195.634 101.5,191.5 Z"/></g>
<g><path style="opacity:0.439" fill="#6e6e6e" d="M 151.5,191.5 C 151.5,195.5 151.5,199.5 151.5,203.5C 156.167,203.5 160.833,203.5 165.5,203.5C 165.768,205.099 165.434,206.432 164.5,207.5C 164.5,206.5 164.5,205.5 164.5,204.5C 159.833,204.5 155.167,204.5 150.5,204.5C 150.182,199.968 150.515,195.634 151.5,191.5 Z"/></g>
<g><path style="opacity:0.424" fill="#6d6d6d" d="M 295.5,191.5 C 295.5,195.5 295.5,199.5 295.5,203.5C 300.167,203.5 304.833,203.5 309.5,203.5C 309.768,205.099 309.434,206.432 308.5,207.5C 308.5,206.5 308.5,205.5 308.5,204.5C 303.833,204.5 299.167,204.5 294.5,204.5C 294.182,199.968 294.515,195.634 295.5,191.5 Z"/></g>
</svg>
