<?xml version="1.0" encoding="UTF-8"?>
<!DOCTYPE svg PUBLIC "-//W3C//DTD SVG 1.1//EN" "http://www.w3.org/Graphics/SVG/1.1/DTD/svg11.dtd">
<svg xmlns="http://www.w3.org/2000/svg" version="1.1" width="283px" height="287px" style="shape-rendering:geometricPrecision; text-rendering:geometricPrecision; image-rendering:optimizeQuality; fill-rule:evenodd; clip-rule:evenodd" xmlns:xlink="http://www.w3.org/1999/xlink">
<g><path style="opacity:0.295" fill="#d7cbc1" d="M 31.5,20.5 C 93.9987,19.3347 156.665,19.168 219.5,20C 221.833,20.3333 224.167,20.6667 226.5,21C 227.056,21.3826 227.389,21.8826 227.5,22.5C 224.545,21.8413 221.545,21.5079 218.5,21.5C 156.336,20.5009 94.0022,20.1676 31.5,20.5 Z"/></g>
<g><path style="opacity:1" fill="#df863e" d="M 31.5,20.5 C 94.0022,20.1676 156.336,20.5009 218.5,21.5C 154.144,21.1809 89.8107,21.5142 25.5,22.5C 27.1016,20.9261 29.1016,20.2594 31.5,20.5 Z"/></g>
<g><path style="opacity:1" fill="#ed7816" d="M 218.5,21.5 C 221.545,21.5079 224.545,21.8413 227.5,22.5C 227.5,23.1667 227.833,23.5 228.5,23.5C 228.721,24.7348 229.388,25.7348 230.5,26.5C 232.833,27.1667 235.167,27.8333 237.5,28.5C 238.154,30.1151 238.654,31.7818 239,33.5C 241.148,34.9774 242.482,36.9774 243,39.5C 243.667,38.1667 244.333,38.1667 245,39.5C 245.739,41.2205 246.573,42.8872 247.5,44.5C 248.799,43.91 249.632,42.91 250,41.5C 251.615,42.3862 253.115,43.3862 254.5,44.5C 255.5,45.1667 256.5,45.8333 257.5,46.5C 257.157,48.4832 257.824,49.8166 259.5,50.5C 259.5,51.5 259.5,52.5 259.5,53.5C 259.898,56.3399 260.731,59.0066 262,61.5C 262.5,126.832 262.667,192.166 262.5,257.5C 261.222,258.749 260.222,260.249 259.5,262C 258.207,262.49 256.873,262.657 255.5,262.5C 255.64,264.124 254.973,265.29 253.5,266C 189.834,266.5 126.168,266.667 62.5,266.5C 60.5615,264.837 58.2282,264.171 55.5,264.5C 54.3646,262.787 52.698,262.12 50.5,262.5C 49.4863,261.326 48.153,260.66 46.5,260.5C 45.5084,260.672 44.8417,260.338 44.5,259.5C 43.7377,257.738 42.4044,256.738 40.5,256.5C 39.7377,254.738 38.4044,253.738 36.5,253.5C 36.1667,251.167 34.8333,249.833 32.5,249.5C 31.6837,246.893 30.0171,244.893 27.5,243.5C 25.8333,239.5 24.1667,235.5 22.5,231.5C 22.313,229.436 21.813,227.436 21,225.5C 20.3333,160.5 20.3333,95.5 21,30.5C 21.2189,31.938 21.7189,33.2713 22.5,34.5C 24.7223,32.1162 25.0556,29.4495 23.5,26.5C 24.6005,25.3951 25.2671,24.0618 25.5,22.5C 89.8107,21.5142 154.144,21.1809 218.5,21.5 Z M 189.5,50.5 C 190.338,50.8417 190.672,51.5084 190.5,52.5C 189.094,52.9731 188.427,53.9731 188.5,55.5C 187.094,55.9731 186.427,56.9731 186.5,58.5C 184.75,59.6594 183.75,61.326 183.5,63.5C 182.094,63.9731 181.427,64.9731 181.5,66.5C 179.178,67.8021 177.845,69.8021 177.5,72.5C 176.094,72.9731 175.427,73.9731 175.5,75.5C 173.738,76.2623 172.738,77.5956 172.5,79.5C 171.662,79.8417 171.328,80.5084 171.5,81.5C 170.094,81.9731 169.427,82.9731 169.5,84.5C 168.094,84.9731 167.427,85.9731 167.5,87.5C 165.75,88.6594 164.75,90.326 164.5,92.5C 162.178,93.8021 160.845,95.8021 160.5,98.5C 158.738,99.2623 157.738,100.596 157.5,102.5C 156.094,102.973 155.427,103.973 155.5,105.5C 154.662,105.842 154.328,106.508 154.5,107.5C 152.738,108.262 151.738,109.596 151.5,111.5C 150.094,111.973 149.427,112.973 149.5,114.5C 148.662,114.842 148.328,115.508 148.5,116.5C 147.094,116.973 146.427,117.973 146.5,119.5C 144.738,120.262 143.738,121.596 143.5,123.5C 142.11,124.899 141.11,126.566 140.5,128.5C 139.094,128.973 138.427,129.973 138.5,131.5C 137.094,131.973 136.427,132.973 136.5,134.5C 134.05,136.629 132.383,139.296 131.5,142.5C 129.738,143.262 128.738,144.596 128.5,146.5C 126.75,147.659 125.75,149.326 125.5,151.5C 123.178,152.802 121.845,154.802 121.5,157.5C 120.094,157.973 119.427,158.973 119.5,160.5C 117.178,161.802 115.845,163.802 115.5,166.5C 114.094,166.973 113.427,167.973 113.5,169.5C 112.094,169.973 111.427,170.973 111.5,172.5C 110.094,172.973 109.427,173.973 109.5,175.5C 108.599,176.29 107.932,177.29 107.5,178.5C 106.094,178.973 105.427,179.973 105.5,181.5C 104.094,181.973 103.427,182.973 103.5,184.5C 102.662,184.842 102.328,185.508 102.5,186.5C 100.738,187.262 99.7376,188.596 99.5,190.5C 98.6618,190.842 98.3284,191.508 98.5,192.5C 97.0937,192.973 96.427,193.973 96.5,195.5C 95.0937,195.973 94.427,196.973 94.5,198.5C 93.0937,198.973 92.427,199.973 92.5,201.5C 91.0937,201.973 90.427,202.973 90.5,204.5C 88.7376,205.262 87.7376,206.596 87.5,208.5C 86.8333,209.167 86.1667,209.833 85.5,210.5C 86.1667,207.5 86.8333,204.5 87.5,201.5C 88.6118,199.401 89.2785,197.067 89.5,194.5C 90.7384,192.786 91.405,190.786 91.5,188.5C 93.0739,186.898 93.7406,184.898 93.5,182.5C 94.7384,180.786 95.405,178.786 95.5,176.5C 97.0719,173.785 98.0719,170.785 98.5,167.5C 99.9238,165.485 100.59,163.152 100.5,160.5C 101.338,160.158 101.672,159.492 101.5,158.5C 102.738,156.786 103.405,154.786 103.5,152.5C 104.404,151.791 104.737,150.791 104.5,149.5C 105.924,147.485 106.59,145.152 106.5,142.5C 108.02,140.11 109.02,137.443 109.5,134.5C 110.612,132.401 111.279,130.067 111.5,127.5C 112.738,125.786 113.405,123.786 113.5,121.5C 114.931,120.22 115.598,118.553 115.5,116.5C 116.612,114.401 117.279,112.067 117.5,109.5C 118.738,107.786 119.405,105.786 119.5,103.5C 120.738,101.786 121.405,99.7857 121.5,97.5C 122.924,95.4855 123.59,93.1522 123.5,90.5C 124.931,89.2196 125.598,87.5529 125.5,85.5C 126.404,84.791 126.737,83.791 126.5,82.5C 127.322,80.6115 128.155,78.6115 129,76.5C 130.302,75.9152 131.469,75.2485 132.5,74.5C 134.153,74.3404 135.486,73.6737 136.5,72.5C 138.786,72.405 140.786,71.7384 142.5,70.5C 144.819,70.0075 146.819,69.0075 148.5,67.5C 150.786,67.405 152.786,66.7384 154.5,65.5C 160.661,63.0097 166.661,60.343 172.5,57.5C 175.989,56.342 179.322,55.0086 182.5,53.5C 184.954,52.7729 187.287,51.7729 189.5,50.5 Z M 201.5,53.5 C 202.404,54.209 202.737,55.209 202.5,56.5C 202.5,57.1667 202.5,57.8333 202.5,58.5C 199.904,73.3262 197.571,88.3262 195.5,103.5C 194.545,108.42 193.878,113.42 193.5,118.5C 192.068,125.091 191.068,131.757 190.5,138.5C 190.349,142.805 188.683,146.472 185.5,149.5C 183.596,149.738 182.262,150.738 181.5,152.5C 179.596,152.738 178.262,153.738 177.5,155.5C 175.596,155.738 174.262,156.738 173.5,158.5C 171.973,158.427 170.973,159.094 170.5,160.5C 168.251,161.08 166.585,162.413 165.5,164.5C 163.973,164.427 162.973,165.094 162.5,166.5C 160.251,167.08 158.585,168.413 157.5,170.5C 155.973,170.427 154.973,171.094 154.5,172.5C 151.527,174.147 148.86,176.147 146.5,178.5C 144.251,179.08 142.585,180.413 141.5,182.5C 139.596,182.738 138.262,183.738 137.5,185.5C 135.596,185.738 134.262,186.738 133.5,188.5C 131.973,188.427 130.973,189.094 130.5,190.5C 126.949,192.111 123.949,194.444 121.5,197.5C 119.973,197.427 118.973,198.094 118.5,199.5C 116.251,200.08 114.585,201.413 113.5,203.5C 111.973,203.427 110.973,204.094 110.5,205.5C 108.251,206.08 106.585,207.413 105.5,209.5C 103.973,209.427 102.973,210.094 102.5,211.5C 100.251,212.08 98.5846,213.413 97.5,215.5C 96.5084,215.328 95.8417,215.662 95.5,216.5C 92.9108,217.419 90.9108,219.086 89.5,221.5C 87.5956,221.738 86.2623,222.738 85.5,224.5C 84.8333,224.5 84.1667,224.5 83.5,224.5C 83.5,224.167 83.5,223.833 83.5,223.5C 84.9063,223.027 85.573,222.027 85.5,220.5C 86.1667,220.5 86.5,220.167 86.5,219.5C 87.8897,218.101 88.8897,216.434 89.5,214.5C 90.1667,214.5 90.5,214.167 90.5,213.5C 91.9063,213.027 92.573,212.027 92.5,210.5C 93.9063,210.027 94.573,209.027 94.5,207.5C 95.9063,207.027 96.573,206.027 96.5,204.5C 97.1667,204.5 97.5,204.167 97.5,203.5C 98.9063,203.027 99.573,202.027 99.5,200.5C 100.906,200.027 101.573,199.027 101.5,197.5C 102.906,197.027 103.573,196.027 103.5,194.5C 104.906,194.027 105.573,193.027 105.5,191.5C 106.906,191.027 107.573,190.027 107.5,188.5C 110.399,185.048 113.066,181.382 115.5,177.5C 119.575,173.024 122.908,168.024 125.5,162.5C 127.853,160.14 129.853,157.473 131.5,154.5C 132.89,153.101 133.89,151.434 134.5,149.5C 137.888,146.403 140.555,142.736 142.5,138.5C 144.25,137.341 145.25,135.674 145.5,133.5C 146.167,133.5 146.5,133.167 146.5,132.5C 147.906,132.027 148.573,131.027 148.5,129.5C 149.906,129.027 150.573,128.027 150.5,126.5C 151.906,126.027 152.573,125.027 152.5,123.5C 153.167,123.5 153.5,123.167 153.5,122.5C 154.906,122.027 155.573,121.027 155.5,119.5C 156.401,118.71 157.068,117.71 157.5,116.5C 158.906,116.027 159.573,115.027 159.5,113.5C 160.906,113.027 161.573,112.027 161.5,110.5C 162.906,110.027 163.573,109.027 163.5,107.5C 164.167,107.5 164.5,107.167 164.5,106.5C 165.906,106.027 166.573,105.027 166.5,103.5C 167.401,102.71 168.068,101.71 168.5,100.5C 169.906,100.027 170.573,99.0269 170.5,97.5C 171.906,97.0269 172.573,96.0269 172.5,94.5C 174.522,92.4687 176.189,90.1354 177.5,87.5C 178.89,86.1007 179.89,84.4341 180.5,82.5C 182.975,80.2297 184.975,77.563 186.5,74.5C 187.974,73.5637 188.974,72.2303 189.5,70.5C 190.338,70.1583 190.672,69.4916 190.5,68.5C 191.906,68.0269 192.573,67.0269 192.5,65.5C 193.5,65.1667 194.167,64.5 194.5,63.5C 195.674,62.4863 196.34,61.153 196.5,59.5C 197.167,59.5 197.5,59.1667 197.5,58.5C 198.906,58.0269 199.573,57.0269 199.5,55.5C 200.5,55.1667 201.167,54.5 201.5,53.5 Z M 186.5,157.5 C 187.404,158.209 187.737,159.209 187.5,160.5C 184.516,176.368 182.182,192.368 180.5,208.5C 179.593,210.657 178.927,212.99 178.5,215.5C 176.435,215.517 174.435,215.85 172.5,216.5C 166.906,217.232 161.573,218.565 156.5,220.5C 154.379,220.325 152.379,220.659 150.5,221.5C 143.568,222.566 136.902,224.233 130.5,226.5C 126.922,226.549 123.589,227.215 120.5,228.5C 117.572,228.565 114.905,229.232 112.5,230.5C 109.505,230.294 106.838,230.96 104.5,232.5C 100.575,232.43 96.9085,233.097 93.5,234.5C 90.8478,234.41 88.5145,235.076 86.5,236.5C 84.4352,236.517 82.4352,236.85 80.5,237.5C 85.0189,234.071 89.3522,230.404 93.5,226.5C 95.0269,226.573 96.0269,225.906 96.5,224.5C 97.1667,224.5 97.5,224.167 97.5,223.5C 99.0269,223.573 100.027,222.906 100.5,221.5C 101.167,221.5 101.5,221.167 101.5,220.5C 103.027,220.573 104.027,219.906 104.5,218.5C 106.754,217.876 108.421,216.543 109.5,214.5C 111.027,214.573 112.027,213.906 112.5,212.5C 114.754,211.876 116.421,210.543 117.5,208.5C 119.027,208.573 120.027,207.906 120.5,206.5C 122.027,206.573 123.027,205.906 123.5,204.5C 124.167,204.5 124.5,204.167 124.5,203.5C 126.404,203.262 127.738,202.262 128.5,200.5C 130.404,200.262 131.738,199.262 132.5,197.5C 135.563,195.975 138.23,193.975 140.5,191.5C 142.027,191.573 143.027,190.906 143.5,189.5C 145.754,188.876 147.421,187.543 148.5,185.5C 150.027,185.573 151.027,184.906 151.5,183.5C 156.383,180.891 160.716,177.557 164.5,173.5C 167.37,172.567 169.704,170.9 171.5,168.5C 173.027,168.573 174.027,167.906 174.5,166.5C 177.473,164.853 180.14,162.853 182.5,160.5C 184.404,160.262 185.738,159.262 186.5,157.5 Z M 85.5,210.5 C 85.5,211.167 85.5,211.833 85.5,212.5C 84.8333,212.5 84.1667,212.5 83.5,212.5C 83.5,212.167 83.5,211.833 83.5,211.5C 84.1667,211.167 84.8333,210.833 85.5,210.5 Z"/></g>
<g><path style="opacity:0.09" fill="#ebded3" d="M 227.5,22.5 C 231.165,22.5018 234.165,23.8352 236.5,26.5C 233.828,25.4986 231.162,24.4986 228.5,23.5C 227.833,23.5 227.5,23.1667 227.5,22.5 Z"/></g>
<g><path style="opacity:1" fill="#d79f70" d="M 25.5,22.5 C 25.2671,24.0618 24.6005,25.3951 23.5,26.5C 22.1667,27.5 20.8333,28.5 19.5,29.5C 20.7573,26.5726 22.7573,24.2393 25.5,22.5 Z"/></g>
<g><path style="opacity:0.2" fill="#ebdfd6" d="M 238.5,27.5 C 241.14,27.954 243.473,29.1207 245.5,31C 247.141,32.129 248.141,33.629 248.5,35.5C 245.127,32.8225 241.794,30.1558 238.5,27.5 Z"/></g>
<g><path style="opacity:1" fill="#e67c25" d="M 228.5,23.5 C 231.162,24.4986 233.828,25.4986 236.5,26.5C 237.492,26.3284 238.158,26.6618 238.5,27.5C 241.794,30.1558 245.127,32.8225 248.5,35.5C 249.5,37.1667 250.833,38.5 252.5,39.5C 252.427,41.0269 253.094,42.0269 254.5,42.5C 254.5,43.1667 254.5,43.8333 254.5,44.5C 253.115,43.3862 251.615,42.3862 250,41.5C 249.632,42.91 248.799,43.91 247.5,44.5C 246.573,42.8872 245.739,41.2205 245,39.5C 244.333,38.1667 243.667,38.1667 243,39.5C 242.482,36.9774 241.148,34.9774 239,33.5C 238.654,31.7818 238.154,30.1151 237.5,28.5C 235.167,27.8333 232.833,27.1667 230.5,26.5C 229.388,25.7348 228.721,24.7348 228.5,23.5 Z"/></g>
<g><path style="opacity:0.004" fill="#ece0d7" d="M 248.5,35.5 C 250.833,35.8333 252.167,37.1667 252.5,39.5C 250.833,38.5 249.5,37.1667 248.5,35.5 Z"/></g>
<g><path style="opacity:1" fill="#e28031" d="M 23.5,26.5 C 25.0556,29.4495 24.7223,32.1162 22.5,34.5C 21.7189,33.2713 21.2189,31.938 21,30.5C 20.3333,95.5 20.3333,160.5 21,225.5C 21.813,227.436 22.313,229.436 22.5,231.5C 21.8333,230.833 21.1667,230.167 20.5,229.5C 20.5,229.167 20.5,228.833 20.5,228.5C 19.8386,225.213 19.3386,221.88 19,218.5C 18.5,156.834 18.3333,95.1676 18.5,33.5C 18.2322,31.901 18.5655,30.5676 19.5,29.5C 20.8333,28.5 22.1667,27.5 23.5,26.5 Z"/></g>
<g><path style="opacity:0.318" fill="#e3d2c5" d="M 252.5,39.5 C 253.906,39.9731 254.573,40.9731 254.5,42.5C 253.094,42.0269 252.427,41.0269 252.5,39.5 Z"/></g>
<g><path style="opacity:0.682" fill="#e0c0a7" d="M 254.5,42.5 C 256.262,43.2623 257.262,44.5956 257.5,46.5C 256.5,45.8333 255.5,45.1667 254.5,44.5C 254.5,43.8333 254.5,43.1667 254.5,42.5 Z"/></g>
<g><path style="opacity:0.004" fill="#ebdfd8" d="M 189.5,50.5 C 193.041,49.1439 193.374,49.8105 190.5,52.5C 190.672,51.5084 190.338,50.8417 189.5,50.5 Z"/></g>
<g><path style="opacity:1" fill="#dfb18b" d="M 257.5,46.5 C 258.674,47.5137 259.34,48.847 259.5,50.5C 257.824,49.8166 257.157,48.4832 257.5,46.5 Z"/></g>
<g><path style="opacity:0.345" fill="#e2d1c4" d="M 259.5,50.5 C 260.674,51.5137 261.34,52.847 261.5,54.5C 260.833,54.1667 260.167,53.8333 259.5,53.5C 259.5,52.5 259.5,51.5 259.5,50.5 Z"/></g>
<g><path style="opacity:1" fill="#e0b08c" d="M 182.5,53.5 C 179.322,55.0086 175.989,56.342 172.5,57.5C 175.013,54.5688 178.347,53.2355 182.5,53.5 Z"/></g>
<g><path style="opacity:0.22" fill="#e0d0c3" d="M 190.5,52.5 C 190.5,53.1667 190.5,53.8333 190.5,54.5C 189.833,54.8333 189.167,55.1667 188.5,55.5C 188.427,53.9731 189.094,52.9731 190.5,52.5 Z"/></g>
<g><path style="opacity:0.212" fill="#e1d3c7" d="M 188.5,55.5 C 188.573,57.0269 187.906,58.0269 186.5,58.5C 186.427,56.9731 187.094,55.9731 188.5,55.5 Z"/></g>
<g><path style="opacity:0.957" fill="#e2ba98" d="M 261.5,54.5 C 262.738,56.2143 263.405,58.2143 263.5,60.5C 261.72,59.0101 261.054,57.0101 261.5,54.5 Z"/></g>
<g><path style="opacity:1" fill="#e67c26" d="M 202.5,64.5 C 202.5,62.5 202.5,60.5 202.5,58.5C 202.5,57.8333 202.5,57.1667 202.5,56.5C 203.833,54.5 203.833,52.5 202.5,50.5C 199.916,51.0483 198.916,52.715 199.5,55.5C 198.094,55.9731 197.427,56.9731 197.5,58.5C 197.5,59.1667 197.167,59.5 196.5,59.5C 194.896,60.287 194.229,61.6203 194.5,63.5C 194.167,64.5 193.5,65.1667 192.5,65.5C 191.833,65.8333 191.167,66.1667 190.5,66.5C 190.762,65.0222 190.429,63.6888 189.5,62.5C 186.34,63.941 183.673,65.941 181.5,68.5C 181.5,67.8333 181.5,67.1667 181.5,66.5C 182.906,66.0269 183.573,65.0269 183.5,63.5C 185.408,62.5144 186.408,60.8477 186.5,58.5C 187.906,58.0269 188.573,57.0269 188.5,55.5C 189.167,55.1667 189.833,54.8333 190.5,54.5C 191.021,57.7195 192.688,58.7195 195.5,57.5C 193.934,54.5056 194.601,53.5056 197.5,54.5C 198.452,52.9547 198.785,51.288 198.5,49.5C 200.833,49.5 203.167,49.5 205.5,49.5C 205.322,54.7945 204.322,59.7945 202.5,64.5 Z"/></g>
<g><path style="opacity:0.024" fill="#e2d2c6" d="M 199.5,55.5 C 199.573,57.0269 198.906,58.0269 197.5,58.5C 197.427,56.9731 198.094,55.9731 199.5,55.5 Z"/></g>
<g><path style="opacity:0.027" fill="#f1eeea" d="M 202.5,50.5 C 203.833,52.5 203.833,54.5 202.5,56.5C 202.737,55.209 202.404,54.209 201.5,53.5C 201.557,52.391 201.89,51.391 202.5,50.5 Z"/></g>
<g><path style="opacity:1" fill="#da8e56" d="M 202.5,50.5 C 201.89,51.391 201.557,52.391 201.5,53.5C 201.167,54.5 200.5,55.1667 199.5,55.5C 198.916,52.715 199.916,51.0483 202.5,50.5 Z"/></g>
<g><path style="opacity:0.227" fill="#e3cec0" d="M 196.5,59.5 C 196.34,61.153 195.674,62.4863 194.5,63.5C 194.229,61.6203 194.896,60.287 196.5,59.5 Z"/></g>
<g><path style="opacity:1" fill="#d7a076" d="M 186.5,58.5 C 186.408,60.8477 185.408,62.5144 183.5,63.5C 183.75,61.326 184.75,59.6594 186.5,58.5 Z"/></g>
<g><path style="opacity:0.4" fill="#d8c3b3" d="M 183.5,63.5 C 183.573,65.0269 182.906,66.0269 181.5,66.5C 181.427,64.9731 182.094,63.9731 183.5,63.5 Z"/></g>
<g><path style="opacity:0.118" fill="#e4d3c7" d="M 154.5,65.5 C 152.786,66.7384 150.786,67.405 148.5,67.5C 150.102,65.9261 152.102,65.2594 154.5,65.5 Z"/></g>
<g><path style="opacity:0.024" fill="#e5d6ca" d="M 192.5,65.5 C 192.573,67.0269 191.906,68.0269 190.5,68.5C 190.5,67.8333 190.5,67.1667 190.5,66.5C 191.167,66.1667 191.833,65.8333 192.5,65.5 Z"/></g>
<g><path style="opacity:0.141" fill="#e2d3c8" d="M 142.5,70.5 C 140.786,71.7384 138.786,72.405 136.5,72.5C 138.102,70.9261 140.102,70.2594 142.5,70.5 Z"/></g>
<g><path style="opacity:1" fill="#d89968" d="M 181.5,66.5 C 181.5,67.1667 181.5,67.8333 181.5,68.5C 180.732,69.2625 180.232,70.2625 180,71.5C 179.329,72.2524 178.496,72.5858 177.5,72.5C 177.845,69.8021 179.178,67.8021 181.5,66.5 Z"/></g>
<g><path style="opacity:1" fill="#dfaf8c" d="M 189.5,70.5 C 188.974,72.2303 187.974,73.5637 186.5,74.5C 186.5,73.1667 186.5,71.8333 186.5,70.5C 187.5,70.5 188.5,70.5 189.5,70.5 Z"/></g>
<g><path style="opacity:1" fill="#dcb699" d="M 132.5,74.5 C 131.469,75.2485 130.302,75.9152 129,76.5C 128.155,78.6115 127.322,80.6115 126.5,82.5C 126.5,81.5 126.5,80.5 126.5,79.5C 127.038,77.8828 127.371,76.2161 127.5,74.5C 129.167,74.5 130.833,74.5 132.5,74.5 Z"/></g>
<g><path style="opacity:0.337" fill="#d7c3b2" d="M 177.5,72.5 C 177.573,74.0269 176.906,75.0269 175.5,75.5C 175.427,73.9731 176.094,72.9731 177.5,72.5 Z"/></g>
<g><path style="opacity:1" fill="#ed7816" d="M 190.5,66.5 C 189.5,66.5 188.5,66.5 187.5,66.5C 187.646,68.9424 186.813,69.6091 185,68.5C 184.667,70.5 184.333,72.5 184,74.5C 183.282,73.5494 182.449,73.3828 181.5,74C 182.337,75.0113 182.67,76.1779 182.5,77.5C 181.167,77.5 179.833,77.5 178.5,77.5C 177.594,80.4359 176.928,83.4359 176.5,86.5C 174.641,86.5391 173.308,85.7058 172.5,84C 174.171,82.1575 175.171,79.9908 175.5,77.5C 175.5,76.8333 175.5,76.1667 175.5,75.5C 176.906,75.0269 177.573,74.0269 177.5,72.5C 178.496,72.5858 179.329,72.2524 180,71.5C 180.232,70.2625 180.732,69.2625 181.5,68.5C 183.673,65.941 186.34,63.941 189.5,62.5C 190.429,63.6888 190.762,65.0222 190.5,66.5 Z"/></g>
<g><path style="opacity:0.769" fill="#d7baa3" d="M 175.5,75.5 C 175.5,76.1667 175.5,76.8333 175.5,77.5C 174.5,78.1667 173.5,78.8333 172.5,79.5C 172.738,77.5956 173.738,76.2623 175.5,75.5 Z"/></g>
<g><path style="opacity:0.404" fill="#d2bbaa" d="M 171.5,81.5 C 171.573,83.0269 170.906,84.0269 169.5,84.5C 169.427,82.9731 170.094,81.9731 171.5,81.5 Z"/></g>
<g><path style="opacity:1" fill="#daaa85" d="M 180.5,82.5 C 179.89,84.4341 178.89,86.1007 177.5,87.5C 177.241,85.0107 178.241,83.344 180.5,82.5 Z"/></g>
<g><path style="opacity:1" fill="#e68943" d="M 190.5,66.5 C 190.5,67.1667 190.5,67.8333 190.5,68.5C 190.672,69.4916 190.338,70.1583 189.5,70.5C 188.5,70.5 187.5,70.5 186.5,70.5C 186.5,71.8333 186.5,73.1667 186.5,74.5C 184.975,77.563 182.975,80.2297 180.5,82.5C 178.241,83.344 177.241,85.0107 177.5,87.5C 176.189,90.1354 174.522,92.4687 172.5,94.5C 172.664,91.8127 172.497,89.146 172,86.5C 171.23,85.4019 170.397,85.4019 169.5,86.5C 169.5,85.8333 169.5,85.1667 169.5,84.5C 170.906,84.0269 171.573,83.0269 171.5,81.5C 171.328,80.5084 171.662,79.8417 172.5,79.5C 173.5,78.8333 174.5,78.1667 175.5,77.5C 175.171,79.9908 174.171,82.1575 172.5,84C 173.308,85.7058 174.641,86.5391 176.5,86.5C 176.928,83.4359 177.594,80.4359 178.5,77.5C 179.833,77.5 181.167,77.5 182.5,77.5C 182.67,76.1779 182.337,75.0113 181.5,74C 182.449,73.3828 183.282,73.5494 184,74.5C 184.333,72.5 184.667,70.5 185,68.5C 186.813,69.6091 187.646,68.9424 187.5,66.5C 188.5,66.5 189.5,66.5 190.5,66.5 Z"/></g>
<g><path style="opacity:0.365" fill="#d7bfae" d="M 169.5,84.5 C 169.5,85.1667 169.5,85.8333 169.5,86.5C 168.833,86.8333 168.167,87.1667 167.5,87.5C 167.427,85.9731 168.094,84.9731 169.5,84.5 Z"/></g>
<g><path style="opacity:0.235" fill="#dfcfc3" d="M 125.5,85.5 C 125.598,87.5529 124.931,89.2196 123.5,90.5C 123.402,88.4471 124.069,86.7804 125.5,85.5 Z"/></g>
<g><path style="opacity:1" fill="#e18239" d="M 126.5,79.5 C 126.5,80.5 126.5,81.5 126.5,82.5C 126.737,83.791 126.404,84.791 125.5,85.5C 124.069,86.7804 123.402,88.4471 123.5,90.5C 122.076,92.5145 121.41,94.8478 121.5,97.5C 119.72,98.9899 119.054,100.99 119.5,103.5C 118.833,104.167 118.167,104.833 117.5,105.5C 118.883,96.1328 121.883,87.4662 126.5,79.5 Z"/></g>
<g><path style="opacity:1" fill="#dca981" d="M 167.5,87.5 C 167.408,89.8477 166.408,91.5144 164.5,92.5C 164.75,90.326 165.75,88.6594 167.5,87.5 Z"/></g>
<g><path style="opacity:0.02" fill="#e5d8ce" d="M 123.5,90.5 C 123.59,93.1522 122.924,95.4855 121.5,97.5C 121.41,94.8478 122.076,92.5145 123.5,90.5 Z"/></g>
<g><path style="opacity:1" fill="#ea7b23" d="M 172.5,94.5 C 172.573,96.0269 171.906,97.0269 170.5,97.5C 170.167,97.5 169.833,97.5 169.5,97.5C 165.311,98.3729 163.311,101.04 163.5,105.5C 161.799,105.034 160.299,105.034 159,105.5C 158.805,104.181 158.972,102.847 159.5,101.5C 160.11,100.609 160.443,99.609 160.5,98.5C 162.369,96.9663 163.702,94.9663 164.5,92.5C 166.408,91.5144 167.408,89.8477 167.5,87.5C 168.167,87.1667 168.833,86.8333 169.5,86.5C 170.397,85.4019 171.23,85.4019 172,86.5C 172.497,89.146 172.664,91.8127 172.5,94.5 Z"/></g>
<g><path style="opacity:1" fill="#e5a475" d="M 202.5,58.5 C 202.5,60.5 202.5,62.5 202.5,64.5C 202.666,69.8437 202.499,75.1771 202,80.5C 200.191,88.4267 198.357,96.0933 196.5,103.5C 196.167,103.5 195.833,103.5 195.5,103.5C 197.571,88.3262 199.904,73.3262 202.5,58.5 Z"/></g>
<g><path style="opacity:1" fill="#da9d6f" d="M 164.5,92.5 C 163.702,94.9663 162.369,96.9663 160.5,98.5C 160.845,95.8021 162.178,93.8021 164.5,92.5 Z"/></g>
<g><path style="opacity:0.02" fill="#e4d5ca" d="M 169.5,97.5 C 169.833,97.5 170.167,97.5 170.5,97.5C 170.573,99.0269 169.906,100.027 168.5,100.5C 168.557,99.391 168.89,98.391 169.5,97.5 Z"/></g>
<g><path style="opacity:0.886" fill="#d6aa8b" d="M 121.5,97.5 C 121.405,99.7857 120.738,101.786 119.5,103.5C 119.054,100.99 119.72,98.9899 121.5,97.5 Z"/></g>
<g><path style="opacity:0.596" fill="#d6b7a1" d="M 160.5,98.5 C 160.443,99.609 160.11,100.609 159.5,101.5C 158.833,101.833 158.167,102.167 157.5,102.5C 157.738,100.596 158.738,99.2623 160.5,98.5 Z"/></g>
<g><path style="opacity:0.255" fill="#ded0c4" d="M 157.5,102.5 C 157.573,104.027 156.906,105.027 155.5,105.5C 155.427,103.973 156.094,102.973 157.5,102.5 Z"/></g>
<g><path style="opacity:0.02" fill="#e4d5c9" d="M 166.5,103.5 C 166.573,105.027 165.906,106.027 164.5,106.5C 164.427,104.973 165.094,103.973 166.5,103.5 Z"/></g>
<g><path style="opacity:0.361" fill="#dbc8b9" d="M 119.5,103.5 C 119.405,105.786 118.738,107.786 117.5,109.5C 117.5,108.167 117.5,106.833 117.5,105.5C 118.167,104.833 118.833,104.167 119.5,103.5 Z"/></g>
<g><path style="opacity:0.024" fill="#e3d4c9" d="M 163.5,107.5 C 163.573,109.027 162.906,110.027 161.5,110.5C 161.427,108.973 162.094,107.973 163.5,107.5 Z"/></g>
<g><path style="opacity:0.514" fill="#d3bba7" d="M 154.5,107.5 C 154.262,109.404 153.262,110.738 151.5,111.5C 151.738,109.596 152.738,108.262 154.5,107.5 Z"/></g>
<g><path style="opacity:1" fill="#e38842" d="M 169.5,97.5 C 168.89,98.391 168.557,99.391 168.5,100.5C 168.068,101.71 167.401,102.71 166.5,103.5C 165.094,103.973 164.427,104.973 164.5,106.5C 164.5,107.167 164.167,107.5 163.5,107.5C 162.094,107.973 161.427,108.973 161.5,110.5C 161.573,112.027 160.906,113.027 159.5,113.5C 158.094,113.973 157.427,114.973 157.5,116.5C 157.068,117.71 156.401,118.71 155.5,119.5C 155.167,119.5 154.833,119.5 154.5,119.5C 154.338,117.473 154.505,115.473 155,113.5C 155.333,113.833 155.667,114.167 156,114.5C 157.368,113.007 157.535,111.507 156.5,110C 157.938,109.781 159.271,109.281 160.5,108.5C 160.113,107.28 159.28,106.613 158,106.5C 156.862,106.989 155.695,107.322 154.5,107.5C 154.328,106.508 154.662,105.842 155.5,105.5C 156.906,105.027 157.573,104.027 157.5,102.5C 158.167,102.167 158.833,101.833 159.5,101.5C 158.972,102.847 158.805,104.181 159,105.5C 160.299,105.034 161.799,105.034 163.5,105.5C 163.311,101.04 165.311,98.3729 169.5,97.5 Z"/></g>
<g><path style="opacity:0.49" fill="#dbc7b9" d="M 117.5,109.5 C 117.279,112.067 116.612,114.401 115.5,116.5C 115.171,113.772 115.837,111.438 117.5,109.5 Z"/></g>
<g><path style="opacity:0.212" fill="#ddcec3" d="M 151.5,111.5 C 151.573,113.027 150.906,114.027 149.5,114.5C 149.427,112.973 150.094,111.973 151.5,111.5 Z"/></g>
<g><path style="opacity:0.024" fill="#e3d3c7" d="M 159.5,113.5 C 159.573,115.027 158.906,116.027 157.5,116.5C 157.427,114.973 158.094,113.973 159.5,113.5 Z"/></g>
<g><path style="opacity:1" fill="#dda87f" d="M 195.5,103.5 C 195.833,103.5 196.167,103.5 196.5,103.5C 196.556,108.731 195.889,113.731 194.5,118.5C 194.167,118.5 193.833,118.5 193.5,118.5C 193.878,113.42 194.545,108.42 195.5,103.5 Z"/></g>
<g><path style="opacity:0.935" fill="#e6b58f" d="M 263.5,60.5 C 264.309,62.2922 264.809,64.2922 265,66.5C 265.826,129.874 265.659,193.207 264.5,256.5C 264.167,256.5 263.833,256.5 263.5,256.5C 263.5,191.167 263.5,125.833 263.5,60.5 Z"/></g>
<g><path style="opacity:0.408" fill="#d3b9a5" d="M 148.5,116.5 C 148.573,118.027 147.906,119.027 146.5,119.5C 146.427,117.973 147.094,116.973 148.5,116.5 Z"/></g>
<g><path style="opacity:0.275" fill="#ded1c7" d="M 115.5,116.5 C 115.598,118.553 114.931,120.22 113.5,121.5C 113.402,119.447 114.069,117.78 115.5,116.5 Z"/></g>
<g><path style="opacity:0.027" fill="#e2d2c7" d="M 154.5,119.5 C 154.833,119.5 155.167,119.5 155.5,119.5C 155.573,121.027 154.906,122.027 153.5,122.5C 153.557,121.391 153.89,120.391 154.5,119.5 Z"/></g>
<g><path style="opacity:0.561" fill="#d5bdab" d="M 146.5,119.5 C 146.262,121.404 145.262,122.738 143.5,123.5C 143.738,121.596 144.738,120.262 146.5,119.5 Z"/></g>
<g><path style="opacity:0.094" fill="#e5d7cc" d="M 152.5,123.5 C 152.573,125.027 151.906,126.027 150.5,126.5C 150.427,124.973 151.094,123.973 152.5,123.5 Z"/></g>
<g><path style="opacity:0.694" fill="#d6b59c" d="M 143.5,123.5 C 143.727,125.933 142.727,127.599 140.5,128.5C 141.11,126.566 142.11,124.899 143.5,123.5 Z"/></g>
<g><path style="opacity:1" fill="#e5955b" d="M 113.5,121.5 C 113.405,123.786 112.738,125.786 111.5,127.5C 109.837,129.438 109.171,131.772 109.5,134.5C 109.02,137.443 108.02,140.11 106.5,142.5C 106.5,141.5 106.5,140.5 106.5,139.5C 106.858,135.491 107.358,131.491 108,127.5C 109.75,125.296 111.583,123.296 113.5,121.5 Z"/></g>
<g><path style="opacity:1" fill="#e19a66" d="M 193.5,118.5 C 193.833,118.5 194.167,118.5 194.5,118.5C 194.666,122.846 194.499,127.179 194,131.5C 193.088,136.341 191.921,141.008 190.5,145.5C 190.5,143.167 190.5,140.833 190.5,138.5C 191.068,131.757 192.068,125.091 193.5,118.5 Z"/></g>
<g><path style="opacity:0.576" fill="#d7beab" d="M 111.5,127.5 C 111.279,130.067 110.612,132.401 109.5,134.5C 109.171,131.772 109.837,129.438 111.5,127.5 Z"/></g>
<g><path style="opacity:0.29" fill="#dbc1b0" d="M 140.5,128.5 C 140.573,130.027 139.906,131.027 138.5,131.5C 138.427,129.973 139.094,128.973 140.5,128.5 Z"/></g>
<g><path style="opacity:0.09" fill="#e5d7cc" d="M 148.5,129.5 C 148.573,131.027 147.906,132.027 146.5,132.5C 146.427,130.973 147.094,129.973 148.5,129.5 Z"/></g>
<g><path style="opacity:0.263" fill="#dfd1c6" d="M 138.5,131.5 C 138.573,133.027 137.906,134.027 136.5,134.5C 136.427,132.973 137.094,131.973 138.5,131.5 Z"/></g>
<g><path style="opacity:0.176" fill="#e1d2c6" d="M 145.5,133.5 C 145.25,135.674 144.25,137.341 142.5,138.5C 142.75,136.326 143.75,134.659 145.5,133.5 Z"/></g>
<g><path style="opacity:0.247" fill="#d7b59c" d="M 136.5,134.5 C 135.546,137.751 133.88,140.418 131.5,142.5C 132.383,139.296 134.05,136.629 136.5,134.5 Z"/></g>
<g><path style="opacity:1" fill="#e78130" d="M 154.5,119.5 C 153.89,120.391 153.557,121.391 153.5,122.5C 153.5,123.167 153.167,123.5 152.5,123.5C 151.094,123.973 150.427,124.973 150.5,126.5C 150.573,128.027 149.906,129.027 148.5,129.5C 147.094,129.973 146.427,130.973 146.5,132.5C 146.5,133.167 146.167,133.5 145.5,133.5C 143.75,134.659 142.75,136.326 142.5,138.5C 140.555,142.736 137.888,146.403 134.5,149.5C 133.609,150.11 132.609,150.443 131.5,150.5C 130.533,151.806 129.199,152.473 127.5,152.5C 126.124,155.658 125.458,158.991 125.5,162.5C 122.908,168.024 119.575,173.024 115.5,177.5C 113.694,176.976 112.028,176.309 110.5,175.5C 111.11,174.609 111.443,173.609 111.5,172.5C 112.906,172.027 113.573,171.027 113.5,169.5C 114.906,169.027 115.573,168.027 115.5,166.5C 117.369,164.966 118.702,162.966 119.5,160.5C 120.906,160.027 121.573,159.027 121.5,157.5C 123.369,155.966 124.702,153.966 125.5,151.5C 127.408,150.514 128.408,148.848 128.5,146.5C 130.262,145.738 131.262,144.404 131.5,142.5C 133.88,140.418 135.546,137.751 136.5,134.5C 137.906,134.027 138.573,133.027 138.5,131.5C 139.906,131.027 140.573,130.027 140.5,128.5C 142.727,127.599 143.727,125.933 143.5,123.5C 145.262,122.738 146.262,121.404 146.5,119.5C 147.906,119.027 148.573,118.027 148.5,116.5C 148.328,115.508 148.662,114.842 149.5,114.5C 150.906,114.027 151.573,113.027 151.5,111.5C 153.262,110.738 154.262,109.404 154.5,107.5C 155.695,107.322 156.862,106.989 158,106.5C 159.28,106.613 160.113,107.28 160.5,108.5C 159.271,109.281 157.938,109.781 156.5,110C 157.535,111.507 157.368,113.007 156,114.5C 155.667,114.167 155.333,113.833 155,113.5C 154.505,115.473 154.338,117.473 154.5,119.5 Z"/></g>
<g><path style="opacity:0.835" fill="#d3b198" d="M 131.5,142.5 C 131.262,144.404 130.262,145.738 128.5,146.5C 128.738,144.596 129.738,143.262 131.5,142.5 Z"/></g>
<g><path style="opacity:0.384" fill="#d0bbaa" d="M 18.5,33.5 C 18.3333,95.1676 18.5,156.834 19,218.5C 19.3386,221.88 19.8386,225.213 20.5,228.5C 19.8826,228.389 19.3826,228.056 19,227.5C 18.6667,225.5 18.3333,223.5 18,221.5C 17.8278,160.305 17.3278,99.1383 16.5,38C 16.899,36.2725 17.5657,34.7725 18.5,33.5 Z"/></g>
<g><path style="opacity:0.004" fill="#e8dcd3" d="M 106.5,142.5 C 106.59,145.152 105.924,147.485 104.5,149.5C 104.41,146.848 105.076,144.515 106.5,142.5 Z"/></g>
<g><path style="opacity:0.231" fill="#e5d5c9" d="M 190.5,138.5 C 190.5,140.833 190.5,143.167 190.5,145.5C 189.5,146.833 188.5,148.167 187.5,149.5C 186.833,149.5 186.167,149.5 185.5,149.5C 188.683,146.472 190.349,142.805 190.5,138.5 Z"/></g>
<g><path style="opacity:1" fill="#dca981" d="M 128.5,146.5 C 128.408,148.848 127.408,150.514 125.5,151.5C 125.75,149.326 126.75,147.659 128.5,146.5 Z"/></g>
<g><path style="opacity:0.757" fill="#ceac92" d="M 185.5,149.5 C 184.738,151.262 183.404,152.262 181.5,152.5C 182.262,150.738 183.596,149.738 185.5,149.5 Z"/></g>
<g><path style="opacity:1" fill="#d7b298" d="M 134.5,149.5 C 133.89,151.434 132.89,153.101 131.5,154.5C 131.5,153.167 131.5,151.833 131.5,150.5C 132.609,150.443 133.609,150.11 134.5,149.5 Z"/></g>
<g><path style="opacity:0.6" fill="#d3b59c" d="M 181.5,152.5 C 180.833,153.5 180.167,154.5 179.5,155.5C 178.833,155.5 178.167,155.5 177.5,155.5C 178.262,153.738 179.596,152.738 181.5,152.5 Z"/></g>
<g><path style="opacity:0.314" fill="#dfc9b9" d="M 103.5,152.5 C 103.405,154.786 102.738,156.786 101.5,158.5C 101.259,156.102 101.926,154.102 103.5,152.5 Z"/></g>
<g><path style="opacity:1" fill="#e58d4f" d="M 131.5,150.5 C 131.5,151.833 131.5,153.167 131.5,154.5C 129.853,157.473 127.853,160.14 125.5,162.5C 125.458,158.991 126.124,155.658 127.5,152.5C 129.199,152.473 130.533,151.806 131.5,150.5 Z"/></g>
<g><path style="opacity:1" fill="#d8a47d" d="M 125.5,151.5 C 124.702,153.966 123.369,155.966 121.5,157.5C 121.845,154.802 123.178,152.802 125.5,151.5 Z"/></g>
<g><path style="opacity:0.733" fill="#ceaa8d" d="M 177.5,155.5 C 176.738,157.262 175.404,158.262 173.5,158.5C 174.262,156.738 175.596,155.738 177.5,155.5 Z"/></g>
<g><path style="opacity:1" fill="#ea781c" d="M 177.5,155.5 C 178.167,155.5 178.833,155.5 179.5,155.5C 180.995,155.415 181.995,156.081 182.5,157.5C 181.066,158.23 179.9,159.23 179,160.5C 178.667,160.167 178.333,159.833 178,159.5C 177.51,160.793 177.343,162.127 177.5,163.5C 174.966,163.741 173.3,162.741 172.5,160.5C 172.833,159.833 173.167,159.167 173.5,158.5C 175.404,158.262 176.738,157.262 177.5,155.5 Z"/></g>
<g><path style="opacity:0.208" fill="#e1d0c6" d="M 121.5,157.5 C 121.573,159.027 120.906,160.027 119.5,160.5C 119.427,158.973 120.094,157.973 121.5,157.5 Z"/></g>
<g><path style="opacity:0.345" fill="#ded0c5" d="M 173.5,158.5 C 173.167,159.167 172.833,159.833 172.5,160.5C 171.833,160.5 171.167,160.5 170.5,160.5C 170.973,159.094 171.973,158.427 173.5,158.5 Z"/></g>
<g><path style="opacity:1" fill="#e6853b" d="M 106.5,139.5 C 106.5,140.5 106.5,141.5 106.5,142.5C 105.076,144.515 104.41,146.848 104.5,149.5C 104.737,150.791 104.404,151.791 103.5,152.5C 101.926,154.102 101.259,156.102 101.5,158.5C 101.672,159.492 101.338,160.158 100.5,160.5C 99.0762,162.515 98.4095,164.848 98.5,167.5C 98.0719,170.785 97.0719,173.785 95.5,176.5C 95.1667,176.5 94.8333,176.5 94.5,176.5C 94.073,173.212 94.7397,170.212 96.5,167.5C 95.7261,166.289 94.8928,166.289 94,167.5C 93.8333,167 93.6667,166.5 93.5,166C 94.5,164.333 95.5,162.667 96.5,161C 95.0615,158.634 95.5615,158.134 98,159.5C 98.6667,158.833 99.3333,158.167 100,157.5C 100.559,153.814 101.226,150.147 102,146.5C 103.641,144.16 105.141,141.827 106.5,139.5 Z"/></g>
<g><path style="opacity:1" fill="#e48740" d="M 185.5,149.5 C 186.167,149.5 186.833,149.5 187.5,149.5C 185.8,151.21 184.467,153.21 183.5,155.5C 185.326,155.92 187.326,155.92 189.5,155.5C 189.784,157.415 189.451,159.081 188.5,160.5C 188.762,159.022 188.429,157.689 187.5,156.5C 186.893,156.624 186.56,156.957 186.5,157.5C 184.596,157.738 183.262,158.738 182.5,160.5C 180.14,162.853 177.473,164.853 174.5,166.5C 172.973,166.427 171.973,167.094 171.5,168.5C 169.704,170.9 167.37,172.567 164.5,173.5C 164.5,172.167 164.5,170.833 164.5,169.5C 165.833,169.5 167.167,169.5 168.5,169.5C 168.5,168.167 168.5,166.833 168.5,165.5C 167.5,165.5 166.5,165.5 165.5,165.5C 165.5,165.167 165.5,164.833 165.5,164.5C 167.749,163.92 169.415,162.587 170.5,160.5C 171.167,160.5 171.833,160.5 172.5,160.5C 173.3,162.741 174.966,163.741 177.5,163.5C 177.343,162.127 177.51,160.793 178,159.5C 178.333,159.833 178.667,160.167 179,160.5C 179.9,159.23 181.066,158.23 182.5,157.5C 181.995,156.081 180.995,155.415 179.5,155.5C 180.167,154.5 180.833,153.5 181.5,152.5C 183.404,152.262 184.738,151.262 185.5,149.5 Z"/></g>
<g><path style="opacity:0.11" fill="#eae1db" d="M 186.5,157.5 C 186.56,156.957 186.893,156.624 187.5,156.5C 188.429,157.689 188.762,159.022 188.5,160.5C 188.167,160.5 187.833,160.5 187.5,160.5C 187.737,159.209 187.404,158.209 186.5,157.5 Z"/></g>
<g><path style="opacity:0.035" fill="#e6d7ca" d="M 186.5,157.5 C 185.738,159.262 184.404,160.262 182.5,160.5C 183.262,158.738 184.596,157.738 186.5,157.5 Z"/></g>
<g><path style="opacity:0.004" fill="#e9d8cb" d="M 100.5,160.5 C 100.59,163.152 99.9238,165.485 98.5,167.5C 98.4095,164.848 99.0762,162.515 100.5,160.5 Z"/></g>
<g><path style="opacity:0.835" fill="#d0b199" d="M 170.5,160.5 C 169.415,162.587 167.749,163.92 165.5,164.5C 166.585,162.413 168.251,161.08 170.5,160.5 Z"/></g>
<g><path style="opacity:1" fill="#d6a482" d="M 119.5,160.5 C 118.702,162.966 117.369,164.966 115.5,166.5C 115.845,163.802 117.178,161.802 119.5,160.5 Z"/></g>
<g><path style="opacity:0.678" fill="#d2b7a3" d="M 165.5,164.5 C 165.5,164.833 165.5,165.167 165.5,165.5C 164.609,166.11 163.609,166.443 162.5,166.5C 162.973,165.094 163.973,164.427 165.5,164.5 Z"/></g>
<g><path style="opacity:1" fill="#e07b25" d="M 259.5,53.5 C 260.167,53.8333 260.833,54.1667 261.5,54.5C 261.054,57.0101 261.72,59.0101 263.5,60.5C 263.5,125.833 263.5,191.167 263.5,256.5C 263.5,257.167 263.167,257.5 262.5,257.5C 262.667,192.166 262.5,126.832 262,61.5C 260.731,59.0066 259.898,56.3399 259.5,53.5 Z"/></g>
<g><path style="opacity:0.549" fill="#d1b69f" d="M 162.5,166.5 C 161.415,168.587 159.749,169.92 157.5,170.5C 158.585,168.413 160.251,167.08 162.5,166.5 Z"/></g>
<g><path style="opacity:0.004" fill="#eae1da" d="M 174.5,166.5 C 174.027,167.906 173.027,168.573 171.5,168.5C 171.973,167.094 172.973,166.427 174.5,166.5 Z"/></g>
<g><path style="opacity:0.275" fill="#dcc8bb" d="M 115.5,166.5 C 115.573,168.027 114.906,169.027 113.5,169.5C 113.427,167.973 114.094,166.973 115.5,166.5 Z"/></g>
<g><path style="opacity:0.431" fill="#d3bcab" d="M 113.5,169.5 C 113.573,171.027 112.906,172.027 111.5,172.5C 111.427,170.973 112.094,169.973 113.5,169.5 Z"/></g>
<g><path style="opacity:0.624" fill="#d4baa6" d="M 157.5,170.5 C 157.027,171.906 156.027,172.573 154.5,172.5C 154.973,171.094 155.973,170.427 157.5,170.5 Z"/></g>
<g><path style="opacity:0.353" fill="#d6baa4" d="M 111.5,172.5 C 111.443,173.609 111.11,174.609 110.5,175.5C 110.167,175.5 109.833,175.5 109.5,175.5C 109.427,173.973 110.094,172.973 111.5,172.5 Z"/></g>
<g><path style="opacity:0.753" fill="#d4ac8e" d="M 154.5,172.5 C 152.732,175.59 150.065,177.59 146.5,178.5C 148.86,176.147 151.527,174.147 154.5,172.5 Z"/></g>
<g><path style="opacity:1" fill="#e29e6b" d="M 164.5,173.5 C 160.716,177.557 156.383,180.891 151.5,183.5C 153.337,179.058 156.67,176.225 161.5,175C 161.167,174.667 160.833,174.333 160.5,174C 161.793,173.51 163.127,173.343 164.5,173.5 Z"/></g>
<g><path style="opacity:0.318" fill="#ddccbf" d="M 94.5,176.5 C 94.8333,176.5 95.1667,176.5 95.5,176.5C 95.405,178.786 94.7384,180.786 93.5,182.5C 93.5172,180.435 93.8505,178.435 94.5,176.5 Z"/></g>
<g><path style="opacity:1" fill="#e87a20" d="M 165.5,165.5 C 166.5,165.5 167.5,165.5 168.5,165.5C 168.5,166.833 168.5,168.167 168.5,169.5C 167.167,169.5 165.833,169.5 164.5,169.5C 164.5,170.833 164.5,172.167 164.5,173.5C 163.127,173.343 161.793,173.51 160.5,174C 160.833,174.333 161.167,174.667 161.5,175C 156.67,176.225 153.337,179.058 151.5,183.5C 149.973,183.427 148.973,184.094 148.5,185.5C 146.5,185.5 144.5,185.5 142.5,185.5C 142.5,186.833 142.5,188.167 142.5,189.5C 141.5,189.833 140.833,190.5 140.5,191.5C 137.606,191.042 135.106,191.709 133,193.5C 132.517,192.552 132.351,191.552 132.5,190.5C 132.833,189.833 133.167,189.167 133.5,188.5C 135.404,188.262 136.738,187.262 137.5,185.5C 139.404,185.262 140.738,184.262 141.5,182.5C 143.749,181.92 145.415,180.587 146.5,178.5C 150.065,177.59 152.732,175.59 154.5,172.5C 156.027,172.573 157.027,171.906 157.5,170.5C 159.749,169.92 161.415,168.587 162.5,166.5C 163.609,166.443 164.609,166.11 165.5,165.5 Z"/></g>
<g><path style="opacity:0.314" fill="#d7c4b5" d="M 107.5,178.5 C 107.573,180.027 106.906,181.027 105.5,181.5C 105.427,179.973 106.094,178.973 107.5,178.5 Z"/></g>
<g><path style="opacity:0.729" fill="#cfb099" d="M 146.5,178.5 C 145.415,180.587 143.749,181.92 141.5,182.5C 142.585,180.413 144.251,179.08 146.5,178.5 Z"/></g>
<g><path style="opacity:1" fill="#e49c67" d="M 187.5,160.5 C 187.833,160.5 188.167,160.5 188.5,160.5C 187.385,170.706 186.385,181.039 185.5,191.5C 183.393,197.993 182.226,204.66 182,211.5C 181.722,212.416 181.222,213.082 180.5,213.5C 180.5,211.833 180.5,210.167 180.5,208.5C 182.182,192.368 184.516,176.368 187.5,160.5 Z"/></g>
<g><path style="opacity:0.176" fill="#e3d5cc" d="M 105.5,181.5 C 105.573,183.027 104.906,184.027 103.5,184.5C 103.427,182.973 104.094,181.973 105.5,181.5 Z"/></g>
<g><path style="opacity:0.937" fill="#d4a682" d="M 141.5,182.5 C 140.738,184.262 139.404,185.262 137.5,185.5C 138.262,183.738 139.596,182.738 141.5,182.5 Z"/></g>
<g><path style="opacity:0.024" fill="#e7d9cf" d="M 151.5,183.5 C 151.027,184.906 150.027,185.573 148.5,185.5C 148.973,184.094 149.973,183.427 151.5,183.5 Z"/></g>
<g><path style="opacity:0.024" fill="#e5d7ce" d="M 93.5,182.5 C 93.7406,184.898 93.0739,186.898 91.5,188.5C 91.595,186.214 92.2616,184.214 93.5,182.5 Z"/></g>
<g><path style="opacity:1" fill="#e0965f" d="M 148.5,185.5 C 147.421,187.543 145.754,188.876 143.5,189.5C 143.167,189.5 142.833,189.5 142.5,189.5C 142.5,188.167 142.5,186.833 142.5,185.5C 144.5,185.5 146.5,185.5 148.5,185.5 Z"/></g>
<g><path style="opacity:0.596" fill="#d6b79f" d="M 137.5,185.5 C 136.738,187.262 135.404,188.262 133.5,188.5C 134.262,186.738 135.596,185.738 137.5,185.5 Z"/></g>
<g><path style="opacity:0.776" fill="#d5b69e" d="M 102.5,186.5 C 102.262,188.404 101.262,189.738 99.5,190.5C 99.7376,188.596 100.738,187.262 102.5,186.5 Z"/></g>
<g><path style="opacity:0.031" fill="#e2d2c5" d="M 107.5,188.5 C 107.573,190.027 106.906,191.027 105.5,191.5C 105.427,189.973 106.094,188.973 107.5,188.5 Z"/></g>
<g><path style="opacity:0.722" fill="#d2b29d" d="M 133.5,188.5 C 133.167,189.167 132.833,189.833 132.5,190.5C 131.833,190.5 131.167,190.5 130.5,190.5C 130.973,189.094 131.973,188.427 133.5,188.5 Z"/></g>
<g><path style="opacity:0.008" fill="#ebe2db" d="M 142.5,189.5 C 142.833,189.5 143.167,189.5 143.5,189.5C 143.027,190.906 142.027,191.573 140.5,191.5C 140.833,190.5 141.5,189.833 142.5,189.5 Z"/></g>
<g><path style="opacity:0.604" fill="#d3b6a1" d="M 91.5,188.5 C 91.405,190.786 90.7384,192.786 89.5,194.5C 89.2594,192.102 89.9261,190.102 91.5,188.5 Z"/></g>
<g><path style="opacity:0.439" fill="#d8baa4" d="M 130.5,190.5 C 128.051,193.556 125.051,195.889 121.5,197.5C 123.949,194.444 126.949,192.111 130.5,190.5 Z"/></g>
<g><path style="opacity:0.502" fill="#d2b6a0" d="M 98.5,192.5 C 98.573,194.027 97.9063,195.027 96.5,195.5C 96.427,193.973 97.0937,192.973 98.5,192.5 Z"/></g>
<g><path style="opacity:0.016" fill="#e6d9cf" d="M 103.5,194.5 C 103.573,196.027 102.906,197.027 101.5,197.5C 101.427,195.973 102.094,194.973 103.5,194.5 Z"/></g>
<g><path style="opacity:1" fill="#e3863d" d="M 109.5,175.5 C 109.833,175.5 110.167,175.5 110.5,175.5C 112.028,176.309 113.694,176.976 115.5,177.5C 113.066,181.382 110.399,185.048 107.5,188.5C 106.094,188.973 105.427,189.973 105.5,191.5C 105.573,193.027 104.906,194.027 103.5,194.5C 102.094,194.973 101.427,195.973 101.5,197.5C 100.094,197.973 99.427,198.973 99.5,200.5C 98.0937,200.973 97.427,201.973 97.5,203.5C 97.5,204.167 97.1667,204.5 96.5,204.5C 95.0937,204.973 94.427,205.973 94.5,207.5C 94.573,209.027 93.9063,210.027 92.5,210.5C 91.0937,210.973 90.427,211.973 90.5,213.5C 90.5,214.167 90.1667,214.5 89.5,214.5C 87.2407,215.344 86.2407,217.011 86.5,219.5C 86.5,220.167 86.1667,220.5 85.5,220.5C 85.7128,217.549 85.0461,214.882 83.5,212.5C 84.1667,212.5 84.8333,212.5 85.5,212.5C 87.1042,211.713 87.7709,210.38 87.5,208.5C 89.2624,207.738 90.2624,206.404 90.5,204.5C 91.9063,204.027 92.573,203.027 92.5,201.5C 93.9063,201.027 94.573,200.027 94.5,198.5C 95.9063,198.027 96.573,197.027 96.5,195.5C 97.9063,195.027 98.573,194.027 98.5,192.5C 98.3284,191.508 98.6618,190.842 99.5,190.5C 101.262,189.738 102.262,188.404 102.5,186.5C 102.328,185.508 102.662,184.842 103.5,184.5C 104.906,184.027 105.573,183.027 105.5,181.5C 106.906,181.027 107.573,180.027 107.5,178.5C 107.932,177.29 108.599,176.29 109.5,175.5 Z"/></g>
<g><path style="opacity:0.678" fill="#d2b6a1" d="M 89.5,194.5 C 89.2785,197.067 88.6118,199.401 87.5,201.5C 87.1706,198.772 87.8372,196.438 89.5,194.5 Z"/></g>
<g><path style="opacity:0.514" fill="#cfae96" d="M 96.5,195.5 C 96.573,197.027 95.9063,198.027 94.5,198.5C 94.427,196.973 95.0937,195.973 96.5,195.5 Z"/></g>
<g><path style="opacity:0.965" fill="#daac8a" d="M 132.5,197.5 C 131.738,199.262 130.404,200.262 128.5,200.5C 129.048,198.468 130.381,197.468 132.5,197.5 Z"/></g>
<g><path style="opacity:0.004" fill="#e9dfd7" d="M 101.5,197.5 C 101.573,199.027 100.906,200.027 99.5,200.5C 99.427,198.973 100.094,197.973 101.5,197.5 Z"/></g>
<g><path style="opacity:0.439" fill="#ddcdbf" d="M 121.5,197.5 C 121.027,198.906 120.027,199.573 118.5,199.5C 118.973,198.094 119.973,197.427 121.5,197.5 Z"/></g>
<g><path style="opacity:0.549" fill="#cead95" d="M 94.5,198.5 C 94.573,200.027 93.9063,201.027 92.5,201.5C 92.427,199.973 93.0937,198.973 94.5,198.5 Z"/></g>
<g><path style="opacity:0.051" fill="#e4d8cd" d="M 128.5,200.5 C 127.738,202.262 126.404,203.262 124.5,203.5C 125.262,201.738 126.596,200.738 128.5,200.5 Z"/></g>
<g><path style="opacity:0.082" fill="#e4d9d0" d="M 99.5,200.5 C 99.573,202.027 98.9063,203.027 97.5,203.5C 97.427,201.973 98.0937,200.973 99.5,200.5 Z"/></g>
<g><path style="opacity:0.82" fill="#d6a988" d="M 118.5,199.5 C 117.415,201.587 115.749,202.92 113.5,203.5C 114.585,201.413 116.251,200.08 118.5,199.5 Z"/></g>
<g><path style="opacity:1" fill="#e6802e" d="M 130.5,190.5 C 131.167,190.5 131.833,190.5 132.5,190.5C 132.351,191.552 132.517,192.552 133,193.5C 135.106,191.709 137.606,191.042 140.5,191.5C 138.23,193.975 135.563,195.975 132.5,197.5C 130.381,197.468 129.048,198.468 128.5,200.5C 126.596,200.738 125.262,201.738 124.5,203.5C 124.5,204.167 124.167,204.5 123.5,204.5C 121.973,204.427 120.973,205.094 120.5,206.5C 118.973,206.427 117.973,207.094 117.5,208.5C 116.421,210.543 114.754,211.876 112.5,212.5C 110.973,212.427 109.973,213.094 109.5,214.5C 108.421,216.543 106.754,217.876 104.5,218.5C 102.973,218.427 101.973,219.094 101.5,220.5C 101.5,221.167 101.167,221.5 100.5,221.5C 98.9731,221.427 97.9731,222.094 97.5,223.5C 97.5,224.167 97.1667,224.5 96.5,224.5C 94.9731,224.427 93.9731,225.094 93.5,226.5C 91.8127,225.274 90.3127,225.608 89,227.5C 87.6362,226.629 86.4695,225.629 85.5,224.5C 87.4044,224.262 88.7377,223.262 89.5,221.5C 92.0892,220.581 94.0892,218.914 95.5,216.5C 95.8417,215.662 96.5084,215.328 97.5,215.5C 99.7488,214.92 101.415,213.587 102.5,211.5C 104.027,211.573 105.027,210.906 105.5,209.5C 107.749,208.92 109.415,207.587 110.5,205.5C 112.027,205.573 113.027,204.906 113.5,203.5C 115.749,202.92 117.415,201.587 118.5,199.5C 120.027,199.573 121.027,198.906 121.5,197.5C 125.051,195.889 128.051,193.556 130.5,190.5 Z"/></g>
<g><path style="opacity:0.259" fill="#dbcbbe" d="M 92.5,201.5 C 92.573,203.027 91.9063,204.027 90.5,204.5C 90.427,202.973 91.0937,201.973 92.5,201.5 Z"/></g>
<g><path style="opacity:0.573" fill="#d5bfae" d="M 113.5,203.5 C 113.027,204.906 112.027,205.573 110.5,205.5C 110.973,204.094 111.973,203.427 113.5,203.5 Z"/></g>
<g><path style="opacity:0.769" fill="#d6baa3" d="M 90.5,204.5 C 90.2624,206.404 89.2624,207.738 87.5,208.5C 87.7376,206.596 88.7376,205.262 90.5,204.5 Z"/></g>
<g><path style="opacity:0.043" fill="#e1ccbf" d="M 96.5,204.5 C 96.573,206.027 95.9063,207.027 94.5,207.5C 94.427,205.973 95.0937,204.973 96.5,204.5 Z"/></g>
<g><path style="opacity:0.035" fill="#e5d8ce" d="M 123.5,204.5 C 123.027,205.906 122.027,206.573 120.5,206.5C 120.973,205.094 121.973,204.427 123.5,204.5 Z"/></g>
<g><path style="opacity:0.322" fill="#d8b499" d="M 87.5,201.5 C 86.8333,204.5 86.1667,207.5 85.5,210.5C 84.8333,210.833 84.1667,211.167 83.5,211.5C 83.3433,210.127 83.51,208.793 84,207.5C 84.876,205.242 86.0427,203.242 87.5,201.5 Z"/></g>
<g><path style="opacity:0.02" fill="#e9dcd4" d="M 120.5,206.5 C 120.027,207.906 119.027,208.573 117.5,208.5C 117.973,207.094 118.973,206.427 120.5,206.5 Z"/></g>
<g><path style="opacity:0.945" fill="#d3ac90" d="M 110.5,205.5 C 109.415,207.587 107.749,208.92 105.5,209.5C 106.585,207.413 108.251,206.08 110.5,205.5 Z"/></g>
<g><path style="opacity:0.553" fill="#d5bead" d="M 105.5,209.5 C 105.027,210.906 104.027,211.573 102.5,211.5C 102.973,210.094 103.973,209.427 105.5,209.5 Z"/></g>
<g><path style="opacity:0.729" fill="#d7b196" d="M 87.5,208.5 C 87.7709,210.38 87.1042,211.713 85.5,212.5C 85.5,211.833 85.5,211.167 85.5,210.5C 86.1667,209.833 86.8333,209.167 87.5,208.5 Z"/></g>
<g><path style="opacity:0.008" fill="#e6dad1" d="M 92.5,210.5 C 92.573,212.027 91.9063,213.027 90.5,213.5C 90.427,211.973 91.0937,210.973 92.5,210.5 Z"/></g>
<g><path style="opacity:0.431" fill="#deccbe" d="M 180.5,208.5 C 180.5,210.167 180.5,211.833 180.5,213.5C 180.5,213.833 180.5,214.167 180.5,214.5C 179.833,214.833 179.167,215.167 178.5,215.5C 178.927,212.99 179.593,210.657 180.5,208.5 Z"/></g>
<g><path style="opacity:0.004" fill="#ebe1db" d="M 112.5,212.5 C 112.027,213.906 111.027,214.573 109.5,214.5C 109.973,213.094 110.973,212.427 112.5,212.5 Z"/></g>
<g><path style="opacity:0.816" fill="#d6b296" d="M 102.5,211.5 C 101.415,213.587 99.7488,214.92 97.5,215.5C 98.5846,213.413 100.251,212.08 102.5,211.5 Z"/></g>
<g><path style="opacity:1" fill="#dcab84" d="M 89.5,214.5 C 88.8897,216.434 87.8897,218.101 86.5,219.5C 86.2407,217.011 87.2407,215.344 89.5,214.5 Z"/></g>
<g><path style="opacity:0.612" fill="#d1b7a4" d="M 95.5,216.5 C 94.0892,218.914 92.0892,220.581 89.5,221.5C 90.9108,219.086 92.9108,217.419 95.5,216.5 Z"/></g>
<g><path style="opacity:0.031" fill="#e6dad0" d="M 104.5,218.5 C 104.027,219.906 103.027,220.573 101.5,220.5C 101.973,219.094 102.973,218.427 104.5,218.5 Z"/></g>
<g><path style="opacity:0.69" fill="#dbc5b5" d="M 172.5,216.5 C 167.503,218.749 162.17,220.083 156.5,220.5C 161.573,218.565 166.906,217.232 172.5,216.5 Z"/></g>
<g><path style="opacity:0.035" fill="#e0d2c7" d="M 85.5,220.5 C 85.573,222.027 84.9063,223.027 83.5,223.5C 83.5,223.167 83.5,222.833 83.5,222.5C 83.8333,221.5 84.5,220.833 85.5,220.5 Z"/></g>
<g><path style="opacity:0.847" fill="#d0a588" d="M 89.5,221.5 C 88.7377,223.262 87.4044,224.262 85.5,224.5C 86.2623,222.738 87.5956,221.738 89.5,221.5 Z"/></g>
<g><path style="opacity:0.008" fill="#ece3de" d="M 100.5,221.5 C 100.027,222.906 99.0269,223.573 97.5,223.5C 97.9731,222.094 98.9731,221.427 100.5,221.5 Z"/></g>
<g><path style="opacity:1" fill="#e68335" d="M 180.5,214.5 C 180.306,216.912 178.973,217.912 176.5,217.5C 176.5,218.5 176.5,219.5 176.5,220.5C 174.116,220.557 171.782,220.223 169.5,219.5C 167.595,220.065 165.929,221.065 164.5,222.5C 161.405,220.886 158.739,221.386 156.5,224C 160.333,225.369 159.999,226.203 155.5,226.5C 152.953,226.558 150.62,225.891 148.5,224.5C 145.579,225.407 142.579,225.74 139.5,225.5C 143.217,224.32 146.884,222.987 150.5,221.5C 152.379,220.659 154.379,220.325 156.5,220.5C 162.17,220.083 167.503,218.749 172.5,216.5C 174.435,215.85 176.435,215.517 178.5,215.5C 179.167,215.167 179.833,214.833 180.5,214.5 Z"/></g>
<g><path style="opacity:0.702" fill="#dfc7b5" d="M 150.5,221.5 C 146.884,222.987 143.217,224.32 139.5,225.5C 136.518,225.963 133.518,226.296 130.5,226.5C 136.902,224.233 143.568,222.566 150.5,221.5 Z"/></g>
<g><path style="opacity:1" fill="#e1975f" d="M 83.5,222.5 C 83.5,222.833 83.5,223.167 83.5,223.5C 83.5,223.833 83.5,224.167 83.5,224.5C 84.1667,224.5 84.8333,224.5 85.5,224.5C 86.4695,225.629 87.6362,226.629 89,227.5C 90.3127,225.608 91.8127,225.274 93.5,226.5C 89.3522,230.404 85.0189,234.071 80.5,237.5C 79.9033,237.265 79.5699,236.765 79.5,236C 80.8847,234.403 81.5514,232.57 81.5,230.5C 83.1667,230.5 84.8333,230.5 86.5,230.5C 86.5,229.167 86.5,227.833 86.5,226.5C 85.0695,226.421 83.7362,226.754 82.5,227.5C 81.6433,226.264 80.9766,224.931 80.5,223.5C 81.325,222.614 82.325,222.281 83.5,222.5 Z"/></g>
<g><path style="opacity:0.004" fill="#eee7e2" d="M 96.5,224.5 C 96.0269,225.906 95.0269,226.573 93.5,226.5C 93.9731,225.094 94.9731,224.427 96.5,224.5 Z"/></g>
<g><path style="opacity:0.894" fill="#d2b299" d="M 120.5,228.5 C 118.162,230.04 115.495,230.706 112.5,230.5C 114.905,229.232 117.572,228.565 120.5,228.5 Z"/></g>
<g><path style="opacity:0.827" fill="#d4b39b" d="M 112.5,230.5 C 110.162,232.04 107.495,232.706 104.5,232.5C 106.838,230.96 109.505,230.294 112.5,230.5 Z"/></g>
<g><path style="opacity:0.408" fill="#e0c9b7" d="M 20.5,229.5 C 21.1667,230.167 21.8333,230.833 22.5,231.5C 24.1667,235.5 25.8333,239.5 27.5,243.5C 24.1263,239.419 21.793,234.753 20.5,229.5 Z"/></g>
<g><path style="opacity:0.671" fill="#dac5b6" d="M 93.5,234.5 C 91.4855,235.924 89.1522,236.59 86.5,236.5C 88.5145,235.076 90.8478,234.41 93.5,234.5 Z"/></g>
<g><path style="opacity:1" fill="#ce976e" d="M 86.5,236.5 C 84.68,238.461 82.68,238.794 80.5,237.5C 82.4352,236.85 84.4352,236.517 86.5,236.5 Z"/></g>
<g><path style="opacity:0.98" fill="#deb497" d="M 27.5,243.5 C 30.0171,244.893 31.6837,246.893 32.5,249.5C 30.086,248.089 28.4194,246.089 27.5,243.5 Z"/></g>
<g><path style="opacity:1" fill="#d9aa84" d="M 32.5,249.5 C 34.8333,249.833 36.1667,251.167 36.5,253.5C 34.8333,252.5 33.5,251.167 32.5,249.5 Z"/></g>
<g><path style="opacity:0.859" fill="#d8af92" d="M 36.5,253.5 C 38.4044,253.738 39.7377,254.738 40.5,256.5C 38.5956,256.262 37.2623,255.262 36.5,253.5 Z"/></g>
<g><path style="opacity:0.769" fill="#dec3ae" d="M 40.5,256.5 C 42.4044,256.738 43.7377,257.738 44.5,259.5C 42.5956,259.262 41.2623,258.262 40.5,256.5 Z"/></g>
<g><path style="opacity:0.286" fill="#ddc7b6" d="M 46.5,260.5 C 48.153,260.66 49.4863,261.326 50.5,262.5C 48.6203,262.771 47.287,262.104 46.5,260.5 Z"/></g>
<g><path style="opacity:0.984" fill="#dfb798" d="M 50.5,262.5 C 52.698,262.12 54.3646,262.787 55.5,264.5C 53.4471,264.598 51.7804,263.931 50.5,262.5 Z"/></g>
<g><path style="opacity:0.678" fill="#dab497" d="M 55.5,264.5 C 58.2282,264.171 60.5615,264.837 62.5,266.5C 59.8478,266.59 57.5145,265.924 55.5,264.5 Z"/></g>
<g><path style="opacity:0.585" fill="#ceaf96" d="M 263.5,256.5 C 263.833,256.5 264.167,256.5 264.5,256.5C 262.743,261.425 259.41,264.925 254.5,267C 190.332,267.832 126.332,267.665 62.5,266.5C 126.168,266.667 189.834,266.5 253.5,266C 254.973,265.29 255.64,264.124 255.5,262.5C 256.873,262.657 258.207,262.49 259.5,262C 260.222,260.249 261.222,258.749 262.5,257.5C 263.167,257.5 263.5,257.167 263.5,256.5 Z"/></g>
</svg>
