<?xml version="1.0" encoding="UTF-8"?>
<!DOCTYPE svg PUBLIC "-//W3C//DTD SVG 1.1//EN" "http://www.w3.org/Graphics/SVG/1.1/DTD/svg11.dtd">
<svg xmlns="http://www.w3.org/2000/svg" version="1.1" width="1479px" height="314px" style="shape-rendering:geometricPrecision; text-rendering:geometricPrecision; image-rendering:optimizeQuality; fill-rule:evenodd; clip-rule:evenodd" xmlns:xlink="http://www.w3.org/1999/xlink">
<g><path style="opacity:0.998" fill="#231e1c" d="M 22.5,278.5 C 22.0269,277.094 21.0269,276.427 19.5,276.5C 9.47524,267.488 2.80857,256.488 -0.5,243.5C -0.5,222.167 -0.5,200.833 -0.5,179.5C 0.332754,130.335 0.832754,81.0017 1,31.5C 3.552,27.2811 7.052,24.1145 11.5,22C 81.5,21.3333 151.5,21.3333 221.5,22C 247.93,28.7489 263.43,45.2489 268,71.5C 268.667,140.833 268.667,210.167 268,279.5C 265.74,285.428 261.573,289.261 255.5,291C 186.833,291.667 118.167,291.667 49.5,291C 39.1405,289.483 30.1405,285.317 22.5,278.5 Z"/></g>
<g><path style="opacity:0.979" fill="#221e1b" d="M 876.5,21.5 C 893.155,20.4597 908.489,24.293 922.5,33C 932.871,41.2395 938.371,52.0728 939,65.5C 940.073,79.1467 940.573,92.8134 940.5,106.5C 924.167,106.5 907.833,106.5 891.5,106.5C 891.923,90.118 891.423,73.7847 890,57.5C 885.667,52.1667 881.333,52.1667 877,57.5C 875.598,85.6049 874.765,113.772 874.5,142C 874.49,153.525 874.99,165.025 876,176.5C 879.156,181.913 883.49,182.913 889,179.5C 890.073,175.916 890.74,172.25 891,168.5C 891.5,157.505 891.667,146.505 891.5,135.5C 907.5,135.5 923.5,135.5 939.5,135.5C 940.06,150.593 939.227,165.593 937,180.5C 930.088,199.4 916.588,210.233 896.5,213C 887.5,213.667 878.5,213.667 869.5,213C 850.105,211.245 836.938,201.412 830,183.5C 828.568,177.574 827.568,171.574 827,165.5C 826.333,133.167 826.333,100.833 827,68.5C 827.803,49.0466 836.969,35.2133 854.5,27C 861.763,24.3206 869.097,22.4872 876.5,21.5 Z"/></g>
<g><path style="opacity:0.973" fill="#221e1b" d="M 306.5,24.5 C 322.833,24.5 339.167,24.5 355.5,24.5C 355.5,46.5 355.5,68.5 355.5,90.5C 359.833,90.5 364.167,90.5 368.5,90.5C 368.5,68.5 368.5,46.5 368.5,24.5C 384.833,24.5 401.167,24.5 417.5,24.5C 417.5,86.1667 417.5,147.833 417.5,209.5C 401.167,209.5 384.833,209.5 368.5,209.5C 368.5,183.833 368.5,158.167 368.5,132.5C 364.167,132.5 359.833,132.5 355.5,132.5C 355.5,158.167 355.5,183.833 355.5,209.5C 339.167,209.5 322.833,209.5 306.5,209.5C 306.5,147.833 306.5,86.1667 306.5,24.5 Z"/></g>
<g><path style="opacity:0.977" fill="#221e1b" d="M 713.5,24.5 C 729.167,24.5 744.833,24.5 760.5,24.5C 760.333,48.169 760.5,71.8357 761,95.5C 765.068,83.1296 769.235,70.7962 773.5,58.5C 786.483,57.5009 799.483,57.1675 812.5,57.5C 806.914,77.9275 800.914,98.2608 794.5,118.5C 802.501,148.506 810.501,178.506 818.5,208.5C 803.511,209.666 788.511,209.833 773.5,209C 769.084,190.26 764.918,171.426 761,152.5C 759.642,171.471 759.142,190.471 759.5,209.5C 744.167,209.5 728.833,209.5 713.5,209.5C 713.5,147.833 713.5,86.1667 713.5,24.5 Z"/></g>
<g><path style="opacity:0.976" fill="#221e1b" d="M 1136.5,25.5 C 1152.17,25.5 1167.83,25.5 1183.5,25.5C 1183.5,87.1667 1183.5,148.833 1183.5,210.5C 1167.83,210.5 1152.17,210.5 1136.5,210.5C 1136.67,207.15 1136.5,203.817 1136,200.5C 1123.86,212.407 1109.7,215.574 1093.5,210C 1081.31,203.122 1075.81,192.622 1077,178.5C 1076.12,145.816 1076.45,113.15 1078,80.5C 1081.59,63.9197 1091.92,55.9197 1109,56.5C 1119.47,55.9049 1128.47,59.2382 1136,66.5C 1136.5,52.8374 1136.67,39.1707 1136.5,25.5 Z M 1128.5,83.5 C 1132.42,83.0428 1134.92,84.7095 1136,88.5C 1136.67,118.5 1136.67,148.5 1136,178.5C 1134.29,185.53 1130.62,186.863 1125,182.5C 1124.67,181.167 1124.33,179.833 1124,178.5C 1123.33,149.5 1123.33,120.5 1124,91.5C 1123.76,87.7329 1125.26,85.0662 1128.5,83.5 Z"/></g>
<g><path style="opacity:0.976" fill="#221e1b" d="M 1380.5,25.5 C 1396.17,25.5 1411.83,25.5 1427.5,25.5C 1427.5,87.1667 1427.5,148.833 1427.5,210.5C 1411.83,210.5 1396.17,210.5 1380.5,210.5C 1380.67,207.15 1380.5,203.817 1380,200.5C 1367.86,212.407 1353.7,215.574 1337.5,210C 1325.31,203.122 1319.81,192.622 1321,178.5C 1320.12,145.816 1320.45,113.15 1322,80.5C 1325.59,63.9197 1335.92,55.9197 1353,56.5C 1363.47,55.9049 1372.47,59.2382 1380,66.5C 1380.5,52.8374 1380.67,39.1707 1380.5,25.5 Z M 1372.5,83.5 C 1376.42,83.0428 1378.92,84.7095 1380,88.5C 1380.67,118.5 1380.67,148.5 1380,178.5C 1378.29,185.53 1374.62,186.863 1369,182.5C 1368.67,181.167 1368.33,179.833 1368,178.5C 1367.33,149.5 1367.33,120.5 1368,91.5C 1367.76,87.7329 1369.26,85.0662 1372.5,83.5 Z"/></g>
<g><path style="opacity:0.975" fill="#221e1b" d="M 473.5,55.5 C 483.172,55.3335 492.839,55.5002 502.5,56C 529.747,60.6139 541.913,76.7806 539,104.5C 539.5,139.498 539.667,174.498 539.5,209.5C 524.167,209.5 508.833,209.5 493.5,209.5C 493.665,205.818 493.499,202.152 493,198.5C 487.044,207.728 478.544,212.062 467.5,211.5C 457.812,211.771 449.312,208.771 442,202.5C 438.632,198.065 436.632,193.065 436,187.5C 435.333,175.167 435.333,162.833 436,150.5C 436.868,142.25 441.034,136.417 448.5,133C 459.384,128.058 470.384,123.391 481.5,119C 484.912,117.545 488.079,115.712 491,113.5C 492.568,105.579 492.901,97.5788 492,89.5C 490.718,83.2764 487.218,81.4431 481.5,84C 480.809,85.0674 480.309,86.2341 480,87.5C 479.5,97.1609 479.334,106.828 479.5,116.5C 464.833,116.5 450.167,116.5 435.5,116.5C 435.334,108.493 435.5,100.493 436,92.5C 437.239,78.9356 443.739,68.7689 455.5,62C 461.435,59.3026 467.435,57.1359 473.5,55.5 Z M 491.5,138.5 C 492.66,151.66 492.827,164.994 492,178.5C 490.754,183.812 487.587,185.312 482.5,183C 481.107,181.829 480.273,180.329 480,178.5C 479.333,170.5 479.333,162.5 480,154.5C 480.36,152.392 481.027,150.392 482,148.5C 485.059,145.056 488.226,141.723 491.5,138.5 Z"/></g>
<g><path style="opacity:1" fill="#ea7614" d="M 188.5,53.5 C 189.525,53.8966 189.692,54.5632 189,55.5C 185.606,59.8981 182.606,64.5648 180,69.5C 164.723,92.442 149.057,115.109 133,137.5C 112.333,168.833 91.6667,200.167 71,231.5C 80.0968,199.209 90.5968,167.376 102.5,136C 107.931,118.374 113.764,100.874 120,83.5C 127.82,79.1777 135.82,75.1777 144,71.5C 144.414,71.9574 144.914,72.2907 145.5,72.5C 160.018,66.3373 174.351,60.004 188.5,53.5 Z"/></g>
<g><path style="opacity:0.983" fill="#221e1b" d="M 994.5,56.5 C 1003.17,56.3336 1011.84,56.5002 1020.5,57C 1043.08,59.8484 1056.58,72.3484 1061,94.5C 1061.67,119.833 1061.67,145.167 1061,170.5C 1058.55,194.567 1045.39,208.401 1021.5,212C 1012.5,212.667 1003.5,212.667 994.5,212C 975.009,210.502 962.842,200.336 958,181.5C 955.578,157.897 954.911,134.231 956,110.5C 953.976,81.4523 966.809,63.4523 994.5,56.5 Z M 1007.5,83.5 C 1013.79,84.348 1016.29,88.0147 1015,94.5C 1015.87,123.518 1015.54,152.518 1014,181.5C 1011.16,186.329 1007.83,186.663 1004,182.5C 1003.67,180.833 1003.33,179.167 1003,177.5C 1002.33,149.167 1002.33,120.833 1003,92.5C 1002.65,88.4121 1004.15,85.4121 1007.5,83.5 Z"/></g>
<g><path style="opacity:0.98" fill="#221e1b" d="M 1238.5,56.5 C 1250.29,55.9015 1261.96,56.7348 1273.5,59C 1292.74,65.6289 1303.24,79.1289 1305,99.5C 1305.5,112.162 1305.67,124.829 1305.5,137.5C 1285.83,137.5 1266.17,137.5 1246.5,137.5C 1246.33,150.837 1246.5,164.171 1247,177.5C 1247.62,184.39 1251.12,186.557 1257.5,184C 1258.7,183.097 1259.53,181.931 1260,180.5C 1261.38,169.221 1261.88,157.888 1261.5,146.5C 1276.17,146.5 1290.83,146.5 1305.5,146.5C 1310.87,194.633 1289.53,216.466 1241.5,212C 1213.23,207.638 1199.4,191.138 1200,162.5C 1199.33,144.167 1199.33,125.833 1200,107.5C 1198.86,79.5217 1211.69,62.5217 1238.5,56.5 Z M 1251.5,83.5 C 1254.56,83.4443 1256.73,84.7776 1258,87.5C 1259.18,95.7918 1259.68,104.125 1259.5,112.5C 1255.17,112.5 1250.83,112.5 1246.5,112.5C 1246.2,103.781 1246.7,95.1144 1248,86.5C 1249.15,85.3636 1250.31,84.3636 1251.5,83.5 Z"/></g>
<g><path style="opacity:1" fill="#eb7614" d="M 200.5,56.5 C 201.152,57.4486 201.486,58.6153 201.5,60C 200.959,63.8279 200.459,67.6612 200,71.5C 194.439,100.308 189.772,129.308 186,158.5C 167.23,174.119 147.73,188.619 127.5,202C 107.94,217.603 87.9397,232.27 67.5,246C 111.462,182.576 155.796,119.409 200.5,56.5 Z"/></g>
<g><path style="opacity:0.975" fill="#221e1b" d="M 547.5,57.5 C 561.167,57.5 574.833,57.5 588.5,57.5C 590.856,83.8754 593.69,110.209 597,136.5C 600.501,110.489 604.001,84.4891 607.5,58.5C 620.483,57.5009 633.483,57.1675 646.5,57.5C 648.581,82.5611 651.248,107.561 654.5,132.5C 657.274,107.419 660.607,82.419 664.5,57.5C 678.167,57.5 691.833,57.5 705.5,57.5C 699.298,107.481 693.132,157.481 687,207.5C 670.071,209.478 652.905,210.144 635.5,209.5C 633.159,187.437 630.325,165.437 627,143.5C 624.252,165.57 621.085,187.57 617.5,209.5C 600.5,209.5 583.5,209.5 566.5,209.5C 560.331,158.812 553.997,108.146 547.5,57.5 Z"/></g>
<g><path style="opacity:1" fill="#eb7614" d="M 182.5,171.5 C 183.376,171.369 184.043,171.702 184.5,172.5C 181.167,193.167 177.833,213.833 174.5,234.5C 138.527,242.661 102.527,250.495 66.5,258C 104.852,228.444 143.519,199.611 182.5,171.5 Z"/></g>
<g><path style="opacity:0.739" fill="#221e1b" d="M 1009.5,230.5 C 1011.92,230.192 1014.26,230.526 1016.5,231.5C 1013.98,234.188 1011.64,237.021 1009.5,240C 1007.74,240.798 1006.07,240.631 1004.5,239.5C 1005.93,236.312 1007.59,233.312 1009.5,230.5 Z"/></g>
<g><path style="opacity:0.871" fill="#221e1b" d="M 307.5,243.5 C 315.833,243.5 324.167,243.5 332.5,243.5C 332.5,245.167 332.5,246.833 332.5,248.5C 326.167,248.5 319.833,248.5 313.5,248.5C 313.5,253.5 313.5,258.5 313.5,263.5C 319.167,263.5 324.833,263.5 330.5,263.5C 330.5,265.167 330.5,266.833 330.5,268.5C 324.833,268.5 319.167,268.5 313.5,268.5C 313.5,273.833 313.5,279.167 313.5,284.5C 319.833,284.5 326.167,284.5 332.5,284.5C 332.5,286.167 332.5,287.833 332.5,289.5C 324.167,289.5 315.833,289.5 307.5,289.5C 307.5,274.167 307.5,258.833 307.5,243.5 Z"/></g>
<g><path style="opacity:0.833" fill="#221e1b" d="M 339.5,244.5 C 341.895,243.186 344.395,243.186 347,244.5C 349.745,250.325 352.745,255.992 356,261.5C 359,255.833 362,250.167 365,244.5C 367.041,243.577 369.208,243.244 371.5,243.5C 368.375,251.084 364.708,258.418 360.5,265.5C 364.227,273.288 368.227,280.954 372.5,288.5C 370.167,289.833 367.833,289.833 365.5,288.5C 362.079,282.658 358.912,276.658 356,270.5C 352.667,276.5 349.333,282.5 346,288.5C 343.959,289.423 341.792,289.756 339.5,289.5C 342.99,281.315 346.99,273.315 351.5,265.5C 347.726,258.275 343.726,251.275 339.5,244.5 Z"/></g>
<g><path style="opacity:0.856" fill="#221e1b" d="M 384.5,243.5 C 391.284,243.08 397.95,243.58 404.5,245C 408.028,249.128 409.362,253.961 408.5,259.5C 406.5,259.5 404.5,259.5 402.5,259.5C 403.231,255.397 402.231,251.897 399.5,249C 385.004,246.01 380.004,251.843 384.5,266.5C 379.845,282.174 385.179,287.84 400.5,283.5C 402.27,280.807 402.937,277.807 402.5,274.5C 404.5,274.5 406.5,274.5 408.5,274.5C 409.686,280.801 407.686,285.634 402.5,289C 396.167,289.667 389.833,289.667 383.5,289C 382.069,288.535 380.903,287.701 380,286.5C 378.373,273.929 378.04,261.262 379,248.5C 380.73,246.598 382.563,244.931 384.5,243.5 Z"/></g>
<g><path style="opacity:0.871" fill="#221e1b" d="M 417.5,243.5 C 425.833,243.5 434.167,243.5 442.5,243.5C 442.5,245.167 442.5,246.833 442.5,248.5C 436.167,248.5 429.833,248.5 423.5,248.5C 423.5,253.5 423.5,258.5 423.5,263.5C 429.167,263.5 434.833,263.5 440.5,263.5C 440.5,265.167 440.5,266.833 440.5,268.5C 434.833,268.5 429.167,268.5 423.5,268.5C 423.5,273.833 423.5,279.167 423.5,284.5C 429.833,284.5 436.167,284.5 442.5,284.5C 442.5,286.167 442.5,287.833 442.5,289.5C 434.167,289.5 425.833,289.5 417.5,289.5C 417.5,274.167 417.5,258.833 417.5,243.5 Z"/></g>
<g><path style="opacity:0.867" fill="#221e1b" d="M 451.5,243.5 C 453.5,243.5 455.5,243.5 457.5,243.5C 457.5,257.167 457.5,270.833 457.5,284.5C 464.167,284.5 470.833,284.5 477.5,284.5C 477.5,286.167 477.5,287.833 477.5,289.5C 468.833,289.5 460.167,289.5 451.5,289.5C 451.5,274.167 451.5,258.833 451.5,243.5 Z"/></g>
<g><path style="opacity:0.871" fill="#221e1b" d="M 483.5,243.5 C 491.833,243.5 500.167,243.5 508.5,243.5C 508.5,245.167 508.5,246.833 508.5,248.5C 502.167,248.5 495.833,248.5 489.5,248.5C 489.5,253.5 489.5,258.5 489.5,263.5C 495.167,263.5 500.833,263.5 506.5,263.5C 506.5,265.167 506.5,266.833 506.5,268.5C 500.833,268.5 495.167,268.5 489.5,268.5C 489.5,273.833 489.5,279.167 489.5,284.5C 495.833,284.5 502.167,284.5 508.5,284.5C 508.5,286.167 508.5,287.833 508.5,289.5C 500.167,289.5 491.833,289.5 483.5,289.5C 483.5,274.167 483.5,258.833 483.5,243.5 Z"/></g>
<g><path style="opacity:0.838" fill="#221e1b" d="M 517.5,243.5 C 519.792,243.244 521.959,243.577 524,244.5C 530,255.167 536,265.833 542,276.5C 542.5,265.505 542.667,254.505 542.5,243.5C 544.5,243.5 546.5,243.5 548.5,243.5C 548.5,258.833 548.5,274.167 548.5,289.5C 546.396,289.799 544.396,289.466 542.5,288.5C 536.586,277.67 530.419,267.003 524,256.5C 523.5,267.495 523.333,278.495 523.5,289.5C 521.5,289.5 519.5,289.5 517.5,289.5C 517.5,274.167 517.5,258.833 517.5,243.5 Z"/></g>
<g><path style="opacity:0.856" fill="#221e1b" d="M 565.5,243.5 C 572.284,243.08 578.95,243.58 585.5,245C 589.028,249.128 590.362,253.961 589.5,259.5C 587.5,259.5 585.5,259.5 583.5,259.5C 584.231,255.397 583.231,251.897 580.5,249C 566.004,246.01 561.004,251.843 565.5,266.5C 560.845,282.174 566.179,287.84 581.5,283.5C 583.27,280.807 583.937,277.807 583.5,274.5C 585.5,274.5 587.5,274.5 589.5,274.5C 590.686,280.801 588.686,285.634 583.5,289C 577.167,289.667 570.833,289.667 564.5,289C 563.069,288.535 561.903,287.701 561,286.5C 559.373,273.929 559.04,261.262 560,248.5C 561.73,246.598 563.563,244.931 565.5,243.5 Z"/></g>
<g><path style="opacity:0.87" fill="#221e1b" d="M 598.5,243.5 C 600.5,243.5 602.5,243.5 604.5,243.5C 604.5,258.833 604.5,274.167 604.5,289.5C 602.5,289.5 600.5,289.5 598.5,289.5C 598.5,274.167 598.5,258.833 598.5,243.5 Z"/></g>
<g><path style="opacity:0.859" fill="#221e1b" d="M 624.5,243.5 C 627.448,243.223 630.281,243.556 633,244.5C 637.501,259.172 642.001,273.839 646.5,288.5C 644.5,289.833 642.5,289.833 640.5,288.5C 639.091,285.273 638.091,281.94 637.5,278.5C 631.794,278.171 626.128,278.505 620.5,279.5C 619.091,282.727 618.091,286.06 617.5,289.5C 615.5,289.5 613.5,289.5 611.5,289.5C 615.425,274.056 619.759,258.723 624.5,243.5 Z M 628.5,250.5 C 630.812,257.72 633.146,265.054 635.5,272.5C 630.869,273.662 626.202,273.828 621.5,273C 624.133,265.601 626.466,258.101 628.5,250.5 Z"/></g>
<g><path style="opacity:0.871" fill="#221e1b" d="M 671.5,243.5 C 679.833,243.5 688.167,243.5 696.5,243.5C 696.5,245.167 696.5,246.833 696.5,248.5C 690.167,248.5 683.833,248.5 677.5,248.5C 677.5,253.5 677.5,258.5 677.5,263.5C 683.167,263.5 688.833,263.5 694.5,263.5C 694.5,265.167 694.5,266.833 694.5,268.5C 688.833,268.5 683.167,268.5 677.5,268.5C 677.5,273.833 677.5,279.167 677.5,284.5C 683.833,284.5 690.167,284.5 696.5,284.5C 696.5,286.167 696.5,287.833 696.5,289.5C 688.167,289.5 679.833,289.5 671.5,289.5C 671.5,274.167 671.5,258.833 671.5,243.5 Z"/></g>
<g><path style="opacity:0.87" fill="#221e1b" d="M 724.5,243.5 C 726.5,243.5 728.5,243.5 730.5,243.5C 730.5,258.833 730.5,274.167 730.5,289.5C 728.5,289.5 726.5,289.5 724.5,289.5C 724.5,274.167 724.5,258.833 724.5,243.5 Z"/></g>
<g><path style="opacity:0.838" fill="#221e1b" d="M 740.5,243.5 C 742.792,243.244 744.959,243.577 747,244.5C 753,255.167 759,265.833 765,276.5C 765.5,265.505 765.667,254.505 765.5,243.5C 767.5,243.5 769.5,243.5 771.5,243.5C 771.5,258.833 771.5,274.167 771.5,289.5C 769.396,289.799 767.396,289.466 765.5,288.5C 759.586,277.67 753.419,267.003 747,256.5C 746.5,267.495 746.333,278.495 746.5,289.5C 744.5,289.5 742.5,289.5 740.5,289.5C 740.5,274.167 740.5,258.833 740.5,243.5 Z"/></g>
<g><path style="opacity:0.838" fill="#221e1b" d="M 782.5,243.5 C 784.792,243.244 786.959,243.577 789,244.5C 795,255.167 801,265.833 807,276.5C 807.5,265.505 807.667,254.505 807.5,243.5C 809.5,243.5 811.5,243.5 813.5,243.5C 813.5,258.833 813.5,274.167 813.5,289.5C 811.396,289.799 809.396,289.466 807.5,288.5C 801.586,277.67 795.419,267.003 789,256.5C 788.5,267.495 788.333,278.495 788.5,289.5C 786.5,289.5 784.5,289.5 782.5,289.5C 782.5,274.167 782.5,258.833 782.5,243.5 Z"/></g>
<g><path style="opacity:0.864" fill="#221e1b" d="M 829.5,244.5 C 835.509,244.334 841.509,244.501 847.5,245C 849.286,245.785 850.786,246.951 852,248.5C 853.602,260.095 853.935,271.762 853,283.5C 852.261,286.573 850.428,288.74 847.5,290C 841.167,290.667 834.833,290.667 828.5,290C 826.333,289.167 824.833,287.667 824,285.5C 823.333,273.5 823.333,261.5 824,249.5C 825.73,247.598 827.563,245.931 829.5,244.5 Z M 832.5,249.5 C 836.182,249.335 839.848,249.501 843.5,250C 844.931,250.465 846.097,251.299 847,252.5C 847.667,262.5 847.667,272.5 847,282.5C 846.167,283.333 845.333,284.167 844.5,285C 840.167,285.667 835.833,285.667 831.5,285C 831,284.5 830.5,284 830,283.5C 829.333,272.833 829.333,262.167 830,251.5C 830.995,250.934 831.828,250.267 832.5,249.5 Z"/></g>
<g><path style="opacity:0.846" fill="#221e1b" d="M 858.5,244.5 C 860.833,244.5 863.167,244.5 865.5,244.5C 868.051,257.038 871.385,269.371 875.5,281.5C 879.305,269.617 882.805,257.617 886,245.5C 888.041,244.577 890.208,244.244 892.5,244.5C 888.442,259.177 884.275,273.844 880,288.5C 878.82,289.684 877.32,290.351 875.5,290.5C 873.68,290.351 872.18,289.684 871,288.5C 866.829,273.815 862.663,259.148 858.5,244.5 Z"/></g>
<g><path style="opacity:0.859" fill="#221e1b" d="M 908.5,244.5 C 911.448,244.223 914.281,244.556 917,245.5C 921.501,260.172 926.001,274.839 930.5,289.5C 928.5,290.833 926.5,290.833 924.5,289.5C 923.091,286.273 922.091,282.94 921.5,279.5C 915.794,279.171 910.128,279.505 904.5,280.5C 903.091,283.727 902.091,287.06 901.5,290.5C 899.5,290.5 897.5,290.5 895.5,290.5C 899.425,275.056 903.759,259.723 908.5,244.5 Z M 912.5,251.5 C 914.812,258.72 917.146,266.054 919.5,273.5C 914.869,274.662 910.202,274.828 905.5,274C 908.133,266.601 910.466,259.101 912.5,251.5 Z"/></g>
<g><path style="opacity:0.856" fill="#221e1b" d="M 943.5,244.5 C 950.284,244.08 956.95,244.58 963.5,246C 967.028,250.128 968.362,254.961 967.5,260.5C 965.5,260.5 963.5,260.5 961.5,260.5C 962.231,256.397 961.231,252.897 958.5,250C 944.004,247.01 939.004,252.843 943.5,267.5C 938.845,283.174 944.179,288.84 959.5,284.5C 961.27,281.807 961.937,278.807 961.5,275.5C 963.5,275.5 965.5,275.5 967.5,275.5C 968.686,281.801 966.686,286.634 961.5,290C 955.167,290.667 948.833,290.667 942.5,290C 941.069,289.535 939.903,288.701 939,287.5C 937.373,274.929 937.04,262.262 938,249.5C 939.73,247.598 941.563,245.931 943.5,244.5 Z"/></g>
<g><path style="opacity:0.87" fill="#221e1b" d="M 976.5,244.5 C 978.5,244.5 980.5,244.5 982.5,244.5C 982.5,259.833 982.5,275.167 982.5,290.5C 980.5,290.5 978.5,290.5 976.5,290.5C 976.5,275.167 976.5,259.833 976.5,244.5 Z"/></g>
<g><path style="opacity:0.864" fill="#221e1b" d="M 998.5,244.5 C 1004.51,244.334 1010.51,244.501 1016.5,245C 1018.29,245.785 1019.79,246.951 1021,248.5C 1022.6,260.095 1022.94,271.762 1022,283.5C 1021.26,286.573 1019.43,288.74 1016.5,290C 1010.17,290.667 1003.83,290.667 997.5,290C 995.333,289.167 993.833,287.667 993,285.5C 992.333,273.5 992.333,261.5 993,249.5C 994.73,247.598 996.563,245.931 998.5,244.5 Z M 1001.5,249.5 C 1005.18,249.335 1008.85,249.501 1012.5,250C 1013.93,250.465 1015.1,251.299 1016,252.5C 1016.67,262.5 1016.67,272.5 1016,282.5C 1015.17,283.333 1014.33,284.167 1013.5,285C 1009.17,285.667 1004.83,285.667 1000.5,285C 1000,284.5 999.5,284 999,283.5C 998.333,272.833 998.333,262.167 999,251.5C 999.995,250.934 1000.83,250.267 1001.5,249.5 Z"/></g>
<g><path style="opacity:0.838" fill="#221e1b" d="M 1032.5,244.5 C 1034.79,244.244 1036.96,244.577 1039,245.5C 1045,256.167 1051,266.833 1057,277.5C 1057.5,266.505 1057.67,255.505 1057.5,244.5C 1059.5,244.5 1061.5,244.5 1063.5,244.5C 1063.5,259.833 1063.5,275.167 1063.5,290.5C 1061.4,290.799 1059.4,290.466 1057.5,289.5C 1051.59,278.67 1045.42,268.003 1039,257.5C 1038.5,268.495 1038.33,279.495 1038.5,290.5C 1036.5,290.5 1034.5,290.5 1032.5,290.5C 1032.5,275.167 1032.5,259.833 1032.5,244.5 Z"/></g>
<g><path style="opacity:0.498" fill="#8c8a89" d="M 19.5,276.5 C 21.0269,276.427 22.0269,277.094 22.5,278.5C 20.9731,278.573 19.9731,277.906 19.5,276.5 Z"/></g>
<g><path style="opacity:0.862" fill="#221e1b" d="M 1072.5,279.5 C 1074.5,279.5 1076.5,279.5 1078.5,279.5C 1078.5,283.167 1078.5,286.833 1078.5,290.5C 1076.5,290.5 1074.5,290.5 1072.5,290.5C 1072.5,286.833 1072.5,283.167 1072.5,279.5 Z"/></g>
</svg>
