<?xml version="1.0" encoding="UTF-8"?>
<!DOCTYPE svg PUBLIC "-//W3C//DTD SVG 1.1//EN" "http://www.w3.org/Graphics/SVG/1.1/DTD/svg11.dtd">
<svg xmlns="http://www.w3.org/2000/svg" version="1.1" width="1270px" height="1300px" style="shape-rendering:geometricPrecision; text-rendering:geometricPrecision; image-rendering:optimizeQuality; fill-rule:evenodd; clip-rule:evenodd" xmlns:xlink="http://www.w3.org/1999/xlink">
<g><path style="opacity:1" fill="#020202" d="M 1269.5,279.5 C 1269.5,310.5 1269.5,341.5 1269.5,372.5C 1007.48,487.069 766.482,633.902 546.5,813C 478.936,869.051 413.936,928.217 351.5,990.5C 254.999,990.833 158.665,990.499 62.5,989.5C 63.5,987.833 64.8333,986.5 66.5,985.5C 76.7801,976.888 86.4468,967.555 95.5,957.5C 96.8333,955.5 98.5,953.833 100.5,952.5C 106.442,948.227 111.776,943.227 116.5,937.5C 117.167,936.167 118.167,935.167 119.5,934.5C 124.44,931.23 128.773,927.23 132.5,922.5C 132.833,921.5 133.5,920.833 134.5,920.5C 138.1,918.57 141.1,915.903 143.5,912.5C 144.167,911.167 145.167,910.167 146.5,909.5C 150.1,907.57 153.1,904.903 155.5,901.5C 155.5,900.833 155.833,900.5 156.5,900.5C 159.764,898.906 162.431,896.573 164.5,893.5C 164.5,892.833 164.833,892.5 165.5,892.5C 168.764,890.906 171.431,888.573 173.5,885.5C 173.5,884.833 173.833,884.5 174.5,884.5C 177.427,883.243 179.761,881.243 181.5,878.5C 181.5,877.833 181.833,877.5 182.5,877.5C 185.427,876.243 187.761,874.243 189.5,871.5C 189.5,870.833 189.833,870.5 190.5,870.5C 193.089,869.581 195.089,867.914 196.5,865.5C 196.5,864.833 196.833,864.5 197.5,864.5C 200.089,863.581 202.089,861.914 203.5,859.5C 203.5,858.833 203.833,858.5 204.5,858.5C 207.089,857.581 209.089,855.914 210.5,853.5C 213.089,852.581 215.089,850.914 216.5,848.5C 216.5,847.833 216.833,847.5 217.5,847.5C 219.749,846.92 221.415,845.587 222.5,843.5C 222.5,842.833 222.833,842.5 223.5,842.5C 225.749,841.92 227.415,840.587 228.5,838.5C 228.5,837.833 228.833,837.5 229.5,837.5C 231.749,836.92 233.415,835.587 234.5,833.5C 236.749,832.92 238.415,831.587 239.5,829.5C 239.5,828.833 239.833,828.5 240.5,828.5C 242.749,827.92 244.415,826.587 245.5,824.5C 247.749,823.92 249.415,822.587 250.5,820.5C 252.749,819.92 254.415,818.587 255.5,816.5C 257.749,815.92 259.415,814.587 260.5,812.5C 261.891,810.11 263.891,808.443 266.5,807.5C 268.404,807.262 269.738,806.262 270.5,804.5C 272.749,803.92 274.415,802.587 275.5,800.5C 278.208,797.791 281.208,795.458 284.5,793.5C 286.749,792.92 288.415,791.587 289.5,789.5C 292.19,786.815 295.19,784.482 298.5,782.5C 300.404,782.262 301.738,781.262 302.5,779.5C 308.922,773.45 315.922,768.117 323.5,763.5C 325.404,763.262 326.738,762.262 327.5,760.5C 333.291,755.104 339.624,750.437 346.5,746.5C 348.404,746.262 349.738,745.262 350.5,743.5C 351.436,742.026 352.77,741.026 354.5,740.5C 356.027,740.573 357.027,739.906 357.5,738.5C 359.404,738.262 360.738,737.262 361.5,735.5C 362.436,734.026 363.77,733.026 365.5,732.5C 367.027,732.573 368.027,731.906 368.5,730.5C 369.436,729.026 370.77,728.026 372.5,727.5C 374.027,727.573 375.027,726.906 375.5,725.5C 376.436,724.026 377.77,723.026 379.5,722.5C 381.027,722.573 382.027,721.906 382.5,720.5C 383.436,719.026 384.77,718.026 386.5,717.5C 388.027,717.573 389.027,716.906 389.5,715.5C 391.531,713.478 393.865,711.811 396.5,710.5C 398.027,710.573 399.027,709.906 399.5,708.5C 401.027,708.573 402.027,707.906 402.5,706.5C 404.531,704.478 406.865,702.811 409.5,701.5C 411.027,701.573 412.027,700.906 412.5,699.5C 415.446,696.687 418.779,694.354 422.5,692.5C 424.027,692.573 425.027,691.906 425.5,690.5C 427.027,690.573 428.027,689.906 428.5,688.5C 430.027,688.573 431.027,687.906 431.5,686.5C 433.027,686.573 434.027,685.906 434.5,684.5C 446.148,676.007 458.148,668.007 470.5,660.5C 472.027,660.573 473.027,659.906 473.5,658.5C 475.027,658.573 476.027,657.906 476.5,656.5C 479.894,653.779 483.561,651.446 487.5,649.5C 489.027,649.573 490.027,648.906 490.5,647.5C 492.027,647.573 493.027,646.906 493.5,645.5C 495.822,643.336 498.489,641.669 501.5,640.5C 503.027,640.573 504.027,639.906 504.5,638.5C 506.822,636.336 509.489,634.669 512.5,633.5C 514.027,633.573 515.027,632.906 515.5,631.5C 516.899,630.11 518.566,629.11 520.5,628.5C 522.027,628.573 523.027,627.906 523.5,626.5C 524.899,625.11 526.566,624.11 528.5,623.5C 530.027,623.573 531.027,622.906 531.5,621.5C 534.494,619 537.827,617 541.5,615.5C 543.027,615.573 544.027,614.906 544.5,613.5C 547.494,611 550.827,609 554.5,607.5C 556.027,607.573 557.027,606.906 557.5,605.5C 557.842,604.662 558.508,604.328 559.5,604.5C 561.027,604.573 562.027,603.906 562.5,602.5C 562.842,601.662 563.508,601.328 564.5,601.5C 566.027,601.573 567.027,600.906 567.5,599.5C 567.842,598.662 568.508,598.328 569.5,598.5C 571.027,598.573 572.027,597.906 572.5,596.5C 572.842,595.662 573.508,595.328 574.5,595.5C 576.027,595.573 577.027,594.906 577.5,593.5C 577.842,592.662 578.508,592.328 579.5,592.5C 581.027,592.573 582.027,591.906 582.5,590.5C 582.842,589.662 583.508,589.328 584.5,589.5C 586.027,589.573 587.027,588.906 587.5,587.5C 590.24,585.44 593.24,583.774 596.5,582.5C 598.027,582.573 599.027,581.906 599.5,580.5C 602.24,578.44 605.24,576.774 608.5,575.5C 610.027,575.573 611.027,574.906 611.5,573.5C 614.24,571.44 617.24,569.774 620.5,568.5C 622.027,568.573 623.027,567.906 623.5,566.5C 624.514,565.326 625.847,564.66 627.5,564.5C 629.027,564.573 630.027,563.906 630.5,562.5C 639.677,556.409 649.343,551.076 659.5,546.5C 661.027,546.573 662.027,545.906 662.5,544.5C 664.181,542.992 666.181,541.992 668.5,541.5C 670.027,541.573 671.027,540.906 671.5,539.5C 673.181,537.992 675.181,536.992 677.5,536.5C 679.027,536.573 680.027,535.906 680.5,534.5C 682.849,532.659 685.515,531.326 688.5,530.5C 690.027,530.573 691.027,529.906 691.5,528.5C 694.515,526.326 697.849,524.659 701.5,523.5C 703.027,523.573 704.027,522.906 704.5,521.5C 714.355,515.405 724.688,510.071 735.5,505.5C 737.027,505.573 738.027,504.906 738.5,503.5C 746.849,498.659 755.516,494.325 764.5,490.5C 766.027,490.573 767.027,489.906 767.5,488.5C 898.147,421.676 1032.48,363.343 1170.5,313.5C 1172.7,313.88 1174.36,313.213 1175.5,311.5C 1177.42,310.637 1179.42,309.971 1181.5,309.5C 1183.7,309.88 1185.36,309.213 1186.5,307.5C 1209.34,299.107 1232.34,291.107 1255.5,283.5C 1257.9,283.741 1259.9,283.074 1261.5,281.5C 1264.34,281.44 1267.01,280.774 1269.5,279.5 Z"/></g>
<g><path style="opacity:0.945" fill="#616161" d="M 1269.5,278.5 C 1269.5,278.833 1269.5,279.167 1269.5,279.5C 1267.01,280.774 1264.34,281.44 1261.5,281.5C 1263.94,280.129 1266.6,279.129 1269.5,278.5 Z"/></g>
<g><path style="opacity:0.91" fill="#797979" d="M 1261.5,281.5 C 1259.9,283.074 1257.9,283.741 1255.5,283.5C 1257.21,282.262 1259.21,281.595 1261.5,281.5 Z"/></g>
<g><path style="opacity:0.949" fill="#757575" d="M 1186.5,307.5 C 1185.36,309.213 1183.7,309.88 1181.5,309.5C 1182.93,308.463 1184.6,307.796 1186.5,307.5 Z"/></g>
<g><path style="opacity:0.949" fill="#757575" d="M 1175.5,311.5 C 1174.36,313.213 1172.7,313.88 1170.5,313.5C 1171.93,312.463 1173.6,311.796 1175.5,311.5 Z"/></g>
<g><path style="opacity:0.933" fill="#141414" d="M 367.5,393.5 C 272.833,393.333 178.166,393.5 83.5,394C 84.3805,394.708 85.0472,395.542 85.5,396.5C 83.4048,395.588 81.4048,394.421 79.5,393C 175.668,392.168 271.668,392.334 367.5,393.5 Z"/></g>
<g><path style="opacity:1" fill="#020202" d="M 367.5,393.5 C 436.127,441.824 504.46,490.657 572.5,540C 519.493,571.833 467.16,604.666 415.5,638.5C 414.893,638.376 414.56,638.043 414.5,637.5C 413.738,635.738 412.404,634.738 410.5,634.5C 403.624,630.563 397.291,625.896 391.5,620.5C 391.027,619.094 390.027,618.427 388.5,618.5C 387.738,616.738 386.404,615.738 384.5,615.5C 381.467,613.984 378.8,611.984 376.5,609.5C 376.027,608.094 375.027,607.427 373.5,607.5C 372.738,605.738 371.404,604.738 369.5,604.5C 366.467,602.984 363.8,600.984 361.5,598.5C 361.027,597.094 360.027,596.427 358.5,596.5C 357.738,594.738 356.404,593.738 354.5,593.5C 351.467,591.984 348.8,589.984 346.5,587.5C 346.027,586.094 345.027,585.427 343.5,585.5C 342.738,583.738 341.404,582.738 339.5,582.5C 335.293,580.565 331.627,577.898 328.5,574.5C 327.738,572.738 326.404,571.738 324.5,571.5C 320.293,569.565 316.627,566.898 313.5,563.5C 312.738,561.738 311.404,560.738 309.5,560.5C 307.596,560.262 306.262,559.262 305.5,557.5C 305.027,556.094 304.027,555.427 302.5,555.5C 301.738,553.738 300.404,552.738 298.5,552.5C 295.467,550.984 292.8,548.984 290.5,546.5C 290.027,545.094 289.027,544.427 287.5,544.5C 286.738,542.738 285.404,541.738 283.5,541.5C 280.467,539.984 277.8,537.984 275.5,535.5C 275.027,534.094 274.027,533.427 272.5,533.5C 271.738,531.738 270.404,530.738 268.5,530.5C 265.467,528.984 262.8,526.984 260.5,524.5C 260.027,523.094 259.027,522.427 257.5,522.5C 256.738,520.738 255.404,519.738 253.5,519.5C 250.467,517.984 247.8,515.984 245.5,513.5C 245.027,512.094 244.027,511.427 242.5,511.5C 241.738,509.738 240.404,508.738 238.5,508.5C 234.293,506.565 230.627,503.898 227.5,500.5C 226.738,498.738 225.404,497.738 223.5,497.5C 221.596,497.262 220.262,496.262 219.5,494.5C 219.027,493.094 218.027,492.427 216.5,492.5C 215.738,490.738 214.404,489.738 212.5,489.5C 209.467,487.984 206.8,485.984 204.5,483.5C 204.027,482.094 203.027,481.427 201.5,481.5C 200.738,479.738 199.404,478.738 197.5,478.5C 194.467,476.984 191.8,474.984 189.5,472.5C 189.027,471.094 188.027,470.427 186.5,470.5C 185.738,468.738 184.404,467.738 182.5,467.5C 179.467,465.984 176.8,463.984 174.5,461.5C 174.027,460.094 173.027,459.427 171.5,459.5C 170.738,457.738 169.404,456.738 167.5,456.5C 164.467,454.984 161.8,452.984 159.5,450.5C 159.027,449.094 158.027,448.427 156.5,448.5C 155.738,446.738 154.404,445.738 152.5,445.5C 148.293,443.565 144.627,440.898 141.5,437.5C 140.738,435.738 139.404,434.738 137.5,434.5C 130.624,430.563 124.291,425.896 118.5,420.5C 118.027,419.094 117.027,418.427 115.5,418.5C 114.738,416.738 113.404,415.738 111.5,415.5C 108.467,413.984 105.8,411.984 103.5,409.5C 103.027,408.094 102.027,407.427 100.5,407.5C 99.7377,405.738 98.4044,404.738 96.5,404.5C 93.4669,402.984 90.8003,400.984 88.5,398.5C 88.0269,397.094 87.0269,396.427 85.5,396.5C 85.0472,395.542 84.3805,394.708 83.5,394C 178.166,393.5 272.833,393.333 367.5,393.5 Z"/></g>
<g><path style="opacity:0.651" fill="#777777" d="M 85.5,396.5 C 87.0269,396.427 88.0269,397.094 88.5,398.5C 86.9731,398.573 85.9731,397.906 85.5,396.5 Z"/></g>
<g><path style="opacity:0.706" fill="#7c7c7c" d="M 96.5,404.5 C 98.4044,404.738 99.7377,405.738 100.5,407.5C 98.5956,407.262 97.2623,406.262 96.5,404.5 Z"/></g>
<g><path style="opacity:0.643" fill="#787878" d="M 100.5,407.5 C 102.027,407.427 103.027,408.094 103.5,409.5C 101.973,409.573 100.973,408.906 100.5,407.5 Z"/></g>
<g><path style="opacity:0.702" fill="#7d7d7d" d="M 111.5,415.5 C 113.404,415.738 114.738,416.738 115.5,418.5C 113.596,418.262 112.262,417.262 111.5,415.5 Z"/></g>
<g><path style="opacity:0.639" fill="#797979" d="M 115.5,418.5 C 117.027,418.427 118.027,419.094 118.5,420.5C 116.973,420.573 115.973,419.906 115.5,418.5 Z"/></g>
<g><path style="opacity:0.906" fill="#777777" d="M 137.5,434.5 C 139.404,434.738 140.738,435.738 141.5,437.5C 139.596,437.262 138.262,436.262 137.5,434.5 Z"/></g>
<g><path style="opacity:0.906" fill="#787878" d="M 152.5,445.5 C 154.404,445.738 155.738,446.738 156.5,448.5C 154.596,448.262 153.262,447.262 152.5,445.5 Z"/></g>
<g><path style="opacity:0.655" fill="#767676" d="M 156.5,448.5 C 158.027,448.427 159.027,449.094 159.5,450.5C 157.973,450.573 156.973,449.906 156.5,448.5 Z"/></g>
<g><path style="opacity:0.902" fill="#797979" d="M 167.5,456.5 C 169.404,456.738 170.738,457.738 171.5,459.5C 169.596,459.262 168.262,458.262 167.5,456.5 Z"/></g>
<g><path style="opacity:0.651" fill="#777777" d="M 171.5,459.5 C 173.027,459.427 174.027,460.094 174.5,461.5C 172.973,461.573 171.973,460.906 171.5,459.5 Z"/></g>
<g><path style="opacity:0.898" fill="#797979" d="M 182.5,467.5 C 184.404,467.738 185.738,468.738 186.5,470.5C 184.596,470.262 183.262,469.262 182.5,467.5 Z"/></g>
<g><path style="opacity:0.643" fill="#787878" d="M 186.5,470.5 C 188.027,470.427 189.027,471.094 189.5,472.5C 187.973,472.573 186.973,471.906 186.5,470.5 Z"/></g>
<g><path style="opacity:0.702" fill="#7d7d7d" d="M 197.5,478.5 C 199.404,478.738 200.738,479.738 201.5,481.5C 199.596,481.262 198.262,480.262 197.5,478.5 Z"/></g>
<g><path style="opacity:0.639" fill="#797979" d="M 201.5,481.5 C 203.027,481.427 204.027,482.094 204.5,483.5C 202.973,483.573 201.973,482.906 201.5,481.5 Z"/></g>
<g><path style="opacity:0.804" fill="#7f7f7f" d="M 767.5,488.5 C 767.027,489.906 766.027,490.573 764.5,490.5C 764.973,489.094 765.973,488.427 767.5,488.5 Z"/></g>
<g><path style="opacity:0.698" fill="#7d7d7d" d="M 212.5,489.5 C 214.404,489.738 215.738,490.738 216.5,492.5C 214.596,492.262 213.262,491.262 212.5,489.5 Z"/></g>
<g><path style="opacity:0.569" fill="#848484" d="M 216.5,492.5 C 218.027,492.427 219.027,493.094 219.5,494.5C 217.973,494.573 216.973,493.906 216.5,492.5 Z"/></g>
<g><path style="opacity:0.906" fill="#777777" d="M 223.5,497.5 C 225.404,497.738 226.738,498.738 227.5,500.5C 225.596,500.262 224.262,499.262 223.5,497.5 Z"/></g>
<g><path style="opacity:0.824" fill="#787878" d="M 738.5,503.5 C 738.027,504.906 737.027,505.573 735.5,505.5C 735.973,504.094 736.973,503.427 738.5,503.5 Z"/></g>
<g><path style="opacity:0.906" fill="#787878" d="M 238.5,508.5 C 240.404,508.738 241.738,509.738 242.5,511.5C 240.596,511.262 239.262,510.262 238.5,508.5 Z"/></g>
<g><path style="opacity:0.655" fill="#757575" d="M 242.5,511.5 C 244.027,511.427 245.027,512.094 245.5,513.5C 243.973,513.573 242.973,512.906 242.5,511.5 Z"/></g>
<g><path style="opacity:0.902" fill="#797979" d="M 253.5,519.5 C 255.404,519.738 256.738,520.738 257.5,522.5C 255.596,522.262 254.262,521.262 253.5,519.5 Z"/></g>
<g><path style="opacity:0.8" fill="#7e7e7e" d="M 704.5,521.5 C 704.027,522.906 703.027,523.573 701.5,523.5C 701.973,522.094 702.973,521.427 704.5,521.5 Z"/></g>
<g><path style="opacity:0.651" fill="#777777" d="M 257.5,522.5 C 259.027,522.427 260.027,523.094 260.5,524.5C 258.973,524.573 257.973,523.906 257.5,522.5 Z"/></g>
<g><path style="opacity:0.804" fill="#7d7d7d" d="M 691.5,528.5 C 691.027,529.906 690.027,530.573 688.5,530.5C 688.973,529.094 689.973,528.427 691.5,528.5 Z"/></g>
<g><path style="opacity:0.898" fill="#797979" d="M 268.5,530.5 C 270.404,530.738 271.738,531.738 272.5,533.5C 270.596,533.262 269.262,532.262 268.5,530.5 Z"/></g>
<g><path style="opacity:0.647" fill="#777777" d="M 272.5,533.5 C 274.027,533.427 275.027,534.094 275.5,535.5C 273.973,535.573 272.973,534.906 272.5,533.5 Z"/></g>
<g><path style="opacity:0.773" fill="#848484" d="M 680.5,534.5 C 680.027,535.906 679.027,536.573 677.5,536.5C 677.973,535.094 678.973,534.427 680.5,534.5 Z"/></g>
<g><path style="opacity:0.808" fill="#7a7a7a" d="M 671.5,539.5 C 671.027,540.906 670.027,541.573 668.5,541.5C 668.973,540.094 669.973,539.427 671.5,539.5 Z"/></g>
<g><path style="opacity:0.894" fill="#7a7a7a" d="M 283.5,541.5 C 285.404,541.738 286.738,542.738 287.5,544.5C 285.596,544.262 284.262,543.262 283.5,541.5 Z"/></g>
<g><path style="opacity:0.639" fill="#797979" d="M 287.5,544.5 C 289.027,544.427 290.027,545.094 290.5,546.5C 288.973,546.573 287.973,545.906 287.5,544.5 Z"/></g>
<g><path style="opacity:0.82" fill="#797979" d="M 662.5,544.5 C 662.027,545.906 661.027,546.573 659.5,546.5C 659.973,545.094 660.973,544.427 662.5,544.5 Z"/></g>
<g><path style="opacity:0.698" fill="#7d7d7d" d="M 298.5,552.5 C 300.404,552.738 301.738,553.738 302.5,555.5C 300.596,555.262 299.262,554.262 298.5,552.5 Z"/></g>
<g><path style="opacity:0.635" fill="#7a7a7a" d="M 302.5,555.5 C 304.027,555.427 305.027,556.094 305.5,557.5C 303.973,557.573 302.973,556.906 302.5,555.5 Z"/></g>
<g><path style="opacity:0.91" fill="#777777" d="M 309.5,560.5 C 311.404,560.738 312.738,561.738 313.5,563.5C 311.596,563.262 310.262,562.262 309.5,560.5 Z"/></g>
<g><path style="opacity:0.788" fill="#818181" d="M 630.5,562.5 C 630.027,563.906 629.027,564.573 627.5,564.5C 627.973,563.094 628.973,562.427 630.5,562.5 Z"/></g>
<g><path style="opacity:0.78" fill="#818181" d="M 623.5,566.5 C 623.027,567.906 622.027,568.573 620.5,568.5C 620.973,567.094 621.973,566.427 623.5,566.5 Z"/></g>
<g><path style="opacity:0.906" fill="#787878" d="M 324.5,571.5 C 326.404,571.738 327.738,572.738 328.5,574.5C 326.596,574.262 325.262,573.262 324.5,571.5 Z"/></g>
<g><path style="opacity:0.824" fill="#777777" d="M 611.5,573.5 C 611.027,574.906 610.027,575.573 608.5,575.5C 608.973,574.094 609.973,573.427 611.5,573.5 Z"/></g>
<g><path style="opacity:0.82" fill="#787878" d="M 599.5,580.5 C 599.027,581.906 598.027,582.573 596.5,582.5C 596.973,581.094 597.973,580.427 599.5,580.5 Z"/></g>
<g><path style="opacity:0.902" fill="#787878" d="M 339.5,582.5 C 341.404,582.738 342.738,583.738 343.5,585.5C 341.596,585.262 340.262,584.262 339.5,582.5 Z"/></g>
<g><path style="opacity:0.651" fill="#777777" d="M 343.5,585.5 C 345.027,585.427 346.027,586.094 346.5,587.5C 344.973,587.573 343.973,586.906 343.5,585.5 Z"/></g>
<g><path style="opacity:0.8" fill="#7c7c7c" d="M 587.5,587.5 C 587.027,588.906 586.027,589.573 584.5,589.5C 584.973,588.094 585.973,587.427 587.5,587.5 Z"/></g>
<g><path style="opacity:0.784" fill="#818181" d="M 582.5,590.5 C 582.027,591.906 581.027,592.573 579.5,592.5C 579.973,591.094 580.973,590.427 582.5,590.5 Z"/></g>
<g><path style="opacity:0.898" fill="#797979" d="M 354.5,593.5 C 356.404,593.738 357.738,594.738 358.5,596.5C 356.596,596.262 355.262,595.262 354.5,593.5 Z"/></g>
<g><path style="opacity:0.784" fill="#818181" d="M 577.5,593.5 C 577.027,594.906 576.027,595.573 574.5,595.5C 574.973,594.094 575.973,593.427 577.5,593.5 Z"/></g>
<g><path style="opacity:0.647" fill="#777777" d="M 358.5,596.5 C 360.027,596.427 361.027,597.094 361.5,598.5C 359.973,598.573 358.973,597.906 358.5,596.5 Z"/></g>
<g><path style="opacity:0.784" fill="#818181" d="M 572.5,596.5 C 572.027,597.906 571.027,598.573 569.5,598.5C 569.973,597.094 570.973,596.427 572.5,596.5 Z"/></g>
<g><path style="opacity:0.788" fill="#808080" d="M 567.5,599.5 C 567.027,600.906 566.027,601.573 564.5,601.5C 564.973,600.094 565.973,599.427 567.5,599.5 Z"/></g>
<g><path style="opacity:0.788" fill="#808080" d="M 562.5,602.5 C 562.027,603.906 561.027,604.573 559.5,604.5C 559.973,603.094 560.973,602.427 562.5,602.5 Z"/></g>
<g><path style="opacity:0.706" fill="#7c7c7c" d="M 369.5,604.5 C 371.404,604.738 372.738,605.738 373.5,607.5C 371.596,607.262 370.262,606.262 369.5,604.5 Z"/></g>
<g><path style="opacity:0.784" fill="#7f7f7f" d="M 557.5,605.5 C 557.027,606.906 556.027,607.573 554.5,607.5C 554.973,606.094 555.973,605.427 557.5,605.5 Z"/></g>
<g><path style="opacity:0.639" fill="#797979" d="M 373.5,607.5 C 375.027,607.427 376.027,608.094 376.5,609.5C 374.973,609.573 373.973,608.906 373.5,607.5 Z"/></g>
<g><path style="opacity:0.796" fill="#808080" d="M 544.5,613.5 C 544.027,614.906 543.027,615.573 541.5,615.5C 541.973,614.094 542.973,613.427 544.5,613.5 Z"/></g>
<g><path style="opacity:0.702" fill="#7d7d7d" d="M 384.5,615.5 C 386.404,615.738 387.738,616.738 388.5,618.5C 386.596,618.262 385.262,617.262 384.5,615.5 Z"/></g>
<g><path style="opacity:0.635" fill="#797979" d="M 388.5,618.5 C 390.027,618.427 391.027,619.094 391.5,620.5C 389.973,620.573 388.973,619.906 388.5,618.5 Z"/></g>
<g><path style="opacity:0.78" fill="#828282" d="M 531.5,621.5 C 531.027,622.906 530.027,623.573 528.5,623.5C 528.973,622.094 529.973,621.427 531.5,621.5 Z"/></g>
<g><path style="opacity:0.788" fill="#808080" d="M 523.5,626.5 C 523.027,627.906 522.027,628.573 520.5,628.5C 520.973,627.094 521.973,626.427 523.5,626.5 Z"/></g>
<g><path style="opacity:0.733" fill="#8b8b8b" d="M 515.5,631.5 C 515.027,632.906 514.027,633.573 512.5,633.5C 512.973,632.094 513.973,631.427 515.5,631.5 Z"/></g>
<g><path style="opacity:0.906" fill="#787878" d="M 410.5,634.5 C 412.404,634.738 413.738,635.738 414.5,637.5C 412.596,637.262 411.262,636.262 410.5,634.5 Z"/></g>
<g><path style="opacity:0.788" fill="#808080" d="M 504.5,638.5 C 504.027,639.906 503.027,640.573 501.5,640.5C 501.973,639.094 502.973,638.427 504.5,638.5 Z"/></g>
<g><path style="opacity:0.745" fill="#888888" d="M 493.5,645.5 C 493.027,646.906 492.027,647.573 490.5,647.5C 490.973,646.094 491.973,645.427 493.5,645.5 Z"/></g>
<g><path style="opacity:0.796" fill="#7d7d7d" d="M 490.5,647.5 C 490.027,648.906 489.027,649.573 487.5,649.5C 487.973,648.094 488.973,647.427 490.5,647.5 Z"/></g>
<g><path style="opacity:0.749" fill="#878787" d="M 476.5,656.5 C 476.027,657.906 475.027,658.573 473.5,658.5C 473.973,657.094 474.973,656.427 476.5,656.5 Z"/></g>
<g><path style="opacity:0.82" fill="#777777" d="M 473.5,658.5 C 473.027,659.906 472.027,660.573 470.5,660.5C 470.973,659.094 471.973,658.427 473.5,658.5 Z"/></g>
<g><path style="opacity:0.804" fill="#7a7a7a" d="M 434.5,684.5 C 434.027,685.906 433.027,686.573 431.5,686.5C 431.973,685.094 432.973,684.427 434.5,684.5 Z"/></g>
<g><path style="opacity:0.765" fill="#818181" d="M 431.5,686.5 C 431.027,687.906 430.027,688.573 428.5,688.5C 428.973,687.094 429.973,686.427 431.5,686.5 Z"/></g>
<g><path style="opacity:0.749" fill="#888888" d="M 428.5,688.5 C 428.027,689.906 427.027,690.573 425.5,690.5C 425.973,689.094 426.973,688.427 428.5,688.5 Z"/></g>
<g><path style="opacity:0.702" fill="#8f8f8f" d="M 425.5,690.5 C 425.027,691.906 424.027,692.573 422.5,692.5C 422.973,691.094 423.973,690.427 425.5,690.5 Z"/></g>
<g><path style="opacity:0.843" fill="#8e8e8e" d="M 780.5,700.5 C 779.167,700.5 777.833,700.5 776.5,700.5C 777.833,697.833 779.167,697.833 780.5,700.5 Z"/></g>
<g><path style="opacity:0.761" fill="#828282" d="M 412.5,699.5 C 412.027,700.906 411.027,701.573 409.5,701.5C 409.973,700.094 410.973,699.427 412.5,699.5 Z"/></g>
<g><path style="opacity:1" fill="#020202" d="M 776.5,700.5 C 777.833,700.5 779.167,700.5 780.5,700.5C 911.049,796.268 1041.38,892.268 1171.5,988.5C 1077.17,990.498 982.506,991.164 887.5,990.5C 881.959,987.564 876.959,983.897 872.5,979.5C 872.027,978.094 871.027,977.427 869.5,977.5C 868.738,975.738 867.404,974.738 865.5,974.5C 863.596,974.262 862.262,973.262 861.5,971.5C 861.027,970.094 860.027,969.427 858.5,969.5C 857.738,967.738 856.404,966.738 854.5,966.5C 847.624,962.563 841.291,957.896 835.5,952.5C 835.027,951.094 834.027,950.427 832.5,950.5C 831.738,948.738 830.404,947.738 828.5,947.5C 826.596,947.262 825.262,946.262 824.5,944.5C 824.027,943.094 823.027,942.427 821.5,942.5C 820.738,940.738 819.404,939.738 817.5,939.5C 815.596,939.262 814.262,938.262 813.5,936.5C 813.027,935.094 812.027,934.427 810.5,934.5C 809.738,932.738 808.404,931.738 806.5,931.5C 803.467,929.984 800.8,927.984 798.5,925.5C 798.027,924.094 797.027,923.427 795.5,923.5C 794.738,921.738 793.404,920.738 791.5,920.5C 789.596,920.262 788.262,919.262 787.5,917.5C 787.027,916.094 786.027,915.427 784.5,915.5C 783.738,913.738 782.404,912.738 780.5,912.5C 778.596,912.262 777.262,911.262 776.5,909.5C 776.027,908.094 775.027,907.427 773.5,907.5C 772.738,905.738 771.404,904.738 769.5,904.5C 762.624,900.563 756.291,895.896 750.5,890.5C 750.027,889.094 749.027,888.427 747.5,888.5C 746.738,886.738 745.404,885.738 743.5,885.5C 741.596,885.262 740.262,884.262 739.5,882.5C 739.027,881.094 738.027,880.427 736.5,880.5C 735.738,878.738 734.404,877.738 732.5,877.5C 725.624,873.563 719.291,868.896 713.5,863.5C 713.027,862.094 712.027,861.427 710.5,861.5C 709.738,859.738 708.404,858.738 706.5,858.5C 704.596,858.262 703.262,857.262 702.5,855.5C 702.027,854.094 701.027,853.427 699.5,853.5C 698.738,851.738 697.404,850.738 695.5,850.5C 693.596,850.262 692.262,849.262 691.5,847.5C 691.027,846.094 690.027,845.427 688.5,845.5C 687.738,843.738 686.404,842.738 684.5,842.5C 677.624,838.563 671.291,833.896 665.5,828.5C 665.027,827.094 664.027,826.427 662.5,826.5C 661.738,824.738 660.404,823.738 658.5,823.5C 656.596,823.262 655.262,822.262 654.5,820.5C 654.027,819.094 653.027,818.427 651.5,818.5C 650.738,816.738 649.404,815.738 647.5,815.5C 643.293,813.565 639.627,810.898 636.5,807.5C 635.89,806.609 635.557,805.609 635.5,804.5C 636.436,803.026 637.77,802.026 639.5,801.5C 641.404,801.262 642.738,800.262 643.5,798.5C 647.568,794.101 652.235,790.435 657.5,787.5C 659.404,787.262 660.738,786.262 661.5,784.5C 663.8,782.016 666.467,780.016 669.5,778.5C 671.749,777.92 673.415,776.587 674.5,774.5C 676.404,774.262 677.738,773.262 678.5,771.5C 680.404,771.262 681.738,770.262 682.5,768.5C 687.467,764.016 692.8,760.016 698.5,756.5C 700.404,756.262 701.738,755.262 702.5,753.5C 704.404,753.262 705.738,752.262 706.5,750.5C 708.404,750.262 709.738,749.262 710.5,747.5C 713.627,744.102 717.293,741.435 721.5,739.5C 723.404,739.262 724.738,738.262 725.5,736.5C 726.436,735.026 727.77,734.026 729.5,733.5C 731.027,733.573 732.027,732.906 732.5,731.5C 733.436,730.026 734.77,729.026 736.5,728.5C 738.027,728.573 739.027,727.906 739.5,726.5C 740.436,725.026 741.77,724.026 743.5,723.5C 745.027,723.573 746.027,722.906 746.5,721.5C 747.436,720.026 748.77,719.026 750.5,718.5C 752.027,718.573 753.027,717.906 753.5,716.5C 753.973,715.094 754.973,714.427 756.5,714.5C 758.404,714.262 759.738,713.262 760.5,711.5C 762.027,711.573 763.027,710.906 763.5,709.5C 765.531,707.478 767.865,705.811 770.5,704.5C 772.027,704.573 773.027,703.906 773.5,702.5C 775.027,702.573 776.027,701.906 776.5,700.5 Z"/></g>
<g><path style="opacity:0.769" fill="#818181" d="M 776.5,700.5 C 776.027,701.906 775.027,702.573 773.5,702.5C 773.973,701.094 774.973,700.427 776.5,700.5 Z"/></g>
<g><path style="opacity:0.706" fill="#8f8f8f" d="M 773.5,702.5 C 773.027,703.906 772.027,704.573 770.5,704.5C 770.973,703.094 771.973,702.427 773.5,702.5 Z"/></g>
<g><path style="opacity:0.812" fill="#757575" d="M 402.5,706.5 C 402.027,707.906 401.027,708.573 399.5,708.5C 399.973,707.094 400.973,706.427 402.5,706.5 Z"/></g>
<g><path style="opacity:0.757" fill="#858585" d="M 399.5,708.5 C 399.027,709.906 398.027,710.573 396.5,710.5C 396.973,709.094 397.973,708.427 399.5,708.5 Z"/></g>
<g><path style="opacity:0.796" fill="#7c7c7c" d="M 763.5,709.5 C 763.027,710.906 762.027,711.573 760.5,711.5C 760.973,710.094 761.973,709.427 763.5,709.5 Z"/></g>
<g><path style="opacity:0.702" fill="#7c7c7c" d="M 760.5,711.5 C 759.738,713.262 758.404,714.262 756.5,714.5C 757.262,712.738 758.596,711.738 760.5,711.5 Z"/></g>
<g><path style="opacity:0.714" fill="#8c8c8c" d="M 389.5,715.5 C 389.027,716.906 388.027,717.573 386.5,717.5C 386.973,716.094 387.973,715.427 389.5,715.5 Z"/></g>
<g><path style="opacity:0.753" fill="#868686" d="M 753.5,716.5 C 753.027,717.906 752.027,718.573 750.5,718.5C 750.973,717.094 751.973,716.427 753.5,716.5 Z"/></g>
<g><path style="opacity:0.757" fill="#858585" d="M 382.5,720.5 C 382.027,721.906 381.027,722.573 379.5,722.5C 379.973,721.094 380.973,720.427 382.5,720.5 Z"/></g>
<g><path style="opacity:0.8" fill="#7a7a7a" d="M 746.5,721.5 C 746.027,722.906 745.027,723.573 743.5,723.5C 743.973,722.094 744.973,721.427 746.5,721.5 Z"/></g>
<g><path style="opacity:0.788" fill="#7c7c7c" d="M 375.5,725.5 C 375.027,726.906 374.027,727.573 372.5,727.5C 372.973,726.094 373.973,725.427 375.5,725.5 Z"/></g>
<g><path style="opacity:0.773" fill="#7f7f7f" d="M 739.5,726.5 C 739.027,727.906 738.027,728.573 736.5,728.5C 736.973,727.094 737.973,726.427 739.5,726.5 Z"/></g>
<g><path style="opacity:0.765" fill="#808080" d="M 368.5,730.5 C 368.027,731.906 367.027,732.573 365.5,732.5C 365.973,731.094 366.973,730.427 368.5,730.5 Z"/></g>
<g><path style="opacity:0.757" fill="#868686" d="M 732.5,731.5 C 732.027,732.906 731.027,733.573 729.5,733.5C 729.973,732.094 730.973,731.427 732.5,731.5 Z"/></g>
<g><path style="opacity:0.702" fill="#7e7e7e" d="M 361.5,735.5 C 360.738,737.262 359.404,738.262 357.5,738.5C 358.262,736.738 359.596,735.738 361.5,735.5 Z"/></g>
<g><path style="opacity:0.714" fill="#7b7b7b" d="M 725.5,736.5 C 724.738,738.262 723.404,739.262 721.5,739.5C 722.262,737.738 723.596,736.738 725.5,736.5 Z"/></g>
<g><path style="opacity:0.773" fill="#7f7f7f" d="M 357.5,738.5 C 357.027,739.906 356.027,740.573 354.5,740.5C 354.973,739.094 355.973,738.427 357.5,738.5 Z"/></g>
<g><path style="opacity:0.71" fill="#7b7b7b" d="M 350.5,743.5 C 349.738,745.262 348.404,746.262 346.5,746.5C 347.262,744.738 348.596,743.738 350.5,743.5 Z"/></g>
<g><path style="opacity:0.702" fill="#7d7d7d" d="M 710.5,747.5 C 709.738,749.262 708.404,750.262 706.5,750.5C 707.262,748.738 708.596,747.738 710.5,747.5 Z"/></g>
<g><path style="opacity:0.725" fill="#777777" d="M 706.5,750.5 C 705.738,752.262 704.404,753.262 702.5,753.5C 703.262,751.738 704.596,750.738 706.5,750.5 Z"/></g>
<g><path style="opacity:0.733" fill="#767676" d="M 702.5,753.5 C 701.738,755.262 700.404,756.262 698.5,756.5C 699.262,754.738 700.596,753.738 702.5,753.5 Z"/></g>
<g><path style="opacity:0.698" fill="#808080" d="M 327.5,760.5 C 326.738,762.262 325.404,763.262 323.5,763.5C 324.262,761.738 325.596,760.738 327.5,760.5 Z"/></g>
<g><path style="opacity:0.729" fill="#777777" d="M 682.5,768.5 C 681.738,770.262 680.404,771.262 678.5,771.5C 679.262,769.738 680.596,768.738 682.5,768.5 Z"/></g>
<g><path style="opacity:0.718" fill="#7c7c7c" d="M 678.5,771.5 C 677.738,773.262 676.404,774.262 674.5,774.5C 675.262,772.738 676.596,771.738 678.5,771.5 Z"/></g>
<g><path style="opacity:0.973" fill="#595959" d="M 674.5,774.5 C 673.415,776.587 671.749,777.92 669.5,778.5C 670.585,776.413 672.251,775.08 674.5,774.5 Z"/></g>
<g><path style="opacity:0.722" fill="#7c7c7c" d="M 302.5,779.5 C 301.738,781.262 300.404,782.262 298.5,782.5C 299.262,780.738 300.596,779.738 302.5,779.5 Z"/></g>
<g><path style="opacity:0.718" fill="#7d7d7d" d="M 661.5,784.5 C 660.738,786.262 659.404,787.262 657.5,787.5C 658.262,785.738 659.596,784.738 661.5,784.5 Z"/></g>
<g><path style="opacity:0.961" fill="#5c5c5c" d="M 289.5,789.5 C 288.415,791.587 286.749,792.92 284.5,793.5C 285.585,791.413 287.251,790.08 289.5,789.5 Z"/></g>
<g><path style="opacity:0.733" fill="#787878" d="M 643.5,798.5 C 642.738,800.262 641.404,801.262 639.5,801.5C 640.262,799.738 641.596,798.738 643.5,798.5 Z"/></g>
<g><path style="opacity:0.957" fill="#5c5c5c" d="M 275.5,800.5 C 274.415,802.587 272.749,803.92 270.5,804.5C 271.585,802.413 273.251,801.08 275.5,800.5 Z"/></g>
<g><path style="opacity:0.741" fill="#767676" d="M 270.5,804.5 C 269.738,806.262 268.404,807.262 266.5,807.5C 267.262,805.738 268.596,804.738 270.5,804.5 Z"/></g>
<g><path style="opacity:0.761" fill="#969696" d="M 635.5,804.5 C 635.557,805.609 635.89,806.609 636.5,807.5C 633.285,807.013 632.952,806.013 635.5,804.5 Z"/></g>
<g><path style="opacity:0.965" fill="#535353" d="M 260.5,812.5 C 259.415,814.587 257.749,815.92 255.5,816.5C 256.585,814.413 258.251,813.08 260.5,812.5 Z"/></g>
<g><path style="opacity:0.706" fill="#7c7c7c" d="M 647.5,815.5 C 649.404,815.738 650.738,816.738 651.5,818.5C 649.596,818.262 648.262,817.262 647.5,815.5 Z"/></g>
<g><path style="opacity:0.961" fill="#565656" d="M 255.5,816.5 C 254.415,818.587 252.749,819.92 250.5,820.5C 251.585,818.413 253.251,817.08 255.5,816.5 Z"/></g>
<g><path style="opacity:0.635" fill="#797979" d="M 651.5,818.5 C 653.027,818.427 654.027,819.094 654.5,820.5C 652.973,820.573 651.973,819.906 651.5,818.5 Z"/></g>
<g><path style="opacity:0.961" fill="#585858" d="M 250.5,820.5 C 249.415,822.587 247.749,823.92 245.5,824.5C 246.585,822.413 248.251,821.08 250.5,820.5 Z"/></g>
<g><path style="opacity:0.906" fill="#787878" d="M 658.5,823.5 C 660.404,823.738 661.738,824.738 662.5,826.5C 660.596,826.262 659.262,825.262 658.5,823.5 Z"/></g>
<g><path style="opacity:0.914" fill="#656565" d="M 245.5,824.5 C 244.415,826.587 242.749,827.92 240.5,828.5C 241.585,826.413 243.251,825.08 245.5,824.5 Z"/></g>
<g><path style="opacity:0.647" fill="#777777" d="M 662.5,826.5 C 664.027,826.427 665.027,827.094 665.5,828.5C 663.973,828.573 662.973,827.906 662.5,826.5 Z"/></g>
<g><path style="opacity:0.957" fill="#575757" d="M 239.5,829.5 C 238.415,831.587 236.749,832.92 234.5,833.5C 235.585,831.413 237.251,830.08 239.5,829.5 Z"/></g>
<g><path style="opacity:0.914" fill="#666666" d="M 234.5,833.5 C 233.415,835.587 231.749,836.92 229.5,837.5C 230.585,835.413 232.251,834.08 234.5,833.5 Z"/></g>
<g><path style="opacity:0.918" fill="#616161" d="M 228.5,838.5 C 227.415,840.587 225.749,841.92 223.5,842.5C 224.585,840.413 226.251,839.08 228.5,838.5 Z"/></g>
<g><path style="opacity:0.702" fill="#7d7d7d" d="M 684.5,842.5 C 686.404,842.738 687.738,843.738 688.5,845.5C 686.596,845.262 685.262,844.262 684.5,842.5 Z"/></g>
<g><path style="opacity:0.914" fill="#636363" d="M 222.5,843.5 C 221.415,845.587 219.749,846.92 217.5,847.5C 218.585,845.413 220.251,844.08 222.5,843.5 Z"/></g>
<g><path style="opacity:0.569" fill="#828282" d="M 688.5,845.5 C 690.027,845.427 691.027,846.094 691.5,847.5C 689.973,847.573 688.973,846.906 688.5,845.5 Z"/></g>
<g><path style="opacity:0.902" fill="#797979" d="M 695.5,850.5 C 697.404,850.738 698.738,851.738 699.5,853.5C 697.596,853.262 696.262,852.262 695.5,850.5 Z"/></g>
<g><path style="opacity:0.918" fill="#5c5c5c" d="M 216.5,848.5 C 215.089,850.914 213.089,852.581 210.5,853.5C 211.911,851.086 213.911,849.419 216.5,848.5 Z"/></g>
<g><path style="opacity:0.643" fill="#787878" d="M 699.5,853.5 C 701.027,853.427 702.027,854.094 702.5,855.5C 700.973,855.573 699.973,854.906 699.5,853.5 Z"/></g>
<g><path style="opacity:0.875" fill="#686868" d="M 210.5,853.5 C 209.089,855.914 207.089,857.581 204.5,858.5C 205.911,856.086 207.911,854.419 210.5,853.5 Z"/></g>
<g><path style="opacity:0.91" fill="#777777" d="M 706.5,858.5 C 708.404,858.738 709.738,859.738 710.5,861.5C 708.596,861.262 707.262,860.262 706.5,858.5 Z"/></g>
<g><path style="opacity:0.886" fill="#626262" d="M 203.5,859.5 C 202.089,861.914 200.089,863.581 197.5,864.5C 198.911,862.086 200.911,860.419 203.5,859.5 Z"/></g>
<g><path style="opacity:0.655" fill="#757575" d="M 710.5,861.5 C 712.027,861.427 713.027,862.094 713.5,863.5C 711.973,863.573 710.973,862.906 710.5,861.5 Z"/></g>
<g><path style="opacity:0.886" fill="#616161" d="M 196.5,865.5 C 195.089,867.914 193.089,869.581 190.5,870.5C 191.911,868.086 193.911,866.419 196.5,865.5 Z"/></g>
<g><path style="opacity:0.851" fill="#666666" d="M 189.5,871.5 C 187.761,874.243 185.427,876.243 182.5,877.5C 184.239,874.757 186.573,872.757 189.5,871.5 Z"/></g>
<g><path style="opacity:0.898" fill="#797979" d="M 732.5,877.5 C 734.404,877.738 735.738,878.738 736.5,880.5C 734.596,880.262 733.262,879.262 732.5,877.5 Z"/></g>
<g><path style="opacity:0.851" fill="#646464" d="M 181.5,878.5 C 179.761,881.243 177.427,883.243 174.5,884.5C 176.239,881.757 178.573,879.757 181.5,878.5 Z"/></g>
<g><path style="opacity:0.639" fill="#797979" d="M 736.5,880.5 C 738.027,880.427 739.027,881.094 739.5,882.5C 737.973,882.573 736.973,881.906 736.5,880.5 Z"/></g>
<g><path style="opacity:0.906" fill="#787878" d="M 743.5,885.5 C 745.404,885.738 746.738,886.738 747.5,888.5C 745.596,888.262 744.262,887.262 743.5,885.5 Z"/></g>
<g><path style="opacity:0.8" fill="#6e6e6e" d="M 173.5,885.5 C 171.431,888.573 168.764,890.906 165.5,892.5C 167.569,889.427 170.236,887.094 173.5,885.5 Z"/></g>
<g><path style="opacity:0.651" fill="#777777" d="M 747.5,888.5 C 749.027,888.427 750.027,889.094 750.5,890.5C 748.973,890.573 747.973,889.906 747.5,888.5 Z"/></g>
<g><path style="opacity:0.808" fill="#6b6b6b" d="M 164.5,893.5 C 162.431,896.573 159.764,898.906 156.5,900.5C 158.569,897.427 161.236,895.094 164.5,893.5 Z"/></g>
<g><path style="opacity:0.702" fill="#7d7d7d" d="M 769.5,904.5 C 771.404,904.738 772.738,905.738 773.5,907.5C 771.596,907.262 770.262,906.262 769.5,904.5 Z"/></g>
<g><path style="opacity:0.949" fill="#5c5c5c" d="M 155.5,901.5 C 153.1,904.903 150.1,907.57 146.5,909.5C 148.9,906.097 151.9,903.43 155.5,901.5 Z"/></g>
<g><path style="opacity:0.6" fill="#7e7e7e" d="M 773.5,907.5 C 775.027,907.427 776.027,908.094 776.5,909.5C 774.973,909.573 773.973,908.906 773.5,907.5 Z"/></g>
<g><path style="opacity:0.902" fill="#787878" d="M 780.5,912.5 C 782.404,912.738 783.738,913.738 784.5,915.5C 782.596,915.262 781.262,914.262 780.5,912.5 Z"/></g>
<g><path style="opacity:0.851" fill="#646464" d="M 143.5,912.5 C 141.1,915.903 138.1,918.57 134.5,920.5C 136.9,917.097 139.9,914.43 143.5,912.5 Z"/></g>
<g><path style="opacity:0.643" fill="#787878" d="M 784.5,915.5 C 786.027,915.427 787.027,916.094 787.5,917.5C 785.973,917.573 784.973,916.906 784.5,915.5 Z"/></g>
<g><path style="opacity:0.725" fill="#787878" d="M 791.5,920.5 C 793.404,920.738 794.738,921.738 795.5,923.5C 793.596,923.262 792.262,922.262 791.5,920.5 Z"/></g>
<g><path style="opacity:0.655" fill="#757575" d="M 795.5,923.5 C 797.027,923.427 798.027,924.094 798.5,925.5C 796.973,925.573 795.973,924.906 795.5,923.5 Z"/></g>
<g><path style="opacity:0.886" fill="#606060" d="M 132.5,922.5 C 128.773,927.23 124.44,931.23 119.5,934.5C 123.227,929.77 127.56,925.77 132.5,922.5 Z"/></g>
<g><path style="opacity:0.698" fill="#7f7f7f" d="M 806.5,931.5 C 808.404,931.738 809.738,932.738 810.5,934.5C 808.596,934.262 807.262,933.262 806.5,931.5 Z"/></g>
<g><path style="opacity:0.569" fill="#858585" d="M 810.5,934.5 C 812.027,934.427 813.027,935.094 813.5,936.5C 811.973,936.573 810.973,935.906 810.5,934.5 Z"/></g>
<g><path style="opacity:0.71" fill="#7c7c7c" d="M 817.5,939.5 C 819.404,939.738 820.738,940.738 821.5,942.5C 819.596,942.262 818.262,941.262 817.5,939.5 Z"/></g>
<g><path style="opacity:0.639" fill="#787878" d="M 821.5,942.5 C 823.027,942.427 824.027,943.094 824.5,944.5C 822.973,944.573 821.973,943.906 821.5,942.5 Z"/></g>
<g><path style="opacity:0.871" fill="#606060" d="M 116.5,937.5 C 111.776,943.227 106.442,948.227 100.5,952.5C 105.224,946.773 110.558,941.773 116.5,937.5 Z"/></g>
<g><path style="opacity:0.906" fill="#777777" d="M 828.5,947.5 C 830.404,947.738 831.738,948.738 832.5,950.5C 830.596,950.262 829.262,949.262 828.5,947.5 Z"/></g>
<g><path style="opacity:0.651" fill="#767676" d="M 832.5,950.5 C 834.027,950.427 835.027,951.094 835.5,952.5C 833.973,952.573 832.973,951.906 832.5,950.5 Z"/></g>
<g><path style="opacity:0.706" fill="#7c7c7c" d="M 854.5,966.5 C 856.404,966.738 857.738,967.738 858.5,969.5C 856.596,969.262 855.262,968.262 854.5,966.5 Z"/></g>
<g><path style="opacity:0.635" fill="#797979" d="M 858.5,969.5 C 860.027,969.427 861.027,970.094 861.5,971.5C 859.973,971.573 858.973,970.906 858.5,969.5 Z"/></g>
<g><path style="opacity:0.902" fill="#787878" d="M 865.5,974.5 C 867.404,974.738 868.738,975.738 869.5,977.5C 867.596,977.262 866.262,976.262 865.5,974.5 Z"/></g>
<g><path style="opacity:0.898" fill="#606060" d="M 95.5,957.5 C 86.4468,967.555 76.7801,976.888 66.5,985.5C 75.5532,975.445 85.2199,966.112 95.5,957.5 Z"/></g>
<g><path style="opacity:0.647" fill="#777777" d="M 869.5,977.5 C 871.027,977.427 872.027,978.094 872.5,979.5C 870.973,979.573 869.973,978.906 869.5,977.5 Z"/></g>
<g><path style="opacity:0.467" fill="#888888" d="M 62.5,989.5 C 158.665,990.499 254.999,990.833 351.5,990.5C 254.668,991.666 157.668,991.832 60.5,991C 61.0442,990.283 61.7109,989.783 62.5,989.5 Z"/></g>
<g><path style="opacity:0.467" fill="#888888" d="M 1171.5,988.5 C 1172.63,989.122 1173.63,989.955 1174.5,991C 1078.67,991.832 982.999,991.666 887.5,990.5C 982.506,991.164 1077.17,990.498 1171.5,988.5 Z"/></g>
<g><path style="opacity:1" fill="#0e0e0e" d="M 138.5,1134.5 C 138.427,1136.03 139.094,1137.03 140.5,1137.5C 141.674,1138.51 142.34,1139.85 142.5,1141.5C 142.41,1144.15 143.076,1146.49 144.5,1148.5C 145.461,1150.26 145.795,1152.26 145.5,1154.5C 138.24,1156.47 130.573,1157.13 122.5,1156.5C 122.768,1154.9 122.434,1153.57 121.5,1152.5C 120.606,1149.61 119.272,1146.94 117.5,1144.5C 117.027,1143.09 116.027,1142.43 114.5,1142.5C 106.085,1138.35 97.7519,1138.52 89.5,1143C 83.1616,1149.18 81.8282,1156.35 85.5,1164.5C 85.5,1166.5 86.5,1167.5 88.5,1167.5C 88.8212,1169.05 89.8212,1169.71 91.5,1169.5C 102.8,1172.39 114.133,1175.23 125.5,1178C 131.065,1179.94 135.732,1183.11 139.5,1187.5C 139.427,1189.03 140.094,1190.03 141.5,1190.5C 144.564,1193.82 146.397,1197.82 147,1202.5C 151.537,1229.92 140.37,1246.42 113.5,1252C 105.167,1252.67 96.8333,1252.67 88.5,1252C 83.7891,1251.25 79.4557,1249.75 75.5,1247.5C 75.0269,1246.09 74.0269,1245.43 72.5,1245.5C 70.2512,1244.92 68.5846,1243.59 67.5,1241.5C 67.4456,1239.37 66.4456,1238.03 64.5,1237.5C 59.5181,1229.25 56.8514,1220.25 56.5,1210.5C 64.5069,1210.33 72.5069,1210.5 80.5,1211C 81.4352,1214.5 82.4352,1218 83.5,1221.5C 83.8333,1223.83 85.1667,1225.17 87.5,1225.5C 96.8852,1230.21 106.552,1230.71 116.5,1227C 123.499,1221.84 125.832,1215.01 123.5,1206.5C 123.715,1204.82 123.048,1203.82 121.5,1203.5C 118.525,1200.34 114.858,1198.17 110.5,1197C 102.967,1195.81 95.6335,1194.31 88.5,1192.5C 86.4855,1191.08 84.1522,1190.41 81.5,1190.5C 78.0078,1189.59 75.0078,1187.92 72.5,1185.5C 72.0269,1184.09 71.0269,1183.43 69.5,1183.5C 62.3362,1176.83 58.6696,1168.49 58.5,1158.5C 58.5396,1149.98 60.873,1142.31 65.5,1135.5C 67.2624,1134.74 68.2624,1133.4 68.5,1131.5C 70.7488,1130.92 72.4154,1129.59 73.5,1127.5C 75.7126,1125.14 78.3793,1123.31 81.5,1122C 98.8141,1115.55 115.481,1116.89 131.5,1126C 134.447,1128.44 136.78,1131.27 138.5,1134.5 Z"/></g>
<g><path style="opacity:0.435" fill="#959595" d="M 203.5,1120.5 C 233.995,1119.5 264.662,1119.17 295.5,1119.5C 295.5,1127.17 295.5,1134.83 295.5,1142.5C 284.5,1142.5 273.5,1142.5 262.5,1142.5C 262.5,1142.17 262.5,1141.83 262.5,1141.5C 273.167,1141.5 283.833,1141.5 294.5,1141.5C 294.5,1134.5 294.5,1127.5 294.5,1120.5C 264.167,1120.5 233.833,1120.5 203.5,1120.5 Z"/></g>
<g><path style="opacity:0.467" fill="#898989" d="M 378.5,1120.5 C 381.817,1119.83 385.317,1119.5 389,1119.5C 392.902,1119.51 396.402,1120.18 399.5,1121.5C 392.588,1120.54 385.588,1120.2 378.5,1120.5 Z"/></g>
<g><path style="opacity:0.467" fill="#8f8f8f" d="M 1168.5,1122.5 C 1164.22,1121.17 1159.55,1120.51 1154.5,1120.5C 1149.83,1120.67 1145.17,1120.83 1140.5,1121C 1139.96,1121.72 1139.29,1122.22 1138.5,1122.5C 1138.41,1121.5 1138.75,1120.67 1139.5,1120C 1149.83,1119.33 1160.17,1119.33 1170.5,1120C 1169.93,1120.99 1169.27,1121.83 1168.5,1122.5 Z"/></g>
<g><path style="opacity:1" fill="#000000" d="M 203.5,1120.5 C 233.833,1120.5 264.167,1120.5 294.5,1120.5C 294.5,1127.5 294.5,1134.5 294.5,1141.5C 283.833,1141.5 273.167,1141.5 262.5,1141.5C 261.502,1177.66 261.168,1214 261.5,1250.5C 253.5,1250.5 245.5,1250.5 237.5,1250.5C 237.5,1214.17 237.5,1177.83 237.5,1141.5C 226.167,1141.5 214.833,1141.5 203.5,1141.5C 203.5,1134.5 203.5,1127.5 203.5,1120.5 Z"/></g>
<g><path style="opacity:1" fill="#0b0b0b" d="M 378.5,1120.5 C 385.588,1120.2 392.588,1120.54 399.5,1121.5C 401.204,1124.94 402.538,1128.61 403.5,1132.5C 403.12,1134.7 403.787,1136.36 405.5,1137.5C 408.893,1146.01 411.893,1154.68 414.5,1163.5C 414.12,1165.7 414.787,1167.36 416.5,1168.5C 419.893,1177.01 422.893,1185.68 425.5,1194.5C 425.12,1196.7 425.787,1198.36 427.5,1199.5C 430.893,1208.01 433.893,1216.68 436.5,1225.5C 436.12,1227.7 436.787,1229.36 438.5,1230.5C 440.7,1236.43 442.7,1242.43 444.5,1248.5C 436.016,1249.49 427.349,1249.83 418.5,1249.5C 415.767,1241.63 413.434,1233.63 411.5,1225.5C 396.342,1224.5 381.009,1224.17 365.5,1224.5C 365.5,1225.5 365.5,1226.5 365.5,1227.5C 364.072,1234.44 362.072,1241.11 359.5,1247.5C 355.252,1248.77 350.752,1249.44 346,1249.5C 341.443,1249.49 337.276,1248.82 333.5,1247.5C 334.101,1244.03 335.101,1240.7 336.5,1237.5C 338.213,1236.36 338.88,1234.7 338.5,1232.5C 341.107,1223.68 344.107,1215.01 347.5,1206.5C 349.213,1205.36 349.88,1203.7 349.5,1201.5C 352.107,1192.68 355.107,1184.01 358.5,1175.5C 360.213,1174.36 360.88,1172.7 360.5,1170.5C 363.107,1161.68 366.107,1153.01 369.5,1144.5C 371.213,1143.36 371.88,1141.7 371.5,1139.5C 373.266,1132.86 375.599,1126.53 378.5,1120.5 Z M 389.5,1157.5 C 393.594,1172.45 398.261,1187.11 403.5,1201.5C 403.5,1202.5 403.5,1203.5 403.5,1204.5C 393.319,1204.83 383.319,1204.49 373.5,1203.5C 378.628,1188.66 383.295,1173.66 387.5,1158.5C 388.167,1158.17 388.833,1157.83 389.5,1157.5 Z"/></g>
<g><path style="opacity:0.6" fill="#6d6d6d" d="M 903.5,1121.5 C 903.5,1121.17 903.5,1120.83 903.5,1120.5C 911.84,1120.33 920.173,1120.5 928.5,1121C 929.252,1121.67 929.586,1122.5 929.5,1123.5C 928.711,1123.22 928.044,1122.72 927.5,1122C 919.507,1121.5 911.507,1121.33 903.5,1121.5 Z"/></g>
<g><path style="opacity:0.584" fill="#6c6c6c" d="M 1095.5,1120.5 C 1095.17,1120.5 1094.83,1120.5 1094.5,1120.5C 1086.83,1120.5 1079.17,1120.5 1071.5,1120.5C 1071.5,1163.5 1071.5,1206.5 1071.5,1249.5C 1079.17,1249.5 1086.83,1249.5 1094.5,1249.5C 1094.33,1237.5 1094.5,1225.5 1095,1213.5C 1095.38,1212.94 1095.88,1212.61 1096.5,1212.5C 1095.54,1225.12 1095.21,1237.78 1095.5,1250.5C 1087.17,1250.5 1078.83,1250.5 1070.5,1250.5C 1070.5,1206.83 1070.5,1163.17 1070.5,1119.5C 1079.02,1119.17 1087.35,1119.51 1095.5,1120.5 Z"/></g>
<g><path style="opacity:1" fill="#070707" d="M 1094.5,1120.5 C 1094.33,1140.5 1094.5,1160.5 1095,1180.5C 1095.72,1179.96 1096.22,1179.29 1096.5,1178.5C 1098.26,1177.74 1099.26,1176.4 1099.5,1174.5C 1101.26,1173.74 1102.26,1172.4 1102.5,1170.5C 1104.26,1169.74 1105.26,1168.4 1105.5,1166.5C 1107.26,1165.74 1108.26,1164.4 1108.5,1162.5C 1110.26,1161.74 1111.26,1160.4 1111.5,1158.5C 1113.26,1157.74 1114.26,1156.4 1114.5,1154.5C 1116.26,1153.74 1117.26,1152.4 1117.5,1150.5C 1119.26,1149.74 1120.26,1148.4 1120.5,1146.5C 1122.26,1145.74 1123.26,1144.4 1123.5,1142.5C 1125.26,1141.74 1126.26,1140.4 1126.5,1138.5C 1128.26,1137.74 1129.26,1136.4 1129.5,1134.5C 1131.26,1133.74 1132.26,1132.4 1132.5,1130.5C 1134.26,1129.74 1135.26,1128.4 1135.5,1126.5C 1137.26,1125.74 1138.26,1124.4 1138.5,1122.5C 1139.29,1122.22 1139.96,1121.72 1140.5,1121C 1145.17,1120.83 1149.83,1120.67 1154.5,1120.5C 1159.55,1120.51 1164.22,1121.17 1168.5,1122.5C 1155.29,1139.06 1141.96,1155.56 1128.5,1172C 1130.43,1175.08 1132.09,1178.24 1133.5,1181.5C 1133.43,1183.03 1134.09,1184.03 1135.5,1184.5C 1139,1189.5 1142,1194.83 1144.5,1200.5C 1144.43,1202.03 1145.09,1203.03 1146.5,1203.5C 1148.56,1206.24 1150.23,1209.24 1151.5,1212.5C 1151.43,1214.03 1152.09,1215.03 1153.5,1215.5C 1157,1220.5 1160,1225.83 1162.5,1231.5C 1162.43,1233.03 1163.09,1234.03 1164.5,1234.5C 1166.56,1237.24 1168.23,1240.24 1169.5,1243.5C 1169.43,1245.03 1170.09,1246.03 1171.5,1246.5C 1172.34,1246.84 1172.67,1247.51 1172.5,1248.5C 1162.93,1249.82 1153.26,1249.82 1143.5,1248.5C 1143.71,1246.82 1143.05,1245.82 1141.5,1245.5C 1131.76,1228.35 1122.26,1211.02 1113,1193.5C 1107.48,1199.91 1101.98,1206.24 1096.5,1212.5C 1095.88,1212.61 1095.38,1212.94 1095,1213.5C 1094.5,1225.5 1094.33,1237.5 1094.5,1249.5C 1086.83,1249.5 1079.17,1249.5 1071.5,1249.5C 1071.5,1206.5 1071.5,1163.5 1071.5,1120.5C 1079.17,1120.5 1086.83,1120.5 1094.5,1120.5 Z"/></g>
<g><path style="opacity:0.718" fill="#494949" d="M 1094.5,1120.5 C 1094.83,1120.5 1095.17,1120.5 1095.5,1120.5C 1095.17,1140.01 1095.5,1159.34 1096.5,1178.5C 1096.22,1179.29 1095.72,1179.96 1095,1180.5C 1094.5,1160.5 1094.33,1140.5 1094.5,1120.5 Z"/></g>
<g><path style="opacity:0.11" fill="#c6c6c6" d="M 562.5,1121.5 C 543.167,1121.5 523.833,1121.5 504.5,1121.5C 504.5,1164.5 504.5,1207.5 504.5,1250.5C 504.5,1250.83 504.5,1251.17 504.5,1251.5C 503.501,1208 503.168,1164.34 503.5,1120.5C 523.34,1120.17 543.007,1120.5 562.5,1121.5 Z"/></g>
<g><path style="opacity:1" fill="#070707" d="M 562.5,1121.5 C 583.957,1124.96 595.291,1137.63 596.5,1159.5C 596.505,1176.33 588.838,1188.16 573.5,1195C 583.167,1214 592.833,1233 602.5,1252C 592.483,1252.83 582.483,1252.67 572.5,1251.5C 564.486,1234.14 556.486,1216.81 548.5,1199.5C 542.021,1198.51 535.354,1198.18 528.5,1198.5C 528.5,1215.83 528.5,1233.17 528.5,1250.5C 520.5,1250.5 512.5,1250.5 504.5,1250.5C 504.5,1207.5 504.5,1164.5 504.5,1121.5C 523.833,1121.5 543.167,1121.5 562.5,1121.5 Z M 556.5,1141.5 C 561.017,1142.93 564.684,1145.6 567.5,1149.5C 567.932,1150.71 568.599,1151.71 569.5,1152.5C 570.664,1158.35 569.998,1164.02 567.5,1169.5C 565.5,1170.83 563.833,1172.5 562.5,1174.5C 559.302,1175.79 555.969,1176.45 552.5,1176.5C 545.018,1175.51 537.352,1175.17 529.5,1175.5C 529.5,1164.17 529.5,1152.83 529.5,1141.5C 538.5,1141.5 547.5,1141.5 556.5,1141.5 Z"/></g>
<g><path style="opacity:0.588" fill="#6f6f6f" d="M 662.5,1120.5 C 670.833,1120.5 679.167,1120.5 687.5,1120.5C 687.5,1156.5 687.5,1192.5 687.5,1228.5C 706.5,1228.5 725.5,1228.5 744.5,1228.5C 744.5,1236.17 744.5,1243.83 744.5,1251.5C 717.167,1251.5 689.833,1251.5 662.5,1251.5C 662.5,1207.83 662.5,1164.17 662.5,1120.5 Z"/></g>
<g><path style="opacity:1" fill="#000000" d="M 663.5,1121.5 C 671.167,1121.5 678.833,1121.5 686.5,1121.5C 686.5,1157.5 686.5,1193.5 686.5,1229.5C 705.5,1229.5 724.5,1229.5 743.5,1229.5C 743.5,1236.5 743.5,1243.5 743.5,1250.5C 716.833,1250.5 690.167,1250.5 663.5,1250.5C 663.5,1207.5 663.5,1164.5 663.5,1121.5 Z"/></g>
<g><path style="opacity:1" fill="#010101" d="M 808.5,1121.5 C 816.5,1121.5 824.5,1121.5 832.5,1121.5C 832.5,1164.5 832.5,1207.5 832.5,1250.5C 824.5,1250.5 816.5,1250.5 808.5,1250.5C 808.5,1207.5 808.5,1164.5 808.5,1121.5 Z"/></g>
<g><path style="opacity:0.408" fill="#949494" d="M 808.5,1121.5 C 816.65,1120.51 824.983,1120.17 833.5,1120.5C 833.5,1164.17 833.5,1207.83 833.5,1251.5C 824.983,1251.83 816.65,1251.49 808.5,1250.5C 816.5,1250.5 824.5,1250.5 832.5,1250.5C 832.5,1207.5 832.5,1164.5 832.5,1121.5C 824.5,1121.5 816.5,1121.5 808.5,1121.5 Z"/></g>
<g><path style="opacity:0.196" fill="#c8c8c8" d="M 903.5,1120.5 C 903.5,1120.83 903.5,1121.17 903.5,1121.5C 903.5,1164.5 903.5,1207.5 903.5,1250.5C 911.833,1250.5 920.167,1250.5 928.5,1250.5C 928.833,1250.5 929.167,1250.5 929.5,1250.5C 920.682,1251.49 911.682,1251.83 902.5,1251.5C 902.168,1207.66 902.501,1164 903.5,1120.5 Z"/></g>
<g><path style="opacity:1" fill="#020202" d="M 903.5,1121.5 C 911.507,1121.33 919.507,1121.5 927.5,1122C 928.044,1122.72 928.711,1123.22 929.5,1123.5C 931.56,1126.24 933.226,1129.24 934.5,1132.5C 934.427,1134.03 935.094,1135.03 936.5,1135.5C 939.669,1139.83 942.336,1144.5 944.5,1149.5C 944.427,1151.03 945.094,1152.03 946.5,1152.5C 948.56,1155.24 950.226,1158.24 951.5,1161.5C 951.427,1163.03 952.094,1164.03 953.5,1164.5C 954.338,1164.84 954.672,1165.51 954.5,1166.5C 954.427,1168.03 955.094,1169.03 956.5,1169.5C 958.56,1172.24 960.226,1175.24 961.5,1178.5C 961.427,1180.03 962.094,1181.03 963.5,1181.5C 964.338,1181.84 964.672,1182.51 964.5,1183.5C 964.427,1185.03 965.094,1186.03 966.5,1186.5C 968.56,1189.24 970.226,1192.24 971.5,1195.5C 971.427,1197.03 972.094,1198.03 973.5,1198.5C 973.461,1199.76 973.961,1200.76 975,1201.5C 975.5,1174.84 975.667,1148.17 975.5,1121.5C 983.5,1121.5 991.5,1121.5 999.5,1121.5C 999.5,1164.5 999.5,1207.5 999.5,1250.5C 991.833,1250.5 984.167,1250.5 976.5,1250.5C 975.263,1249.04 974.263,1247.37 973.5,1245.5C 973.715,1243.82 973.048,1242.82 971.5,1242.5C 971.167,1241.83 970.833,1241.17 970.5,1240.5C 970.715,1238.82 970.048,1237.82 968.5,1237.5C 966.58,1234.66 964.913,1231.66 963.5,1228.5C 963.715,1226.82 963.048,1225.82 961.5,1225.5C 961.167,1224.83 960.833,1224.17 960.5,1223.5C 960.715,1221.82 960.048,1220.82 958.5,1220.5C 956.58,1217.66 954.913,1214.66 953.5,1211.5C 953.715,1209.82 953.048,1208.82 951.5,1208.5C 949.58,1205.66 947.913,1202.66 946.5,1199.5C 946.715,1197.82 946.048,1196.82 944.5,1196.5C 944.167,1195.83 943.833,1195.17 943.5,1194.5C 943.715,1192.82 943.048,1191.82 941.5,1191.5C 939.58,1188.66 937.913,1185.66 936.5,1182.5C 936.715,1180.82 936.048,1179.82 934.5,1179.5C 934.167,1178.83 933.833,1178.17 933.5,1177.5C 933.715,1175.82 933.048,1174.82 931.5,1174.5C 930.89,1173.61 930.557,1172.61 930.5,1171.5C 930.631,1170.62 930.298,1169.96 929.5,1169.5C 928.5,1196.49 928.167,1223.49 928.5,1250.5C 920.167,1250.5 911.833,1250.5 903.5,1250.5C 903.5,1207.5 903.5,1164.5 903.5,1121.5 Z"/></g>
<g><path style="opacity:0.125" fill="#dddddd" d="M 975.5,1120.5 C 975.5,1120.83 975.5,1121.17 975.5,1121.5C 975.667,1148.17 975.5,1174.84 975,1201.5C 973.961,1200.76 973.461,1199.76 973.5,1198.5C 974.167,1172.5 974.833,1146.5 975.5,1120.5 Z"/></g>
<g><path style="opacity:0.18" fill="#bfbfbf" d="M 975.5,1121.5 C 975.5,1121.17 975.5,1120.83 975.5,1120.5C 983.833,1120.5 992.167,1120.5 1000.5,1120.5C 1000.5,1164.17 1000.5,1207.83 1000.5,1251.5C 992.316,1251.83 984.316,1251.49 976.5,1250.5C 984.167,1250.5 991.833,1250.5 999.5,1250.5C 999.5,1207.5 999.5,1164.5 999.5,1121.5C 991.5,1121.5 983.5,1121.5 975.5,1121.5 Z"/></g>
<g><path style="opacity:0.894" fill="#787878" d="M 1138.5,1122.5 C 1138.26,1124.4 1137.26,1125.74 1135.5,1126.5C 1135.74,1124.6 1136.74,1123.26 1138.5,1122.5 Z"/></g>
<g><path style="opacity:0.894" fill="#787878" d="M 1135.5,1126.5 C 1135.26,1128.4 1134.26,1129.74 1132.5,1130.5C 1132.74,1128.6 1133.74,1127.26 1135.5,1126.5 Z"/></g>
<g><path style="opacity:0.922" fill="#585858" d="M 73.5,1127.5 C 72.4154,1129.59 70.7488,1130.92 68.5,1131.5C 69.5846,1129.41 71.2512,1128.08 73.5,1127.5 Z"/></g>
<g><path style="opacity:0.894" fill="#787878" d="M 1132.5,1130.5 C 1132.26,1132.4 1131.26,1133.74 1129.5,1134.5C 1129.74,1132.6 1130.74,1131.26 1132.5,1130.5 Z"/></g>
<g><path style="opacity:0.831" fill="#868686" d="M 68.5,1131.5 C 68.2624,1133.4 67.2624,1134.74 65.5,1135.5C 65.7376,1133.6 66.7376,1132.26 68.5,1131.5 Z"/></g>
<g><path style="opacity:0.388" fill="#9b9b9b" d="M 934.5,1132.5 C 935.906,1132.97 936.573,1133.97 936.5,1135.5C 935.094,1135.03 934.427,1134.03 934.5,1132.5 Z"/></g>
<g><path style="opacity:0.929" fill="#787878" d="M 403.5,1132.5 C 404.537,1133.93 405.204,1135.6 405.5,1137.5C 403.787,1136.36 403.12,1134.7 403.5,1132.5 Z"/></g>
<g><path style="opacity:0.894" fill="#787878" d="M 1129.5,1134.5 C 1129.26,1136.4 1128.26,1137.74 1126.5,1138.5C 1126.74,1136.6 1127.74,1135.26 1129.5,1134.5 Z"/></g>
<g><path style="opacity:0.502" fill="#898989" d="M 138.5,1134.5 C 139.906,1134.97 140.573,1135.97 140.5,1137.5C 139.094,1137.03 138.427,1136.03 138.5,1134.5 Z"/></g>
<g><path style="opacity:0.894" fill="#787878" d="M 1126.5,1138.5 C 1126.26,1140.4 1125.26,1141.74 1123.5,1142.5C 1123.74,1140.6 1124.74,1139.26 1126.5,1138.5 Z"/></g>
<g><path style="opacity:0.196" fill="#b1b1b1" d="M 556.5,1141.5 C 547.5,1141.5 538.5,1141.5 529.5,1141.5C 529.5,1152.83 529.5,1164.17 529.5,1175.5C 537.352,1175.17 545.018,1175.51 552.5,1176.5C 544.5,1176.5 536.5,1176.5 528.5,1176.5C 528.5,1164.5 528.5,1152.5 528.5,1140.5C 538.015,1140.17 547.348,1140.51 556.5,1141.5 Z"/></g>
<g><path style="opacity:0.451" fill="#7f7f7f" d="M 203.5,1141.5 C 214.833,1141.5 226.167,1141.5 237.5,1141.5C 237.5,1177.83 237.5,1214.17 237.5,1250.5C 245.5,1250.5 253.5,1250.5 261.5,1250.5C 261.168,1214 261.502,1177.66 262.5,1141.5C 262.5,1141.83 262.5,1142.17 262.5,1142.5C 262.5,1178.83 262.5,1215.17 262.5,1251.5C 253.833,1251.5 245.167,1251.5 236.5,1251.5C 236.5,1215.17 236.5,1178.83 236.5,1142.5C 225.321,1142.83 214.321,1142.49 203.5,1141.5 Z"/></g>
<g><path style="opacity:0.925" fill="#787878" d="M 371.5,1139.5 C 371.88,1141.7 371.213,1143.36 369.5,1144.5C 369.796,1142.6 370.463,1140.93 371.5,1139.5 Z"/></g>
<g><path style="opacity:0.565" fill="#8b8b8b" d="M 114.5,1142.5 C 116.027,1142.43 117.027,1143.09 117.5,1144.5C 115.973,1144.57 114.973,1143.91 114.5,1142.5 Z"/></g>
<g><path style="opacity:0.882" fill="#7b7b7b" d="M 1123.5,1142.5 C 1123.26,1144.4 1122.26,1145.74 1120.5,1146.5C 1120.74,1144.6 1121.74,1143.26 1123.5,1142.5 Z"/></g>
<g><path style="opacity:0.949" fill="#6c6c6c" d="M 142.5,1141.5 C 143.924,1143.51 144.59,1145.85 144.5,1148.5C 143.076,1146.49 142.41,1144.15 142.5,1141.5 Z"/></g>
<g><path style="opacity:0.882" fill="#7b7b7b" d="M 1120.5,1146.5 C 1120.26,1148.4 1119.26,1149.74 1117.5,1150.5C 1117.74,1148.6 1118.74,1147.26 1120.5,1146.5 Z"/></g>
<g><path style="opacity:0.918" fill="#797979" d="M 567.5,1149.5 C 569.048,1149.82 569.715,1150.82 569.5,1152.5C 568.599,1151.71 567.932,1150.71 567.5,1149.5 Z"/></g>
<g><path style="opacity:0.376" fill="#9d9d9d" d="M 944.5,1149.5 C 945.906,1149.97 946.573,1150.97 946.5,1152.5C 945.094,1152.03 944.427,1151.03 944.5,1149.5 Z"/></g>
<g><path style="opacity:0.882" fill="#7b7b7b" d="M 1117.5,1150.5 C 1117.26,1152.4 1116.26,1153.74 1114.5,1154.5C 1114.74,1152.6 1115.74,1151.26 1117.5,1150.5 Z"/></g>
<g><path style="opacity:0.882" fill="#7b7b7b" d="M 1114.5,1154.5 C 1114.26,1156.4 1113.26,1157.74 1111.5,1158.5C 1111.74,1156.6 1112.74,1155.26 1114.5,1154.5 Z"/></g>
<g><path style="opacity:0.467" fill="#949494" d="M 121.5,1152.5 C 122.434,1153.57 122.768,1154.9 122.5,1156.5C 130.573,1157.13 138.24,1156.47 145.5,1154.5C 146.404,1155.21 146.737,1156.21 146.5,1157.5C 138.167,1157.5 129.833,1157.5 121.5,1157.5C 121.5,1155.83 121.5,1154.17 121.5,1152.5 Z"/></g>
<g><path style="opacity:0.114" fill="#d0d0d0" d="M 389.5,1157.5 C 388.833,1157.83 388.167,1158.17 387.5,1158.5C 388.032,1155.54 388.699,1155.21 389.5,1157.5 Z"/></g>
<g><path style="opacity:0.882" fill="#7b7b7b" d="M 1111.5,1158.5 C 1111.26,1160.4 1110.26,1161.74 1108.5,1162.5C 1108.74,1160.6 1109.74,1159.26 1111.5,1158.5 Z"/></g>
<g><path style="opacity:0.427" fill="#939393" d="M 951.5,1161.5 C 952.906,1161.97 953.573,1162.97 953.5,1164.5C 952.094,1164.03 951.427,1163.03 951.5,1161.5 Z"/></g>
<g><path style="opacity:0.878" fill="#7c7c7c" d="M 1108.5,1162.5 C 1108.26,1164.4 1107.26,1165.74 1105.5,1166.5C 1105.74,1164.6 1106.74,1163.26 1108.5,1162.5 Z"/></g>
<g><path style="opacity:0.663" fill="#a8a8a8" d="M 85.5,1164.5 C 86.8333,1165.17 87.8333,1166.17 88.5,1167.5C 86.5,1167.5 85.5,1166.5 85.5,1164.5 Z"/></g>
<g><path style="opacity:0.929" fill="#797979" d="M 414.5,1163.5 C 415.537,1164.93 416.204,1166.6 416.5,1168.5C 414.787,1167.36 414.12,1165.7 414.5,1163.5 Z"/></g>
<g><path style="opacity:0.878" fill="#7c7c7c" d="M 1105.5,1166.5 C 1105.26,1168.4 1104.26,1169.74 1102.5,1170.5C 1102.74,1168.6 1103.74,1167.26 1105.5,1166.5 Z"/></g>
<g><path style="opacity:0.922" fill="#7b7b7b" d="M 88.5,1167.5 C 89.7095,1167.93 90.7095,1168.6 91.5,1169.5C 89.8212,1169.71 88.8212,1169.05 88.5,1167.5 Z"/></g>
<g><path style="opacity:0.365" fill="#a0a0a0" d="M 954.5,1166.5 C 955.906,1166.97 956.573,1167.97 956.5,1169.5C 955.094,1169.03 954.427,1168.03 954.5,1166.5 Z"/></g>
<g><path style="opacity:0.784" fill="#373737" d="M 930.5,1171.5 C 929.502,1197.66 929.169,1223.99 929.5,1250.5C 929.167,1250.5 928.833,1250.5 928.5,1250.5C 928.167,1223.49 928.5,1196.49 929.5,1169.5C 930.298,1169.96 930.631,1170.62 930.5,1171.5 Z"/></g>
<g><path style="opacity:0.835" fill="#5c5c5c" d="M 567.5,1169.5 C 566.833,1172.17 565.167,1173.83 562.5,1174.5C 563.833,1172.5 565.5,1170.83 567.5,1169.5 Z"/></g>
<g><path style="opacity:0.89" fill="#7b7b7b" d="M 1102.5,1170.5 C 1102.26,1172.4 1101.26,1173.74 1099.5,1174.5C 1099.74,1172.6 1100.74,1171.26 1102.5,1170.5 Z"/></g>
<g><path style="opacity:0.925" fill="#787878" d="M 360.5,1170.5 C 360.88,1172.7 360.213,1174.36 358.5,1175.5C 358.796,1173.6 359.463,1171.93 360.5,1170.5 Z"/></g>
<g><path style="opacity:0.922" fill="#808080" d="M 931.5,1174.5 C 933.048,1174.82 933.715,1175.82 933.5,1177.5C 932.599,1176.71 931.932,1175.71 931.5,1174.5 Z"/></g>
<g><path style="opacity:0.878" fill="#7c7c7c" d="M 1099.5,1174.5 C 1099.26,1176.4 1098.26,1177.74 1096.5,1178.5C 1096.74,1176.6 1097.74,1175.26 1099.5,1174.5 Z"/></g>
<g><path style="opacity:0.945" fill="#787878" d="M 934.5,1179.5 C 936.048,1179.82 936.715,1180.82 936.5,1182.5C 935.599,1181.71 934.932,1180.71 934.5,1179.5 Z"/></g>
<g><path style="opacity:0.416" fill="#959595" d="M 961.5,1178.5 C 962.906,1178.97 963.573,1179.97 963.5,1181.5C 962.094,1181.03 961.427,1180.03 961.5,1178.5 Z"/></g>
<g><path style="opacity:0.353" fill="#a1a1a1" d="M 1133.5,1181.5 C 1134.91,1181.97 1135.57,1182.97 1135.5,1184.5C 1134.09,1184.03 1133.43,1183.03 1133.5,1181.5 Z"/></g>
<g><path style="opacity:0.533" fill="#909090" d="M 69.5,1183.5 C 71.0269,1183.43 72.0269,1184.09 72.5,1185.5C 70.9731,1185.57 69.9731,1184.91 69.5,1183.5 Z"/></g>
<g><path style="opacity:0.353" fill="#a2a2a2" d="M 964.5,1183.5 C 965.906,1183.97 966.573,1184.97 966.5,1186.5C 965.094,1186.03 964.427,1185.03 964.5,1183.5 Z"/></g>
<g><path style="opacity:0.773" fill="#878787" d="M 139.5,1187.5 C 140.906,1187.97 141.573,1188.97 141.5,1190.5C 140.094,1190.03 139.427,1189.03 139.5,1187.5 Z"/></g>
<g><path style="opacity:0.929" fill="#6b6b6b" d="M 81.5,1190.5 C 84.1522,1190.41 86.4855,1191.08 88.5,1192.5C 85.8478,1192.59 83.5145,1191.92 81.5,1190.5 Z"/></g>
<g><path style="opacity:0.925" fill="#7e7e7e" d="M 941.5,1191.5 C 943.048,1191.82 943.715,1192.82 943.5,1194.5C 942.599,1193.71 941.932,1192.71 941.5,1191.5 Z"/></g>
<g><path style="opacity:0.957" fill="#767676" d="M 944.5,1196.5 C 946.048,1196.82 946.715,1197.82 946.5,1199.5C 945.599,1198.71 944.932,1197.71 944.5,1196.5 Z"/></g>
<g><path style="opacity:0.929" fill="#797979" d="M 425.5,1194.5 C 426.537,1195.93 427.204,1197.6 427.5,1199.5C 425.787,1198.36 425.12,1196.7 425.5,1194.5 Z"/></g>
<g><path style="opacity:0.404" fill="#989898" d="M 971.5,1195.5 C 972.906,1195.97 973.573,1196.97 973.5,1198.5C 972.094,1198.03 971.427,1197.03 971.5,1195.5 Z"/></g>
<g><path style="opacity:0.196" fill="#bfbfbf" d="M 548.5,1199.5 C 542.167,1199.5 535.833,1199.5 529.5,1199.5C 529.5,1216.83 529.5,1234.17 529.5,1251.5C 521.167,1251.5 512.833,1251.5 504.5,1251.5C 504.5,1251.17 504.5,1250.83 504.5,1250.5C 512.5,1250.5 520.5,1250.5 528.5,1250.5C 528.5,1233.17 528.5,1215.83 528.5,1198.5C 535.354,1198.18 542.021,1198.51 548.5,1199.5 Z"/></g>
<g><path style="opacity:0.38" fill="#9b9b9b" d="M 1144.5,1200.5 C 1145.91,1200.97 1146.57,1201.97 1146.5,1203.5C 1145.09,1203.03 1144.43,1202.03 1144.5,1200.5 Z"/></g>
<g><path style="opacity:0.922" fill="#7b7b7b" d="M 121.5,1203.5 C 123.048,1203.82 123.715,1204.82 123.5,1206.5C 122.599,1205.71 121.932,1204.71 121.5,1203.5 Z"/></g>
<g><path style="opacity:0.929" fill="#787878" d="M 349.5,1201.5 C 349.88,1203.7 349.213,1205.36 347.5,1206.5C 347.796,1204.6 348.463,1202.93 349.5,1201.5 Z"/></g>
<g><path style="opacity:0.8" fill="#3a3a3a" d="M 403.5,1201.5 C 404.434,1202.57 404.768,1203.9 404.5,1205.5C 393.813,1205.83 383.146,1205.5 372.5,1204.5C 372.624,1203.89 372.957,1203.56 373.5,1203.5C 383.319,1204.49 393.319,1204.83 403.5,1204.5C 403.5,1203.5 403.5,1202.5 403.5,1201.5 Z"/></g>
<g><path style="opacity:0.925" fill="#7d7d7d" d="M 951.5,1208.5 C 953.048,1208.82 953.715,1209.82 953.5,1211.5C 952.599,1210.71 951.932,1209.71 951.5,1208.5 Z"/></g>
<g><path style="opacity:0.349" fill="#a3a3a3" d="M 1151.5,1212.5 C 1152.91,1212.97 1153.57,1213.97 1153.5,1215.5C 1152.09,1215.03 1151.43,1214.03 1151.5,1212.5 Z"/></g>
<g><path style="opacity:0.902" fill="#848484" d="M 958.5,1220.5 C 960.048,1220.82 960.715,1221.82 960.5,1223.5C 959.599,1222.71 958.932,1221.71 958.5,1220.5 Z"/></g>
<g><path style="opacity:0.906" fill="#808080" d="M 83.5,1221.5 C 85.1667,1222.5 86.5,1223.83 87.5,1225.5C 85.1667,1225.17 83.8333,1223.83 83.5,1221.5 Z"/></g>
<g><path style="opacity:0.333" fill="#a9a9a9" d="M 411.5,1225.5 C 395.925,1224.87 380.592,1225.54 365.5,1227.5C 365.5,1226.5 365.5,1225.5 365.5,1224.5C 381.009,1224.17 396.342,1224.5 411.5,1225.5 Z"/></g>
<g><path style="opacity:0.937" fill="#7b7b7b" d="M 961.5,1225.5 C 963.048,1225.82 963.715,1226.82 963.5,1228.5C 962.599,1227.71 961.932,1226.71 961.5,1225.5 Z"/></g>
<g><path style="opacity:0.929" fill="#797979" d="M 436.5,1225.5 C 437.537,1226.93 438.204,1228.6 438.5,1230.5C 436.787,1229.36 436.12,1227.7 436.5,1225.5 Z"/></g>
<g><path style="opacity:0.38" fill="#9c9c9c" d="M 1162.5,1231.5 C 1163.91,1231.97 1164.57,1232.97 1164.5,1234.5C 1163.09,1234.03 1162.43,1233.03 1162.5,1231.5 Z"/></g>
<g><path style="opacity:0.925" fill="#787878" d="M 338.5,1232.5 C 338.88,1234.7 338.213,1236.36 336.5,1237.5C 336.796,1235.6 337.463,1233.93 338.5,1232.5 Z"/></g>
<g><path style="opacity:0.941" fill="#848484" d="M 64.5,1237.5 C 66.4456,1238.03 67.4456,1239.37 67.5,1241.5C 66.0256,1240.56 65.0256,1239.23 64.5,1237.5 Z"/></g>
<g><path style="opacity:0.918" fill="#818181" d="M 968.5,1237.5 C 970.048,1237.82 970.715,1238.82 970.5,1240.5C 969.599,1239.71 968.932,1238.71 968.5,1237.5 Z"/></g>
<g><path style="opacity:0.941" fill="#797979" d="M 971.5,1242.5 C 973.048,1242.82 973.715,1243.82 973.5,1245.5C 972.599,1244.71 971.932,1243.71 971.5,1242.5 Z"/></g>
<g><path style="opacity:0.941" fill="#787878" d="M 1141.5,1245.5 C 1143.05,1245.82 1143.71,1246.82 1143.5,1248.5C 1142.6,1247.71 1141.93,1246.71 1141.5,1245.5 Z"/></g>
<g><path style="opacity:0.345" fill="#a3a3a3" d="M 1169.5,1243.5 C 1170.91,1243.97 1171.57,1244.97 1171.5,1246.5C 1170.09,1246.03 1169.43,1245.03 1169.5,1243.5 Z"/></g>
<g><path style="opacity:0.38" fill="#9f9f9f" d="M 72.5,1245.5 C 74.0269,1245.43 75.0269,1246.09 75.5,1247.5C 73.9731,1247.57 72.9731,1246.91 72.5,1245.5 Z"/></g>
<g><path style="opacity:0.467" fill="#8a8a8a" d="M 333.5,1247.5 C 337.276,1248.82 341.443,1249.49 346,1249.5C 350.752,1249.44 355.252,1248.77 359.5,1247.5C 359.5,1248.5 359.5,1249.5 359.5,1250.5C 350.5,1250.5 341.5,1250.5 332.5,1250.5C 332.263,1249.21 332.596,1248.21 333.5,1247.5 Z"/></g>
<g><path style="opacity:0.467" fill="#8f8f8f" d="M 444.5,1248.5 C 445.043,1248.56 445.376,1248.89 445.5,1249.5C 436.342,1250.82 427.342,1250.82 418.5,1249.5C 427.349,1249.83 436.016,1249.49 444.5,1248.5 Z"/></g>
<g><path style="opacity:0.467" fill="#909090" d="M 1143.5,1248.5 C 1153.26,1249.82 1162.93,1249.82 1172.5,1248.5C 1173.04,1248.56 1173.38,1248.89 1173.5,1249.5C 1168.5,1249.83 1163.5,1250.17 1158.5,1250.5C 1153.12,1250.49 1148.12,1249.83 1143.5,1248.5 Z"/></g>
</svg>
