<?xml version="1.0" encoding="UTF-8"?>
<!DOCTYPE svg PUBLIC "-//W3C//DTD SVG 1.1//EN" "http://www.w3.org/Graphics/SVG/1.1/DTD/svg11.dtd">
<svg xmlns="http://www.w3.org/2000/svg" version="1.1" width="180px" height="180px" style="shape-rendering:geometricPrecision; text-rendering:geometricPrecision; image-rendering:optimizeQuality; fill-rule:evenodd; clip-rule:evenodd" xmlns:xlink="http://www.w3.org/1999/xlink">
<g><path style="opacity:0.944" fill="#df5329" d="M 78.5,-0.5 C 85.8333,-0.5 93.1667,-0.5 100.5,-0.5C 144.957,8.2905 171.291,34.9572 179.5,79.5C 179.5,86.5 179.5,93.5 179.5,100.5C 171.174,143.16 145.841,169.493 103.5,179.5C 93.8333,179.5 84.1667,179.5 74.5,179.5C 33.8333,170.167 8.83333,145.167 -0.5,104.5C -0.5,94.8333 -0.5,85.1667 -0.5,75.5C 9.50695,33.1591 35.8403,7.82581 78.5,-0.5 Z M 78.5,15.5 C 98.059,13.3897 116.059,17.8897 132.5,29C 138.179,33.3457 143.179,38.3457 147.5,44C 130.426,62.0365 113.259,79.8699 96,97.5C 95.6667,81.8333 95.3333,66.1667 95,50.5C 92.1656,42.8311 86.6656,38.6644 78.5,38C 64.2269,37.5329 50.2269,37.3663 36.5,37.5C 48.3019,25.9327 62.3019,18.5994 78.5,15.5 Z M 16.5,74.5 C 28.8378,74.3335 41.1712,74.5001 53.5,75C 56.0495,75.7514 57.7161,77.418 58.5,80C 58.5398,98.2784 58.2065,116.612 57.5,135C 69.0105,140.837 80.8438,146.004 93,150.5C 95.9947,149.724 98.828,148.557 101.5,147C 122,126.5 142.5,106 163,85.5C 163.85,118.962 149.35,143.129 119.5,158C 82.8884,171.238 52.3884,162.738 28,132.5C 16.1463,114.732 12.3129,95.3983 16.5,74.5 Z"/></g>
</svg>
